<?xml version="1.0" encoding="utf-8" standalone="no"?>
<!DOCTYPE svg PUBLIC "-//W3C//DTD SVG 1.1//EN"
  "http://www.w3.org/Graphics/SVG/1.1/DTD/svg11.dtd">
<svg xmlns:xlink="http://www.w3.org/1999/xlink" width="864pt" height="432pt" viewBox="0 0 864 432" xmlns="http://www.w3.org/2000/svg" version="1.1">
 <metadata>
  <rdf:RDF xmlns:dc="http://purl.org/dc/elements/1.1/" xmlns:cc="http://creativecommons.org/ns#" xmlns:rdf="http://www.w3.org/1999/02/22-rdf-syntax-ns#">
   <cc:Work>
    <dc:type rdf:resource="http://purl.org/dc/dcmitype/StillImage"/>
    <dc:date>2026-03-10T09:19:58.011765</dc:date>
    <dc:format>image/svg+xml</dc:format>
    <dc:creator>
     <cc:Agent>
      <dc:title>Matplotlib v3.9.2, https://matplotlib.org/</dc:title>
     </cc:Agent>
    </dc:creator>
   </cc:Work>
  </rdf:RDF>
 </metadata>
 <defs>
  <style type="text/css">*{stroke-linejoin: round; stroke-linecap: butt}</style>
 </defs>
 <g id="figure_1">
  <g id="patch_1">
   <path d="M 0 432 
L 864 432 
L 864 0 
L 0 0 
z
" style="fill: #ffffff"/>
  </g>
  <g id="axes_1">
   <g id="patch_2">
    <path d="M 65.509683 369.725865 
L 443.154841 369.725865 
L 443.154841 111.635611 
L 65.509683 111.635611 
z
" style="fill: #ffffff"/>
   </g>
   <g id="matplotlib.axis_1">
    <g id="xtick_1">
     <g id="text_1">
      <!-- $\mathdefault{0}$ -->
      <g transform="translate(80.926099 383.60359) scale(0.15 -0.15)">
       <defs>
        <path id="CMR17-30" d="M 2688 2025 
C 2688 2416 2682 3080 2413 3591 
C 2176 4039 1798 4198 1466 4198 
C 1158 4198 768 4058 525 3597 
C 269 3118 243 2524 243 2025 
C 243 1661 250 1106 448 619 
C 723 -39 1216 -128 1466 -128 
C 1760 -128 2208 -7 2470 600 
C 2662 1042 2688 1559 2688 2025 
z
M 1466 -26 
C 1056 -26 813 325 723 812 
C 653 1188 653 1738 653 2096 
C 653 2588 653 2997 736 3387 
C 858 3929 1216 4096 1466 4096 
C 1728 4096 2067 3923 2189 3400 
C 2272 3036 2278 2607 2278 2096 
C 2278 1680 2278 1169 2202 792 
C 2067 95 1690 -26 1466 -26 
z
" transform="scale(0.015625)"/>
       </defs>
       <use xlink:href="#CMR17-30" transform="scale(0.996264)"/>
      </g>
     </g>
    </g>
    <g id="xtick_2">
     <g id="text_2">
      <!-- $\mathdefault{20}$ -->
      <g transform="translate(153.621827 383.60359) scale(0.15 -0.15)">
       <defs>
        <path id="CMR17-32" d="M 2669 989 
L 2554 989 
C 2490 536 2438 459 2413 420 
C 2381 369 1920 369 1830 369 
L 602 369 
C 832 619 1280 1072 1824 1597 
C 2214 1967 2669 2402 2669 3035 
C 2669 3790 2067 4224 1395 4224 
C 691 4224 262 3604 262 3030 
C 262 2780 448 2748 525 2748 
C 589 2748 781 2787 781 3010 
C 781 3207 614 3264 525 3264 
C 486 3264 448 3258 422 3245 
C 544 3790 915 4058 1306 4058 
C 1862 4058 2227 3617 2227 3035 
C 2227 2479 1901 2000 1536 1584 
L 262 146 
L 262 0 
L 2515 0 
L 2669 989 
z
" transform="scale(0.015625)"/>
       </defs>
       <use xlink:href="#CMR17-32" transform="scale(0.996264)"/>
       <use xlink:href="#CMR17-30" transform="translate(45.690477 0) scale(0.996264)"/>
      </g>
     </g>
    </g>
    <g id="xtick_3">
     <g id="text_3">
      <!-- $\mathdefault{40}$ -->
      <g transform="translate(229.975674 383.60359) scale(0.15 -0.15)">
       <defs>
        <path id="CMR17-34" d="M 2150 4122 
C 2150 4256 2144 4256 2029 4256 
L 128 1254 
L 128 1088 
L 1779 1088 
L 1779 457 
C 1779 224 1766 160 1318 160 
L 1197 160 
L 1197 0 
C 1402 0 1747 0 1965 0 
C 2182 0 2528 0 2733 0 
L 2733 160 
L 2611 160 
C 2163 160 2150 224 2150 457 
L 2150 1088 
L 2803 1088 
L 2803 1254 
L 2150 1254 
L 2150 4122 
z
M 1798 3703 
L 1798 1254 
L 256 1254 
L 1798 3703 
z
" transform="scale(0.015625)"/>
       </defs>
       <use xlink:href="#CMR17-34" transform="scale(0.996264)"/>
       <use xlink:href="#CMR17-30" transform="translate(45.690477 0) scale(0.996264)"/>
      </g>
     </g>
    </g>
    <g id="xtick_4">
     <g id="text_4">
      <!-- $\mathdefault{60}$ -->
      <g transform="translate(306.329521 383.60359) scale(0.15 -0.15)">
       <defs>
        <path id="CMR17-36" d="M 678 2176 
C 678 3690 1395 4032 1811 4032 
C 1946 4032 2272 4009 2400 3776 
C 2298 3776 2106 3776 2106 3553 
C 2106 3381 2246 3323 2336 3323 
C 2394 3323 2566 3348 2566 3560 
C 2566 3954 2246 4179 1805 4179 
C 1043 4179 243 3390 243 1984 
C 243 253 966 -128 1478 -128 
C 2099 -128 2688 427 2688 1283 
C 2688 2081 2170 2662 1517 2662 
C 1126 2662 838 2407 678 1960 
L 678 2176 
z
M 1478 25 
C 691 25 691 1200 691 1436 
C 691 1896 909 2560 1504 2560 
C 1613 2560 1926 2560 2138 2120 
C 2253 1870 2253 1609 2253 1289 
C 2253 944 2253 690 2118 434 
C 1978 171 1773 25 1478 25 
z
" transform="scale(0.015625)"/>
       </defs>
       <use xlink:href="#CMR17-36" transform="scale(0.996264)"/>
       <use xlink:href="#CMR17-30" transform="translate(45.690477 0) scale(0.996264)"/>
      </g>
     </g>
    </g>
    <g id="xtick_5">
     <g id="text_5">
      <!-- $\mathdefault{80}$ -->
      <g transform="translate(382.683368 383.60359) scale(0.15 -0.15)">
       <defs>
        <path id="CMR17-38" d="M 1741 2264 
C 2144 2467 2554 2773 2554 3263 
C 2554 3841 1990 4179 1472 4179 
C 890 4179 378 3759 378 3180 
C 378 3021 416 2747 666 2505 
C 730 2442 998 2251 1171 2130 
C 883 1983 211 1634 211 934 
C 211 279 838 -128 1459 -128 
C 2144 -128 2720 362 2720 1010 
C 2720 1590 2330 1857 2074 2029 
L 1741 2264 
z
M 902 2822 
C 851 2854 595 3051 595 3351 
C 595 3739 998 4032 1459 4032 
C 1965 4032 2336 3676 2336 3262 
C 2336 2669 1670 2331 1638 2331 
C 1632 2331 1626 2331 1574 2370 
L 902 2822 
z
M 2080 1519 
C 2176 1449 2483 1240 2483 851 
C 2483 381 2010 25 1472 25 
C 890 25 448 438 448 940 
C 448 1443 838 1862 1280 2060 
L 2080 1519 
z
" transform="scale(0.015625)"/>
       </defs>
       <use xlink:href="#CMR17-38" transform="scale(0.996264)"/>
       <use xlink:href="#CMR17-30" transform="translate(45.690477 0) scale(0.996264)"/>
      </g>
     </g>
    </g>
    <g id="text_6">
     <!-- $\theta_i$ [Degrees] -->
     <g transform="translate(208.36363 405.435356) scale(0.2 -0.2)">
      <defs>
       <path id="CMMI12-12" d="M 2835 3200 
C 2835 3850 2630 4480 2106 4480 
C 1210 4480 256 2615 256 1216 
C 256 923 320 -64 992 -64 
C 1862 -64 2835 1756 2835 3200 
z
M 896 2304 
C 992 2679 1126 3214 1382 3665 
C 1594 4047 1818 4352 2099 4352 
C 2310 4352 2451 4174 2451 3564 
C 2451 3334 2432 3017 2246 2304 
L 896 2304 
z
M 2202 2113 
C 2042 1490 1907 1088 1677 687 
C 1491 363 1267 64 998 64 
C 800 64 640 217 640 846 
C 640 1260 742 1693 845 2113 
L 2202 2113 
z
" transform="scale(0.015625)"/>
       <path id="CMMI12-69" d="M 1811 913 
C 1811 945 1786 971 1747 971 
C 1690 971 1683 952 1651 843 
C 1485 262 1222 64 1011 64 
C 934 64 845 83 845 275 
C 845 447 922 639 992 830 
L 1440 2018 
C 1459 2069 1504 2184 1504 2305 
C 1504 2574 1312 2816 998 2816 
C 410 2816 173 1890 173 1839 
C 173 1814 198 1782 243 1782 
C 301 1782 307 1807 333 1896 
C 486 2428 730 2682 979 2682 
C 1037 2682 1146 2682 1146 2478 
C 1146 2312 1062 2101 1011 1961 
L 563 773 
C 525 671 486 568 486 453 
C 486 166 685 -64 992 -64 
C 1581 -64 1811 869 1811 913 
z
M 1760 4013 
C 1760 4109 1683 4224 1542 4224 
C 1395 4224 1229 4083 1229 3917 
C 1229 3758 1363 3707 1440 3707 
C 1613 3707 1760 3873 1760 4013 
z
" transform="scale(0.015625)"/>
       <path id="CMR17-5b" d="M 1504 -1600 
L 1504 -1377 
L 902 -1377 
L 902 4544 
L 1504 4544 
L 1504 4767 
L 678 4767 
L 678 -1600 
L 1504 -1600 
z
" transform="scale(0.015625)"/>
       <path id="CMR17-44" d="M 333 4352 
L 333 4186 
C 774 4186 845 4186 845 3900 
L 845 452 
C 845 166 774 166 333 166 
L 333 0 
L 2368 0 
C 3398 0 4224 943 4224 2141 
C 4224 3346 3411 4352 2368 4352 
L 333 4352 
z
M 1523 166 
C 1267 166 1254 197 1254 414 
L 1254 3938 
C 1254 4155 1267 4186 1523 4186 
L 2240 4186 
C 2771 4186 3750 3874 3750 2141 
C 3750 1242 3488 879 3366 707 
C 3213 510 2848 166 2240 166 
L 1523 166 
z
" transform="scale(0.015625)"/>
       <path id="CMR17-65" d="M 2438 1472 
C 2464 1498 2464 1511 2464 1576 
C 2464 2238 2118 2816 1389 2816 
C 710 2816 173 2169 173 1383 
C 173 551 781 -64 1459 -64 
C 2176 -64 2458 607 2458 740 
C 2458 784 2419 784 2406 784 
C 2362 784 2355 771 2330 696 
C 2189 265 1837 51 1504 51 
C 1229 51 954 203 781 480 
C 582 803 582 1176 582 1472 
L 2438 1472 
z
M 589 1568 
C 634 2505 1126 2714 1382 2714 
C 1818 2714 2112 2297 2118 1568 
L 589 1568 
z
" transform="scale(0.015625)"/>
       <path id="CMR17-67" d="M 710 1164 
C 832 1068 1043 960 1299 960 
C 1805 960 2240 1357 2240 1888 
C 2240 2054 2189 2310 1997 2509 
C 2176 2692 2438 2752 2586 2752 
C 2611 2752 2650 2752 2682 2734 
C 2656 2728 2598 2703 2598 2605 
C 2598 2527 2656 2471 2739 2471 
C 2835 2471 2886 2533 2886 2614 
C 2886 2731 2790 2854 2586 2854 
C 2330 2854 2106 2738 1926 2580 
C 1734 2753 1504 2816 1299 2816 
C 794 2816 358 2419 358 1888 
C 358 1522 570 1292 634 1228 
C 442 1004 442 743 442 711 
C 442 545 506 302 723 168 
C 390 85 128 -169 128 -486 
C 128 -943 736 -1280 1466 -1280 
C 2170 -1280 2803 -956 2803 -479 
C 2803 384 1856 384 1363 384 
C 1216 384 954 384 922 391 
C 723 423 589 602 589 826 
C 589 883 589 1024 710 1164 
z
M 1299 1068 
C 736 1068 736 1760 736 1889 
C 736 2016 736 2708 1299 2708 
C 1862 2708 1862 2016 1862 1889 
C 1862 1760 1862 1068 1299 1068 
z
M 1466 -1171 
C 826 -1171 384 -835 384 -486 
C 384 -289 493 -105 634 -4 
C 794 104 858 104 1293 104 
C 1818 104 2547 104 2547 -486 
C 2547 -835 2106 -1171 1466 -1171 
z
" transform="scale(0.015625)"/>
       <path id="CMR17-72" d="M 960 1497 
C 960 2112 1222 2688 1702 2688 
C 1747 2688 1792 2682 1837 2662 
C 1837 2662 1696 2617 1696 2452 
C 1696 2298 1818 2234 1914 2234 
C 1990 2234 2131 2279 2131 2458 
C 2131 2663 1926 2790 1709 2790 
C 1222 2790 1011 2317 947 2093 
L 941 2093 
L 941 2790 
L 198 2720 
L 198 2554 
C 576 2554 634 2515 634 2208 
L 634 428 
C 634 184 608 153 198 153 
L 198 -13 
C 352 0 646 0 813 0 
C 998 0 1325 0 1498 -13 
L 1498 153 
C 1037 153 960 153 960 440 
L 960 1497 
z
" transform="scale(0.015625)"/>
       <path id="CMR17-73" d="M 1978 2697 
C 1978 2813 1971 2819 1933 2819 
C 1907 2819 1901 2813 1824 2717 
C 1805 2691 1747 2626 1728 2601 
C 1523 2819 1235 2819 1126 2819 
C 416 2819 160 2447 160 2076 
C 160 1498 813 1365 998 1325 
C 1402 1243 1542 1217 1677 1101 
C 1760 1025 1901 884 1901 654 
C 1901 384 1747 38 1158 38 
C 602 38 403 460 288 1021 
C 269 1110 269 1117 218 1117 
C 166 1117 160 1110 160 983 
L 160 63 
C 160 -51 166 -58 205 -58 
C 237 -58 243 -51 275 0 
C 314 57 410 211 448 276 
C 576 103 800 -64 1158 -64 
C 1792 -64 2131 283 2131 784 
C 2131 1112 1958 1285 1875 1362 
C 1683 1561 1459 1606 1190 1657 
C 838 1735 390 1825 390 2217 
C 390 2383 480 2737 1126 2737 
C 1811 2737 1850 2094 1862 1888 
C 1869 1856 1901 1849 1920 1849 
C 1978 1849 1978 1869 1978 1978 
L 1978 2697 
z
" transform="scale(0.015625)"/>
       <path id="CMR17-5d" d="M 915 4767 
L 90 4767 
L 90 4544 
L 691 4544 
L 691 -1377 
L 90 -1377 
L 90 -1600 
L 915 -1600 
L 915 4767 
z
" transform="scale(0.015625)"/>
      </defs>
      <use xlink:href="#CMMI12-12" transform="scale(0.996264)"/>
      <use xlink:href="#CMMI12-69" transform="translate(45.45979 -14.943915) scale(0.697382)"/>
      <use xlink:href="#CMR17-5b" transform="translate(99.328796 0) scale(0.996264)"/>
      <use xlink:href="#CMR17-44" transform="translate(124.199854 0) scale(0.996264)"/>
      <use xlink:href="#CMR17-65" transform="translate(194.59341 0) scale(0.996264)"/>
      <use xlink:href="#CMR17-67" transform="translate(235.079071 0) scale(0.996264)"/>
      <use xlink:href="#CMR17-72" transform="translate(280.769548 0) scale(0.996264)"/>
      <use xlink:href="#CMR17-65" transform="translate(316.050315 0) scale(0.996264)"/>
      <use xlink:href="#CMR17-65" transform="translate(356.535976 0) scale(0.996264)"/>
      <use xlink:href="#CMR17-73" transform="translate(397.021636 0) scale(0.996264)"/>
      <use xlink:href="#CMR17-5d" transform="translate(432.822974 0) scale(0.996264)"/>
     </g>
    </g>
   </g>
   <g id="matplotlib.axis_2">
    <g id="ytick_1">
     <g id="text_7">
      <!-- $\mathdefault{0.0}$ -->
      <g transform="translate(43.31263 363.176745) scale(0.15 -0.15)">
       <defs>
        <path id="CMMI12-3a" d="M 1178 307 
C 1178 492 1024 619 870 619 
C 685 619 557 466 557 313 
C 557 128 710 0 864 0 
C 1050 0 1178 153 1178 307 
z
" transform="scale(0.015625)"/>
       </defs>
       <use xlink:href="#CMR17-30" transform="scale(0.996264)"/>
       <use xlink:href="#CMMI12-3a" transform="translate(45.690477 0) scale(0.996264)"/>
       <use xlink:href="#CMR17-30" transform="translate(72.787654 0) scale(0.996264)"/>
      </g>
     </g>
    </g>
    <g id="ytick_2">
     <g id="text_8">
      <!-- $\mathdefault{0.2}$ -->
      <g transform="translate(43.31263 316.252064) scale(0.15 -0.15)">
       <use xlink:href="#CMR17-30" transform="scale(0.996264)"/>
       <use xlink:href="#CMMI12-3a" transform="translate(45.690477 0) scale(0.996264)"/>
       <use xlink:href="#CMR17-32" transform="translate(72.787654 0) scale(0.996264)"/>
      </g>
     </g>
    </g>
    <g id="ytick_3">
     <g id="text_9">
      <!-- $\mathdefault{0.4}$ -->
      <g transform="translate(43.31263 269.327383) scale(0.15 -0.15)">
       <use xlink:href="#CMR17-30" transform="scale(0.996264)"/>
       <use xlink:href="#CMMI12-3a" transform="translate(45.690477 0) scale(0.996264)"/>
       <use xlink:href="#CMR17-34" transform="translate(72.787654 0) scale(0.996264)"/>
      </g>
     </g>
    </g>
    <g id="ytick_4">
     <g id="text_10">
      <!-- $\mathdefault{0.6}$ -->
      <g transform="translate(43.31263 222.402702) scale(0.15 -0.15)">
       <use xlink:href="#CMR17-30" transform="scale(0.996264)"/>
       <use xlink:href="#CMMI12-3a" transform="translate(45.690477 0) scale(0.996264)"/>
       <use xlink:href="#CMR17-36" transform="translate(72.787654 0) scale(0.996264)"/>
      </g>
     </g>
    </g>
    <g id="ytick_5">
     <g id="text_11">
      <!-- $\mathdefault{0.8}$ -->
      <g transform="translate(43.31263 175.478022) scale(0.15 -0.15)">
       <use xlink:href="#CMR17-30" transform="scale(0.996264)"/>
       <use xlink:href="#CMMI12-3a" transform="translate(45.690477 0) scale(0.996264)"/>
       <use xlink:href="#CMR17-38" transform="translate(72.787654 0) scale(0.996264)"/>
      </g>
     </g>
    </g>
    <g id="ytick_6">
     <g id="text_12">
      <!-- $\mathdefault{1.0}$ -->
      <g transform="translate(43.31263 128.553341) scale(0.15 -0.15)">
       <defs>
        <path id="CMR17-31" d="M 1702 4058 
C 1702 4192 1696 4192 1606 4192 
C 1357 3916 979 3827 621 3827 
C 602 3827 570 3827 563 3808 
C 557 3795 557 3782 557 3648 
C 755 3648 1088 3686 1344 3839 
L 1344 461 
C 1344 236 1331 160 781 160 
L 589 160 
L 589 0 
C 896 0 1216 0 1523 0 
C 1830 0 2150 0 2458 0 
L 2458 160 
L 2266 160 
C 1715 160 1702 230 1702 458 
L 1702 4058 
z
" transform="scale(0.015625)"/>
       </defs>
       <use xlink:href="#CMR17-31" transform="scale(0.996264)"/>
       <use xlink:href="#CMMI12-3a" transform="translate(45.690477 0) scale(0.996264)"/>
       <use xlink:href="#CMR17-30" transform="translate(72.787654 0) scale(0.996264)"/>
      </g>
     </g>
    </g>
    <g id="text_13">
     <!-- Relative Intensity -->
     <g transform="translate(35.436997 311.12858) rotate(-90) scale(0.2 -0.2)">
      <defs>
       <path id="CMR17-52" d="M 2509 2146 
C 3117 2268 3629 2676 3629 3186 
C 3629 3785 2950 4326 2054 4326 
L 333 4326 
L 333 4160 
C 774 4160 845 4160 845 3873 
L 845 415 
C 845 128 774 128 333 128 
L 333 -26 
C 518 -26 851 -26 1050 -26 
C 1248 -26 1581 -26 1766 -26 
L 1766 128 
C 1325 128 1254 128 1254 417 
L 1254 2112 
L 2003 2112 
C 2368 2112 2573 1964 2662 1881 
C 2918 1632 2918 1459 2918 1024 
C 2918 595 2918 377 3110 160 
C 3354 -102 3680 -128 3821 -128 
C 4294 -128 4365 396 4365 503 
C 4365 540 4365 585 4307 585 
C 4256 585 4250 547 4250 522 
C 4218 112 4032 -26 3834 -26 
C 3482 -26 3443 375 3405 764 
C 3386 898 3373 993 3360 1133 
C 3322 1452 3270 1917 2509 2146 
z
M 1984 2214 
L 1254 2214 
L 1254 3913 
C 1254 4129 1267 4160 1523 4160 
L 1990 4160 
C 2522 4160 3142 3977 3142 3190 
C 3142 2372 2464 2214 1984 2214 
z
" transform="scale(0.015625)"/>
       <path id="CMR17-6c" d="M 979 4396 
L 218 4326 
L 218 4160 
C 595 4160 653 4122 653 3817 
L 653 426 
C 653 184 627 153 218 153 
L 218 -13 
C 371 0 653 0 813 0 
C 979 0 1261 0 1414 -13 
L 1414 153 
C 1005 153 979 178 979 426 
L 979 4396 
z
" transform="scale(0.015625)"/>
       <path id="CMR17-61" d="M 2304 1653 
C 2304 2072 2304 2294 2035 2543 
C 1798 2752 1523 2816 1306 2816 
C 800 2816 435 2407 435 1971 
C 435 1728 627 1728 666 1728 
C 749 1728 896 1778 896 1954 
C 896 2112 774 2181 666 2181 
C 640 2181 608 2174 589 2168 
C 723 2592 1069 2714 1293 2714 
C 1613 2714 1965 2429 1965 1885 
L 1965 1600 
C 1587 1600 1133 1549 774 1357 
C 371 1133 256 813 256 570 
C 256 77 832 -64 1171 -64 
C 1523 -64 1850 139 1990 511 
C 2003 233 2182 -18 2464 -18 
C 2598 -18 2938 70 2938 567 
L 2938 920 
L 2822 920 
L 2822 562 
C 2822 178 2650 128 2566 128 
C 2304 128 2304 458 2304 738 
L 2304 1653 
z
M 1965 870 
C 1965 317 1568 38 1216 38 
C 896 38 646 275 646 570 
C 646 761 730 1100 1101 1305 
C 1408 1478 1760 1504 1965 1504 
L 1965 870 
z
" transform="scale(0.015625)"/>
       <path id="CMR17-74" d="M 966 2560 
L 1862 2560 
L 1862 2725 
L 966 2725 
L 966 3904 
L 851 3904 
C 838 3245 614 2668 70 2668 
L 70 2560 
L 627 2560 
L 627 771 
C 627 650 627 -64 1370 -64 
C 1747 -64 1965 306 1965 777 
L 1965 1140 
L 1850 1140 
L 1850 783 
C 1850 344 1677 51 1408 51 
C 1222 51 966 178 966 758 
L 966 2560 
z
" transform="scale(0.015625)"/>
       <path id="CMR17-69" d="M 992 3909 
C 992 4049 877 4170 730 4170 
C 589 4170 467 4056 467 3909 
C 467 3769 582 3648 730 3648 
C 870 3648 992 3763 992 3909 
z
M 243 2706 
L 243 2541 
C 602 2541 653 2502 653 2197 
L 653 427 
C 653 184 627 153 218 153 
L 218 -13 
C 371 0 646 0 806 0 
C 960 0 1222 0 1370 -13 
L 1370 153 
C 992 153 979 191 979 420 
L 979 2776 
L 243 2706 
z
" transform="scale(0.015625)"/>
       <path id="CMR17-76" d="M 2502 2163 
C 2560 2304 2662 2560 3034 2560 
L 3034 2726 
C 2912 2726 2752 2726 2630 2726 
C 2496 2726 2285 2726 2157 2732 
L 2157 2566 
C 2317 2553 2406 2477 2406 2311 
C 2406 2253 2406 2240 2368 2151 
L 1664 377 
L 902 2286 
C 864 2369 864 2381 864 2407 
C 864 2560 1075 2560 1171 2560 
L 1171 2732 
C 1018 2726 736 2726 576 2726 
C 403 2726 205 2726 64 2732 
L 64 2560 
C 307 2560 442 2560 518 2362 
L 1446 44 
C 1485 -51 1491 -64 1549 -64 
C 1606 -64 1613 -51 1651 44 
L 2502 2163 
z
" transform="scale(0.015625)"/>
       <path id="CMR17-49" d="M 1261 3905 
C 1261 4192 1338 4192 1798 4192 
L 1798 4352 
C 1594 4352 1267 4352 1050 4352 
C 832 4352 506 4352 301 4352 
L 301 4192 
C 762 4192 838 4192 838 3905 
L 838 447 
C 838 160 762 160 301 160 
L 301 0 
C 506 0 832 0 1050 0 
C 1267 0 1594 0 1798 0 
L 1798 160 
C 1338 160 1261 160 1261 447 
L 1261 3905 
z
" transform="scale(0.015625)"/>
       <path id="CMR17-6e" d="M 2656 1933 
C 2656 2259 2592 2790 1837 2790 
C 1331 2790 1069 2400 973 2144 
L 966 2144 
L 966 2790 
L 211 2720 
L 211 2554 
C 589 2554 646 2515 646 2208 
L 646 428 
C 646 184 621 153 211 153 
L 211 -13 
C 365 0 646 0 813 0 
C 979 0 1267 0 1421 -13 
L 1421 153 
C 1011 153 986 178 986 428 
L 986 1658 
C 986 2247 1344 2688 1792 2688 
C 2266 2688 2317 2266 2317 1958 
L 2317 428 
C 2317 184 2291 153 1882 153 
L 1882 -13 
C 2035 0 2317 0 2483 0 
C 2650 0 2938 0 3091 -13 
L 3091 153 
C 2682 153 2656 178 2656 428 
L 2656 1933 
z
" transform="scale(0.015625)"/>
       <path id="CMR17-79" d="M 2496 2197 
C 2656 2586 2944 2586 3034 2586 
L 3034 2752 
C 2912 2752 2752 2752 2630 2752 
C 2496 2752 2285 2752 2157 2758 
L 2157 2592 
C 2400 2573 2406 2394 2406 2343 
C 2406 2280 2394 2248 2362 2171 
L 1664 449 
L 902 2306 
C 870 2382 870 2426 870 2433 
C 870 2573 1018 2586 1171 2586 
L 1171 2758 
C 1018 2752 742 2752 582 2752 
C 410 2752 205 2752 64 2758 
L 64 2586 
C 410 2586 448 2554 531 2350 
L 1485 15 
C 1197 -738 1030 -1178 627 -1178 
C 557 -1178 397 -1159 282 -1044 
C 429 -1031 493 -942 493 -833 
C 493 -725 416 -629 288 -629 
C 147 -629 77 -725 77 -840 
C 77 -1095 339 -1280 627 -1280 
C 998 -1280 1229 -922 1357 -604 
L 2496 2197 
z
" transform="scale(0.015625)"/>
      </defs>
      <use xlink:href="#CMR17-52" transform="scale(0.996264)"/>
      <use xlink:href="#CMR17-65" transform="translate(67.791102 0) scale(0.996264)"/>
      <use xlink:href="#CMR17-6c" transform="translate(108.276762 0) scale(0.996264)"/>
      <use xlink:href="#CMR17-61" transform="translate(133.147821 0) scale(0.996264)"/>
      <use xlink:href="#CMR17-74" transform="translate(178.838298 0) scale(0.996264)"/>
      <use xlink:href="#CMR17-69" transform="translate(214.119066 0) scale(0.996264)"/>
      <use xlink:href="#CMR17-76" transform="translate(238.990124 0) scale(0.996264)"/>
      <use xlink:href="#CMR17-65" transform="translate(284.680586 0) scale(0.996264)"/>
      <use xlink:href="#CMR17-49" transform="translate(355.242213 0) scale(0.996264)"/>
      <use xlink:href="#CMR17-6e" transform="translate(387.880622 0) scale(0.996264)"/>
      <use xlink:href="#CMR17-74" transform="translate(436.173538 0) scale(0.996264)"/>
      <use xlink:href="#CMR17-65" transform="translate(471.454306 0) scale(0.996264)"/>
      <use xlink:href="#CMR17-6e" transform="translate(511.939966 0) scale(0.996264)"/>
      <use xlink:href="#CMR17-73" transform="translate(562.835336 0) scale(0.996264)"/>
      <use xlink:href="#CMR17-69" transform="translate(598.636674 0) scale(0.996264)"/>
      <use xlink:href="#CMR17-74" transform="translate(623.507732 0) scale(0.996264)"/>
      <use xlink:href="#CMR17-79" transform="translate(656.186046 0) scale(0.996264)"/>
     </g>
    </g>
   </g>
   <g id="LineCollection_1">
    <path d="M 82.675372 176.816797 
L 86.493064 176.816797 
" clip-path="url(#p929a97144d)" style="fill: none; stroke: #1f77b4; stroke-width: 1.5"/>
    <path d="M 101.525228 184.764047 
L 105.820131 184.764047 
" clip-path="url(#p929a97144d)" style="fill: none; stroke: #1f77b4; stroke-width: 1.5"/>
    <path d="M 120.375084 175.667068 
L 125.147199 175.667068 
" clip-path="url(#p929a97144d)" style="fill: none; stroke: #1f77b4; stroke-width: 1.5"/>
    <path d="M 139.224939 197.169019 
L 144.474266 197.169019 
" clip-path="url(#p929a97144d)" style="fill: none; stroke: #1f77b4; stroke-width: 1.5"/>
    <path d="M 158.074795 193.921538 
L 163.801334 193.921538 
" clip-path="url(#p929a97144d)" style="fill: none; stroke: #1f77b4; stroke-width: 1.5"/>
    <path d="M 176.924651 199.165917 
L 183.128401 199.165917 
" clip-path="url(#p929a97144d)" style="fill: none; stroke: #1f77b4; stroke-width: 1.5"/>
    <path d="M 195.774507 196.503386 
L 202.455469 196.503386 
" clip-path="url(#p929a97144d)" style="fill: none; stroke: #1f77b4; stroke-width: 1.5"/>
    <path d="M 214.624363 196.241167 
L 221.782536 196.241167 
" clip-path="url(#p929a97144d)" style="fill: none; stroke: #1f77b4; stroke-width: 1.5"/>
    <path d="M 233.474219 195.696559 
L 241.109604 195.696559 
" clip-path="url(#p929a97144d)" style="fill: none; stroke: #1f77b4; stroke-width: 1.5"/>
    <path d="M 252.324075 197.471579 
L 260.436671 197.471579 
" clip-path="url(#p929a97144d)" style="fill: none; stroke: #1f77b4; stroke-width: 1.5"/>
    <path d="M 271.173931 197.713627 
L 279.763739 197.713627 
" clip-path="url(#p929a97144d)" style="fill: none; stroke: #1f77b4; stroke-width: 1.5"/>
    <path d="M 290.023787 198.399431 
L 299.090806 198.399431 
" clip-path="url(#p929a97144d)" style="fill: none; stroke: #1f77b4; stroke-width: 1.5"/>
    <path d="M 308.873643 200.013086 
L 318.417874 200.013086 
" clip-path="url(#p929a97144d)" style="fill: none; stroke: #1f77b4; stroke-width: 1.5"/>
    <path d="M 327.723499 207.335045 
L 337.744941 207.335045 
" clip-path="url(#p929a97144d)" style="fill: none; stroke: #1f77b4; stroke-width: 1.5"/>
    <path d="M 346.573355 210.562355 
L 357.072009 210.562355 
" clip-path="url(#p929a97144d)" style="fill: none; stroke: #1f77b4; stroke-width: 1.5"/>
    <path d="M 365.423211 232.689597 
L 376.399076 232.689597 
" clip-path="url(#p929a97144d)" style="fill: none; stroke: #1f77b4; stroke-width: 1.5"/>
    <path d="M 384.273067 264.256721 
L 395.726144 264.256721 
" clip-path="url(#p929a97144d)" style="fill: none; stroke: #1f77b4; stroke-width: 1.5"/>
   </g>
   <g id="LineCollection_2">
    <path clip-path="url(#p929a97144d)" style="fill: none; stroke: #1f77b4; stroke-width: 1.5"/>
    <path clip-path="url(#p929a97144d)" style="fill: none; stroke: #1f77b4; stroke-width: 1.5"/>
    <path d="M 122.761141 175.672047 
L 122.761141 175.662088 
" clip-path="url(#p929a97144d)" style="fill: none; stroke: #1f77b4; stroke-width: 1.5"/>
    <path d="M 141.849603 197.170631 
L 141.849603 197.167407 
" clip-path="url(#p929a97144d)" style="fill: none; stroke: #1f77b4; stroke-width: 1.5"/>
    <path d="M 160.938065 193.924255 
L 160.938065 193.918822 
" clip-path="url(#p929a97144d)" style="fill: none; stroke: #1f77b4; stroke-width: 1.5"/>
    <path d="M 180.026526 199.165917 
L 180.026526 199.165917 
" clip-path="url(#p929a97144d)" style="fill: none; stroke: #1f77b4; stroke-width: 1.5"/>
    <path d="M 199.114988 196.503386 
L 199.114988 196.503386 
" clip-path="url(#p929a97144d)" style="fill: none; stroke: #1f77b4; stroke-width: 1.5"/>
    <path d="M 218.20345 196.24473 
L 218.20345 196.237604 
" clip-path="url(#p929a97144d)" style="fill: none; stroke: #1f77b4; stroke-width: 1.5"/>
    <path d="M 237.291912 195.696559 
L 237.291912 195.696559 
" clip-path="url(#p929a97144d)" style="fill: none; stroke: #1f77b4; stroke-width: 1.5"/>
    <path d="M 256.380373 197.471579 
L 256.380373 197.471579 
" clip-path="url(#p929a97144d)" style="fill: none; stroke: #1f77b4; stroke-width: 1.5"/>
    <path d="M 275.468835 197.71391 
L 275.468835 197.713345 
" clip-path="url(#p929a97144d)" style="fill: none; stroke: #1f77b4; stroke-width: 1.5"/>
    <path d="M 294.557297 198.406038 
L 294.557297 198.392824 
" clip-path="url(#p929a97144d)" style="fill: none; stroke: #1f77b4; stroke-width: 1.5"/>
    <path d="M 313.645758 200.013086 
L 313.645758 200.013086 
" clip-path="url(#p929a97144d)" style="fill: none; stroke: #1f77b4; stroke-width: 1.5"/>
    <path d="M 332.73422 207.339866 
L 332.73422 207.330224 
" clip-path="url(#p929a97144d)" style="fill: none; stroke: #1f77b4; stroke-width: 1.5"/>
    <path d="M 351.822682 210.563564 
L 351.822682 210.561145 
" clip-path="url(#p929a97144d)" style="fill: none; stroke: #1f77b4; stroke-width: 1.5"/>
    <path d="M 370.911144 232.69294 
L 370.911144 232.686255 
" clip-path="url(#p929a97144d)" style="fill: none; stroke: #1f77b4; stroke-width: 1.5"/>
    <path d="M 389.999605 264.265928 
L 389.999605 264.247514 
" clip-path="url(#p929a97144d)" style="fill: none; stroke: #1f77b4; stroke-width: 1.5"/>
   </g>
   <g id="LineCollection_3">
    <path clip-path="url(#p929a97144d)" style="fill: none; stroke: #d62728; stroke-width: 1.5"/>
    <path clip-path="url(#p929a97144d)" style="fill: none; stroke: #d62728; stroke-width: 1.5"/>
    <path d="M 120.375084 354.76259 
L 125.147199 354.76259 
" clip-path="url(#p929a97144d)" style="fill: none; stroke: #d62728; stroke-width: 1.5"/>
    <path d="M 139.224939 357.87291 
L 144.474266 357.87291 
" clip-path="url(#p929a97144d)" style="fill: none; stroke: #d62728; stroke-width: 1.5"/>
    <path d="M 158.074795 355.04498 
L 163.801334 355.04498 
" clip-path="url(#p929a97144d)" style="fill: none; stroke: #d62728; stroke-width: 1.5"/>
    <path d="M 176.924651 349.114798 
L 183.128401 349.114798 
" clip-path="url(#p929a97144d)" style="fill: none; stroke: #d62728; stroke-width: 1.5"/>
    <path d="M 195.774507 349.437529 
L 202.455469 349.437529 
" clip-path="url(#p929a97144d)" style="fill: none; stroke: #d62728; stroke-width: 1.5"/>
    <path d="M 214.624363 350.607429 
L 221.782536 350.607429 
" clip-path="url(#p929a97144d)" style="fill: none; stroke: #d62728; stroke-width: 1.5"/>
    <path d="M 233.474219 357.987883 
L 241.109604 357.987883 
" clip-path="url(#p929a97144d)" style="fill: none; stroke: #d62728; stroke-width: 1.5"/>
    <path d="M 252.324075 357.987883 
L 260.436671 357.987883 
" clip-path="url(#p929a97144d)" style="fill: none; stroke: #d62728; stroke-width: 1.5"/>
    <path d="M 271.173931 355.105492 
L 279.763739 355.105492 
" clip-path="url(#p929a97144d)" style="fill: none; stroke: #d62728; stroke-width: 1.5"/>
    <path d="M 290.023787 357.987883 
L 299.090806 357.987883 
" clip-path="url(#p929a97144d)" style="fill: none; stroke: #d62728; stroke-width: 1.5"/>
    <path d="M 308.873643 357.987883 
L 318.417874 357.987883 
" clip-path="url(#p929a97144d)" style="fill: none; stroke: #d62728; stroke-width: 1.5"/>
    <path d="M 327.723499 355.194243 
L 337.744941 355.194243 
" clip-path="url(#p929a97144d)" style="fill: none; stroke: #d62728; stroke-width: 1.5"/>
    <path d="M 346.573355 351.313403 
L 357.072009 351.313403 
" clip-path="url(#p929a97144d)" style="fill: none; stroke: #d62728; stroke-width: 1.5"/>
    <path d="M 365.423211 340.037989 
L 376.399076 340.037989 
" clip-path="url(#p929a97144d)" style="fill: none; stroke: #d62728; stroke-width: 1.5"/>
    <path d="M 384.273067 305.929359 
L 395.726144 305.929359 
" clip-path="url(#p929a97144d)" style="fill: none; stroke: #d62728; stroke-width: 1.5"/>
   </g>
   <g id="LineCollection_4">
    <path clip-path="url(#p929a97144d)" style="fill: none; stroke: #d62728; stroke-width: 1.5"/>
    <path clip-path="url(#p929a97144d)" style="fill: none; stroke: #d62728; stroke-width: 1.5"/>
    <path d="M 122.761141 354.76757 
L 122.761141 354.75761 
" clip-path="url(#p929a97144d)" style="fill: none; stroke: #d62728; stroke-width: 1.5"/>
    <path d="M 141.849603 357.874521 
L 141.849603 357.871298 
" clip-path="url(#p929a97144d)" style="fill: none; stroke: #d62728; stroke-width: 1.5"/>
    <path d="M 160.938065 355.047696 
L 160.938065 355.042263 
" clip-path="url(#p929a97144d)" style="fill: none; stroke: #d62728; stroke-width: 1.5"/>
    <path d="M 180.026526 349.114798 
L 180.026526 349.114798 
" clip-path="url(#p929a97144d)" style="fill: none; stroke: #d62728; stroke-width: 1.5"/>
    <path d="M 199.114988 349.437529 
L 199.114988 349.437529 
" clip-path="url(#p929a97144d)" style="fill: none; stroke: #d62728; stroke-width: 1.5"/>
    <path d="M 218.20345 350.610992 
L 218.20345 350.603866 
" clip-path="url(#p929a97144d)" style="fill: none; stroke: #d62728; stroke-width: 1.5"/>
    <path d="M 237.291912 357.987883 
L 237.291912 357.987883 
" clip-path="url(#p929a97144d)" style="fill: none; stroke: #d62728; stroke-width: 1.5"/>
    <path d="M 256.380373 357.987883 
L 256.380373 357.987883 
" clip-path="url(#p929a97144d)" style="fill: none; stroke: #d62728; stroke-width: 1.5"/>
    <path d="M 275.468835 355.105774 
L 275.468835 355.105209 
" clip-path="url(#p929a97144d)" style="fill: none; stroke: #d62728; stroke-width: 1.5"/>
    <path d="M 294.557297 357.99449 
L 294.557297 357.981276 
" clip-path="url(#p929a97144d)" style="fill: none; stroke: #d62728; stroke-width: 1.5"/>
    <path d="M 313.645758 357.987883 
L 313.645758 357.987883 
" clip-path="url(#p929a97144d)" style="fill: none; stroke: #d62728; stroke-width: 1.5"/>
    <path d="M 332.73422 355.199064 
L 332.73422 355.189421 
" clip-path="url(#p929a97144d)" style="fill: none; stroke: #d62728; stroke-width: 1.5"/>
    <path d="M 351.822682 351.314612 
L 351.822682 351.312193 
" clip-path="url(#p929a97144d)" style="fill: none; stroke: #d62728; stroke-width: 1.5"/>
    <path d="M 370.911144 340.041332 
L 370.911144 340.034646 
" clip-path="url(#p929a97144d)" style="fill: none; stroke: #d62728; stroke-width: 1.5"/>
    <path d="M 389.999605 305.938566 
L 389.999605 305.920151 
" clip-path="url(#p929a97144d)" style="fill: none; stroke: #d62728; stroke-width: 1.5"/>
   </g>
   <g id="line2d_1">
    <path d="M 86.771594 130.625984 
L 90.198034 130.620297 
L 93.624474 130.609613 
L 97.050914 130.593929 
L 100.477354 130.573242 
L 103.903794 130.547546 
L 107.330234 130.516836 
L 110.756674 130.481105 
L 114.183114 130.440345 
L 117.609554 130.394548 
L 121.035994 130.343705 
L 124.462434 130.287806 
L 127.888874 130.226842 
L 131.315314 130.160805 
L 134.741754 130.089685 
L 138.168194 130.013474 
L 141.594634 129.932165 
L 145.021074 129.845753 
L 148.447514 129.754234 
L 151.873954 129.657608 
L 155.300394 129.555875 
L 158.726834 129.449042 
L 162.153274 129.337118 
L 165.579714 129.220119 
L 169.006154 129.098064 
L 172.432594 128.970982 
L 175.859034 128.838907 
L 179.285474 128.701885 
L 182.711914 128.559969 
L 186.138354 128.413227 
L 189.564794 128.261738 
L 192.991234 128.105598 
L 196.417674 127.944917 
L 199.844114 127.779828 
L 203.270554 127.610482 
L 206.696994 127.437057 
L 210.123434 127.259756 
L 213.549874 127.078815 
L 216.976314 126.894501 
L 220.402754 126.707121 
L 223.829194 126.517025 
L 227.255633 126.324608 
L 230.682073 126.13032 
L 234.108513 125.934671 
L 237.534953 125.738233 
L 240.961393 125.541656 
L 244.387833 125.345669 
L 247.814273 125.151093 
L 251.240713 124.95885 
L 254.667153 124.769974 
L 258.093593 124.585628 
L 261.520033 124.407113 
L 264.946473 124.235884 
L 268.372913 124.073573 
L 271.799353 123.922003 
L 275.225793 123.783214 
L 278.652233 123.659484 
L 282.078673 123.553359 
L 285.505113 123.467683 
L 288.931553 123.40563 
L 292.357993 123.370746 
L 295.784433 123.366986 
L 299.210873 123.398768 
L 302.637313 123.471019 
L 306.063753 123.589241 
L 309.490193 123.759573 
L 312.916633 123.98887 
L 316.343073 124.284783 
L 319.769513 124.655853 
L 323.195953 125.111621 
L 326.622393 125.662741 
L 330.048833 126.32112 
L 333.475273 127.100063 
L 336.901713 128.014445 
L 340.328153 129.080903 
L 343.754593 130.318054 
L 347.181033 131.746733 
L 350.607473 133.39028 
L 354.033913 135.274846 
L 357.460353 137.429754 
L 360.886793 139.887902 
L 364.313233 142.686227 
L 367.739673 145.866231 
L 371.166113 149.474581 
L 374.592553 153.563798 
L 378.018993 158.193046 
L 381.445433 163.429038 
L 384.871873 169.34708 
L 388.298312 176.032272 
L 391.724752 183.580899 
L 395.151192 192.102045 
L 398.577632 201.719463 
L 402.004072 212.573753 
L 405.430512 224.824916 
L 408.856952 238.655331 
L 412.283392 254.273264 
L 415.709832 271.916995 
L 419.136272 291.859709 
L 422.562712 314.415291 
L 425.989152 339.945233 
" clip-path="url(#p929a97144d)" style="fill: none; stroke: #1f77b4; stroke-width: 1.5; stroke-linecap: square"/>
   </g>
   <g id="line2d_2">
    <path d="M 86.771594 350.726377 
L 90.198034 350.732064 
L 93.624474 350.742748 
L 97.050914 350.758432 
L 100.477354 350.779119 
L 103.903794 350.804815 
L 107.330234 350.835525 
L 110.756674 350.871256 
L 114.183114 350.912016 
L 117.609554 350.957813 
L 121.035994 351.008656 
L 124.462434 351.064555 
L 127.888874 351.125519 
L 131.315314 351.191556 
L 134.741754 351.262676 
L 138.168194 351.338887 
L 141.594634 351.420196 
L 145.021074 351.506608 
L 148.447514 351.598127 
L 151.873954 351.694753 
L 155.300394 351.796486 
L 158.726834 351.903319 
L 162.153274 352.015242 
L 165.579714 352.132242 
L 169.006154 352.254297 
L 172.432594 352.381379 
L 175.859034 352.513454 
L 179.285474 352.650476 
L 182.711914 352.792392 
L 186.138354 352.939134 
L 189.564794 353.090623 
L 192.991234 353.246763 
L 196.417674 353.407444 
L 199.844114 353.572533 
L 203.270554 353.741879 
L 206.696994 353.915304 
L 210.123434 354.092605 
L 213.549874 354.273546 
L 216.976314 354.45786 
L 220.402754 354.64524 
L 223.829194 354.835336 
L 227.255633 355.027753 
L 230.682073 355.222041 
L 234.108513 355.41769 
L 237.534953 355.614128 
L 240.961393 355.810705 
L 244.387833 356.006692 
L 247.814273 356.201268 
L 251.240713 356.393511 
L 254.667153 356.582386 
L 258.093593 356.766733 
L 261.520033 356.945248 
L 264.946473 357.116477 
L 268.372913 357.278788 
L 271.799353 357.430358 
L 275.225793 357.569147 
L 278.652233 357.692877 
L 282.078673 357.799002 
L 285.505113 357.884678 
L 288.931553 357.946731 
L 292.357993 357.981615 
L 295.784433 357.985374 
L 299.210873 357.953593 
L 302.637313 357.881342 
L 306.063753 357.76312 
L 309.490193 357.592788 
L 312.916633 357.363491 
L 316.343073 357.067578 
L 319.769513 356.696508 
L 323.195953 356.24074 
L 326.622393 355.68962 
L 330.048833 355.031241 
L 333.475273 354.252298 
L 336.901713 353.337916 
L 340.328153 352.271458 
L 343.754593 351.034307 
L 347.181033 349.605628 
L 350.607473 347.962081 
L 354.033913 346.077515 
L 357.460353 343.922607 
L 360.886793 341.464459 
L 364.313233 338.666134 
L 367.739673 335.48613 
L 371.166113 331.87778 
L 374.592553 327.788563 
L 378.018993 323.159315 
L 381.445433 317.923323 
L 384.871873 312.005281 
L 388.298312 305.320089 
L 391.724752 297.771462 
L 395.151192 289.250315 
L 398.577632 279.632898 
L 402.004072 268.778608 
L 405.430512 256.527445 
L 408.856952 242.69703 
L 412.283392 227.079097 
L 415.709832 209.435366 
L 419.136272 189.492652 
L 422.562712 166.93707 
L 425.989152 141.407127 
" clip-path="url(#p929a97144d)" style="fill: none; stroke: #d62728; stroke-width: 1.5; stroke-linecap: square"/>
   </g>
   <g id="line2d_3">
    <defs>
     <path id="mfa53c61018" d="M -3 3 
L 3 -3 
M -3 -3 
L 3 3 
" style="stroke: #1f77b4"/>
    </defs>
    <g clip-path="url(#p929a97144d)">
     <use xlink:href="#mfa53c61018" x="84.584218" y="176.816797" style="fill: #1f77b4; stroke: #1f77b4"/>
     <use xlink:href="#mfa53c61018" x="103.672679" y="184.764047" style="fill: #1f77b4; stroke: #1f77b4"/>
     <use xlink:href="#mfa53c61018" x="122.761141" y="175.667068" style="fill: #1f77b4; stroke: #1f77b4"/>
     <use xlink:href="#mfa53c61018" x="141.849603" y="197.169019" style="fill: #1f77b4; stroke: #1f77b4"/>
     <use xlink:href="#mfa53c61018" x="160.938065" y="193.921538" style="fill: #1f77b4; stroke: #1f77b4"/>
     <use xlink:href="#mfa53c61018" x="180.026526" y="199.165917" style="fill: #1f77b4; stroke: #1f77b4"/>
     <use xlink:href="#mfa53c61018" x="199.114988" y="196.503386" style="fill: #1f77b4; stroke: #1f77b4"/>
     <use xlink:href="#mfa53c61018" x="218.20345" y="196.241167" style="fill: #1f77b4; stroke: #1f77b4"/>
     <use xlink:href="#mfa53c61018" x="237.291912" y="195.696559" style="fill: #1f77b4; stroke: #1f77b4"/>
     <use xlink:href="#mfa53c61018" x="256.380373" y="197.471579" style="fill: #1f77b4; stroke: #1f77b4"/>
     <use xlink:href="#mfa53c61018" x="275.468835" y="197.713627" style="fill: #1f77b4; stroke: #1f77b4"/>
     <use xlink:href="#mfa53c61018" x="294.557297" y="198.399431" style="fill: #1f77b4; stroke: #1f77b4"/>
     <use xlink:href="#mfa53c61018" x="313.645758" y="200.013086" style="fill: #1f77b4; stroke: #1f77b4"/>
     <use xlink:href="#mfa53c61018" x="332.73422" y="207.335045" style="fill: #1f77b4; stroke: #1f77b4"/>
     <use xlink:href="#mfa53c61018" x="351.822682" y="210.562355" style="fill: #1f77b4; stroke: #1f77b4"/>
     <use xlink:href="#mfa53c61018" x="370.911144" y="232.689597" style="fill: #1f77b4; stroke: #1f77b4"/>
     <use xlink:href="#mfa53c61018" x="389.999605" y="264.256721" style="fill: #1f77b4; stroke: #1f77b4"/>
    </g>
   </g>
   <g id="line2d_4">
    <defs>
     <path id="m7959ccf782" d="M -3 3 
L 3 -3 
M -3 -3 
L 3 3 
" style="stroke: #d62728"/>
    </defs>
    <g clip-path="url(#p929a97144d)">
     <use xlink:href="#m7959ccf782" x="122.761141" y="354.76259" style="fill: #d62728; stroke: #d62728"/>
     <use xlink:href="#m7959ccf782" x="141.849603" y="357.87291" style="fill: #d62728; stroke: #d62728"/>
     <use xlink:href="#m7959ccf782" x="160.938065" y="355.04498" style="fill: #d62728; stroke: #d62728"/>
     <use xlink:href="#m7959ccf782" x="180.026526" y="349.114798" style="fill: #d62728; stroke: #d62728"/>
     <use xlink:href="#m7959ccf782" x="199.114988" y="349.437529" style="fill: #d62728; stroke: #d62728"/>
     <use xlink:href="#m7959ccf782" x="218.20345" y="350.607429" style="fill: #d62728; stroke: #d62728"/>
     <use xlink:href="#m7959ccf782" x="237.291912" y="357.987883" style="fill: #d62728; stroke: #d62728"/>
     <use xlink:href="#m7959ccf782" x="256.380373" y="357.987883" style="fill: #d62728; stroke: #d62728"/>
     <use xlink:href="#m7959ccf782" x="275.468835" y="355.105492" style="fill: #d62728; stroke: #d62728"/>
     <use xlink:href="#m7959ccf782" x="294.557297" y="357.987883" style="fill: #d62728; stroke: #d62728"/>
     <use xlink:href="#m7959ccf782" x="313.645758" y="357.987883" style="fill: #d62728; stroke: #d62728"/>
     <use xlink:href="#m7959ccf782" x="332.73422" y="355.194243" style="fill: #d62728; stroke: #d62728"/>
     <use xlink:href="#m7959ccf782" x="351.822682" y="351.313403" style="fill: #d62728; stroke: #d62728"/>
     <use xlink:href="#m7959ccf782" x="370.911144" y="340.037989" style="fill: #d62728; stroke: #d62728"/>
     <use xlink:href="#m7959ccf782" x="389.999605" y="305.929359" style="fill: #d62728; stroke: #d62728"/>
    </g>
   </g>
   <g id="patch_3">
    <path d="M 65.509683 369.725865 
L 65.509683 111.635611 
" style="fill: none; stroke: #000000; stroke-width: 1.2; stroke-linejoin: miter; stroke-linecap: square"/>
   </g>
   <g id="patch_4">
    <path d="M 443.154841 369.725865 
L 443.154841 111.635611 
" style="fill: none; stroke: #000000; stroke-width: 1.2; stroke-linejoin: miter; stroke-linecap: square"/>
   </g>
   <g id="patch_5">
    <path d="M 65.509683 369.725865 
L 443.154841 369.725865 
" style="fill: none; stroke: #000000; stroke-width: 1.2; stroke-linejoin: miter; stroke-linecap: square"/>
   </g>
   <g id="patch_6">
    <path d="M 65.509683 111.635611 
L 443.154841 111.635611 
" style="fill: none; stroke: #000000; stroke-width: 1.2; stroke-linejoin: miter; stroke-linecap: square"/>
   </g>
   <g id="text_14">
    <!-- p-polarization -->
    <g transform="translate(187.877853 105.635611) scale(0.24 -0.24)">
     <defs>
      <path id="CMR17-70" d="M 1408 -1063 
C 998 -1063 973 -1037 973 -789 
L 973 402 
C 1158 134 1427 -38 1766 -38 
C 2406 -38 3053 523 3053 1388 
C 3053 2191 2496 2802 1837 2802 
C 1453 2802 1139 2592 960 2338 
L 960 2802 
L 198 2732 
L 198 2567 
C 576 2567 634 2528 634 2223 
L 634 -789 
C 634 -1031 608 -1063 198 -1063 
L 198 -1228 
C 352 -1216 634 -1216 800 -1216 
C 966 -1216 1254 -1216 1408 -1228 
L 1408 -1063 
z
M 973 2012 
C 973 2102 973 2235 1222 2471 
C 1254 2497 1472 2688 1792 2688 
C 2259 2688 2643 2108 2643 1382 
C 2643 656 2234 64 1728 64 
C 1498 64 1248 172 1056 472 
C 973 612 973 650 973 752 
L 973 2012 
z
" transform="scale(0.015625)"/>
      <path id="CMR17-2d" d="M 1632 1216 
L 1632 1496 
L 26 1496 
L 26 1216 
L 1632 1216 
z
" transform="scale(0.015625)"/>
      <path id="CMR17-6f" d="M 2758 1356 
C 2758 2176 2163 2816 1466 2816 
C 768 2816 173 2176 173 1356 
C 173 551 768 -64 1466 -64 
C 2163 -64 2758 551 2758 1356 
z
M 1466 51 
C 1165 51 909 230 762 480 
C 602 767 582 1126 582 1408 
C 582 1677 595 2010 762 2298 
C 890 2509 1139 2714 1466 2714 
C 1754 2714 1997 2554 2150 2330 
C 2349 2029 2349 1607 2349 1408 
C 2349 1158 2336 775 2163 467 
C 1984 173 1709 51 1466 51 
z
" transform="scale(0.015625)"/>
      <path id="CMR17-7a" d="M 2310 2605 
C 2362 2670 2362 2682 2362 2695 
C 2362 2752 2336 2752 2221 2752 
L 275 2752 
L 211 1760 
L 326 1760 
C 371 2381 442 2650 1178 2650 
L 1958 2650 
L 128 96 
C 128 0 134 0 269 0 
L 2291 0 
L 2381 1152 
L 2266 1152 
C 2214 442 2131 115 1350 115 
L 531 115 
L 2310 2605 
z
" transform="scale(0.015625)"/>
     </defs>
     <use xlink:href="#CMR17-70" transform="scale(0.996264)"/>
     <use xlink:href="#CMR17-2d" transform="translate(50.89537 0) scale(0.996264)"/>
     <use xlink:href="#CMR17-70" transform="translate(80.971336 0) scale(0.996264)"/>
     <use xlink:href="#CMR17-6f" transform="translate(134.469145 0) scale(0.996264)"/>
     <use xlink:href="#CMR17-6c" transform="translate(180.159622 0) scale(0.996264)"/>
     <use xlink:href="#CMR17-61" transform="translate(205.03068 0) scale(0.996264)"/>
     <use xlink:href="#CMR17-72" transform="translate(250.721157 0) scale(0.996264)"/>
     <use xlink:href="#CMR17-69" transform="translate(286.001925 0) scale(0.996264)"/>
     <use xlink:href="#CMR17-7a" transform="translate(310.872984 0) scale(0.996264)"/>
     <use xlink:href="#CMR17-61" transform="translate(351.358644 0) scale(0.996264)"/>
     <use xlink:href="#CMR17-74" transform="translate(397.049121 0) scale(0.996264)"/>
     <use xlink:href="#CMR17-69" transform="translate(432.329889 0) scale(0.996264)"/>
     <use xlink:href="#CMR17-6f" transform="translate(457.200947 0) scale(0.996264)"/>
     <use xlink:href="#CMR17-6e" transform="translate(502.891425 0) scale(0.996264)"/>
    </g>
   </g>
  </g>
  <g id="axes_2">
   <g id="patch_7">
    <path d="M 464.754841 369.725865 
L 842.4 369.725865 
L 842.4 111.635611 
L 464.754841 111.635611 
z
" style="fill: #ffffff"/>
   </g>
   <g id="matplotlib.axis_3">
    <g id="xtick_6">
     <g id="text_15">
      <!-- $\mathdefault{0}$ -->
      <g transform="translate(480.171258 383.60359) scale(0.15 -0.15)">
       <use xlink:href="#CMR17-30" transform="scale(0.996264)"/>
      </g>
     </g>
    </g>
    <g id="xtick_7">
     <g id="text_16">
      <!-- $\mathdefault{20}$ -->
      <g transform="translate(552.866986 383.60359) scale(0.15 -0.15)">
       <use xlink:href="#CMR17-32" transform="scale(0.996264)"/>
       <use xlink:href="#CMR17-30" transform="translate(45.690477 0) scale(0.996264)"/>
      </g>
     </g>
    </g>
    <g id="xtick_8">
     <g id="text_17">
      <!-- $\mathdefault{40}$ -->
      <g transform="translate(629.220832 383.60359) scale(0.15 -0.15)">
       <use xlink:href="#CMR17-34" transform="scale(0.996264)"/>
       <use xlink:href="#CMR17-30" transform="translate(45.690477 0) scale(0.996264)"/>
      </g>
     </g>
    </g>
    <g id="xtick_9">
     <g id="text_18">
      <!-- $\mathdefault{60}$ -->
      <g transform="translate(705.574679 383.60359) scale(0.15 -0.15)">
       <use xlink:href="#CMR17-36" transform="scale(0.996264)"/>
       <use xlink:href="#CMR17-30" transform="translate(45.690477 0) scale(0.996264)"/>
      </g>
     </g>
    </g>
    <g id="xtick_10">
     <g id="text_19">
      <!-- $\mathdefault{80}$ -->
      <g transform="translate(781.928526 383.60359) scale(0.15 -0.15)">
       <use xlink:href="#CMR17-38" transform="scale(0.996264)"/>
       <use xlink:href="#CMR17-30" transform="translate(45.690477 0) scale(0.996264)"/>
      </g>
     </g>
    </g>
    <g id="text_20">
     <!-- $\theta_i$ [Degrees] -->
     <g transform="translate(607.608789 405.435356) scale(0.2 -0.2)">
      <use xlink:href="#CMMI12-12" transform="scale(0.996264)"/>
      <use xlink:href="#CMMI12-69" transform="translate(45.45979 -14.943915) scale(0.697382)"/>
      <use xlink:href="#CMR17-5b" transform="translate(99.328796 0) scale(0.996264)"/>
      <use xlink:href="#CMR17-44" transform="translate(124.199854 0) scale(0.996264)"/>
      <use xlink:href="#CMR17-65" transform="translate(194.59341 0) scale(0.996264)"/>
      <use xlink:href="#CMR17-67" transform="translate(235.079071 0) scale(0.996264)"/>
      <use xlink:href="#CMR17-72" transform="translate(280.769548 0) scale(0.996264)"/>
      <use xlink:href="#CMR17-65" transform="translate(316.050315 0) scale(0.996264)"/>
      <use xlink:href="#CMR17-65" transform="translate(356.535976 0) scale(0.996264)"/>
      <use xlink:href="#CMR17-73" transform="translate(397.021636 0) scale(0.996264)"/>
      <use xlink:href="#CMR17-5d" transform="translate(432.822974 0) scale(0.996264)"/>
     </g>
    </g>
   </g>
   <g id="matplotlib.axis_4">
    <g id="ytick_7"/>
    <g id="ytick_8"/>
    <g id="ytick_9"/>
    <g id="ytick_10"/>
    <g id="ytick_11"/>
    <g id="ytick_12"/>
   </g>
   <g id="LineCollection_5">
    <path d="M 481.92053 212.886019 
L 485.738223 212.886019 
" clip-path="url(#pff9874f92e)" style="fill: none; stroke: #1f77b4; stroke-width: 1.5"/>
    <path d="M 500.770386 213.075283 
L 505.06529 213.075283 
" clip-path="url(#pff9874f92e)" style="fill: none; stroke: #1f77b4; stroke-width: 1.5"/>
    <path d="M 519.620242 216.418934 
L 524.392358 216.418934 
" clip-path="url(#pff9874f92e)" style="fill: none; stroke: #1f77b4; stroke-width: 1.5"/>
    <path d="M 538.470098 213.012195 
L 543.719425 213.012195 
" clip-path="url(#pff9874f92e)" style="fill: none; stroke: #1f77b4; stroke-width: 1.5"/>
    <path d="M 557.319954 210.551772 
L 563.046493 210.551772 
" clip-path="url(#pff9874f92e)" style="fill: none; stroke: #1f77b4; stroke-width: 1.5"/>
    <path d="M 576.16981 211.624264 
L 582.37356 211.624264 
" clip-path="url(#pff9874f92e)" style="fill: none; stroke: #1f77b4; stroke-width: 1.5"/>
    <path d="M 595.019666 215.851144 
L 601.700628 215.851144 
" clip-path="url(#pff9874f92e)" style="fill: none; stroke: #1f77b4; stroke-width: 1.5"/>
    <path d="M 613.869522 211.119562 
L 621.027695 211.119562 
" clip-path="url(#pff9874f92e)" style="fill: none; stroke: #1f77b4; stroke-width: 1.5"/>
    <path d="M 632.719378 221.150517 
L 640.354763 221.150517 
" clip-path="url(#pff9874f92e)" style="fill: none; stroke: #1f77b4; stroke-width: 1.5"/>
    <path d="M 651.569234 218.248479 
L 659.68183 218.248479 
" clip-path="url(#pff9874f92e)" style="fill: none; stroke: #1f77b4; stroke-width: 1.5"/>
    <path d="M 670.41909 223.169325 
L 679.008898 223.169325 
" clip-path="url(#pff9874f92e)" style="fill: none; stroke: #1f77b4; stroke-width: 1.5"/>
    <path d="M 689.268946 229.793541 
L 698.335965 229.793541 
" clip-path="url(#pff9874f92e)" style="fill: none; stroke: #1f77b4; stroke-width: 1.5"/>
    <path d="M 708.118802 233.20028 
L 717.663033 233.20028 
" clip-path="url(#pff9874f92e)" style="fill: none; stroke: #1f77b4; stroke-width: 1.5"/>
    <path d="M 726.968658 241.149339 
L 736.9901 241.149339 
" clip-path="url(#pff9874f92e)" style="fill: none; stroke: #1f77b4; stroke-width: 1.5"/>
    <path d="M 745.818514 257.678334 
L 756.317168 257.678334 
" clip-path="url(#pff9874f92e)" style="fill: none; stroke: #1f77b4; stroke-width: 1.5"/>
    <path d="M 764.66837 280.200666 
L 775.644235 280.200666 
" clip-path="url(#pff9874f92e)" style="fill: none; stroke: #1f77b4; stroke-width: 1.5"/>
    <path d="M 783.518226 305.196039 
L 794.971303 305.196039 
" clip-path="url(#pff9874f92e)" style="fill: none; stroke: #1f77b4; stroke-width: 1.5"/>
   </g>
   <g id="LineCollection_6">
    <path clip-path="url(#pff9874f92e)" style="fill: none; stroke: #1f77b4; stroke-width: 1.5"/>
    <path clip-path="url(#pff9874f92e)" style="fill: none; stroke: #1f77b4; stroke-width: 1.5"/>
    <path d="M 522.0063 216.42109 
L 522.0063 216.416778 
" clip-path="url(#pff9874f92e)" style="fill: none; stroke: #1f77b4; stroke-width: 1.5"/>
    <path d="M 541.094762 213.01865 
L 541.094762 213.005739 
" clip-path="url(#pff9874f92e)" style="fill: none; stroke: #1f77b4; stroke-width: 1.5"/>
    <path d="M 560.183223 210.552989 
L 560.183223 210.550554 
" clip-path="url(#pff9874f92e)" style="fill: none; stroke: #1f77b4; stroke-width: 1.5"/>
    <path d="M 579.271685 211.624264 
L 579.271685 211.624264 
" clip-path="url(#pff9874f92e)" style="fill: none; stroke: #1f77b4; stroke-width: 1.5"/>
    <path d="M 598.360147 215.856879 
L 598.360147 215.84541 
" clip-path="url(#pff9874f92e)" style="fill: none; stroke: #1f77b4; stroke-width: 1.5"/>
    <path d="M 617.448609 211.119562 
L 617.448609 211.119562 
" clip-path="url(#pff9874f92e)" style="fill: none; stroke: #1f77b4; stroke-width: 1.5"/>
    <path d="M 636.53707 221.157383 
L 636.53707 221.143651 
" clip-path="url(#pff9874f92e)" style="fill: none; stroke: #1f77b4; stroke-width: 1.5"/>
    <path d="M 655.625532 218.248479 
L 655.625532 218.248479 
" clip-path="url(#pff9874f92e)" style="fill: none; stroke: #1f77b4; stroke-width: 1.5"/>
    <path d="M 674.713994 223.169325 
L 674.713994 223.169325 
" clip-path="url(#pff9874f92e)" style="fill: none; stroke: #1f77b4; stroke-width: 1.5"/>
    <path d="M 693.802455 229.793541 
L 693.802455 229.793541 
" clip-path="url(#pff9874f92e)" style="fill: none; stroke: #1f77b4; stroke-width: 1.5"/>
    <path d="M 712.890917 233.20028 
L 712.890917 233.20028 
" clip-path="url(#pff9874f92e)" style="fill: none; stroke: #1f77b4; stroke-width: 1.5"/>
    <path d="M 731.979379 241.162532 
L 731.979379 241.136146 
" clip-path="url(#pff9874f92e)" style="fill: none; stroke: #1f77b4; stroke-width: 1.5"/>
    <path d="M 751.067841 257.687681 
L 751.067841 257.668986 
" clip-path="url(#pff9874f92e)" style="fill: none; stroke: #1f77b4; stroke-width: 1.5"/>
    <path d="M 770.156302 280.215846 
L 770.156302 280.185487 
" clip-path="url(#pff9874f92e)" style="fill: none; stroke: #1f77b4; stroke-width: 1.5"/>
    <path d="M 789.244764 305.196039 
L 789.244764 305.196039 
" clip-path="url(#pff9874f92e)" style="fill: none; stroke: #1f77b4; stroke-width: 1.5"/>
   </g>
   <g id="LineCollection_7">
    <path clip-path="url(#pff9874f92e)" style="fill: none; stroke: #d62728; stroke-width: 1.5"/>
    <path clip-path="url(#pff9874f92e)" style="fill: none; stroke: #d62728; stroke-width: 1.5"/>
    <path d="M 519.620242 352.58757 
L 524.392358 352.58757 
" clip-path="url(#pff9874f92e)" style="fill: none; stroke: #d62728; stroke-width: 1.5"/>
    <path d="M 538.470098 354.688392 
L 543.719425 354.688392 
" clip-path="url(#pff9874f92e)" style="fill: none; stroke: #d62728; stroke-width: 1.5"/>
    <path d="M 557.319954 352.581261 
L 563.046493 352.581261 
" clip-path="url(#pff9874f92e)" style="fill: none; stroke: #d62728; stroke-width: 1.5"/>
    <path d="M 576.16981 350.152382 
L 582.37356 350.152382 
" clip-path="url(#pff9874f92e)" style="fill: none; stroke: #d62728; stroke-width: 1.5"/>
    <path d="M 595.019666 348.638276 
L 601.700628 348.638276 
" clip-path="url(#pff9874f92e)" style="fill: none; stroke: #d62728; stroke-width: 1.5"/>
    <path d="M 613.869522 349.994663 
L 621.027695 349.994663 
" clip-path="url(#pff9874f92e)" style="fill: none; stroke: #d62728; stroke-width: 1.5"/>
    <path d="M 632.719378 345.988589 
L 640.354763 345.988589 
" clip-path="url(#pff9874f92e)" style="fill: none; stroke: #d62728; stroke-width: 1.5"/>
    <path d="M 651.569234 344.90348 
L 659.68183 344.90348 
" clip-path="url(#pff9874f92e)" style="fill: none; stroke: #d62728; stroke-width: 1.5"/>
    <path d="M 670.41909 340.960494 
L 679.008898 340.960494 
" clip-path="url(#pff9874f92e)" style="fill: none; stroke: #d62728; stroke-width: 1.5"/>
    <path d="M 689.268946 337.244625 
L 698.335965 337.244625 
" clip-path="url(#pff9874f92e)" style="fill: none; stroke: #d62728; stroke-width: 1.5"/>
    <path d="M 708.118802 331.516256 
L 717.663033 331.516256 
" clip-path="url(#pff9874f92e)" style="fill: none; stroke: #d62728; stroke-width: 1.5"/>
    <path d="M 726.968658 321.882754 
L 736.9901 321.882754 
" clip-path="url(#pff9874f92e)" style="fill: none; stroke: #d62728; stroke-width: 1.5"/>
    <path d="M 745.818514 308.381972 
L 756.317168 308.381972 
" clip-path="url(#pff9874f92e)" style="fill: none; stroke: #d62728; stroke-width: 1.5"/>
    <path d="M 764.66837 291.871903 
L 775.644235 291.871903 
" clip-path="url(#pff9874f92e)" style="fill: none; stroke: #d62728; stroke-width: 1.5"/>
    <path d="M 783.518226 265.879743 
L 794.971303 265.879743 
" clip-path="url(#pff9874f92e)" style="fill: none; stroke: #d62728; stroke-width: 1.5"/>
   </g>
   <g id="LineCollection_8">
    <path clip-path="url(#pff9874f92e)" style="fill: none; stroke: #d62728; stroke-width: 1.5"/>
    <path clip-path="url(#pff9874f92e)" style="fill: none; stroke: #d62728; stroke-width: 1.5"/>
    <path d="M 522.0063 352.589726 
L 522.0063 352.585414 
" clip-path="url(#pff9874f92e)" style="fill: none; stroke: #d62728; stroke-width: 1.5"/>
    <path d="M 541.094762 354.694848 
L 541.094762 354.681937 
" clip-path="url(#pff9874f92e)" style="fill: none; stroke: #d62728; stroke-width: 1.5"/>
    <path d="M 560.183223 352.582479 
L 560.183223 352.580044 
" clip-path="url(#pff9874f92e)" style="fill: none; stroke: #d62728; stroke-width: 1.5"/>
    <path d="M 579.271685 350.152382 
L 579.271685 350.152382 
" clip-path="url(#pff9874f92e)" style="fill: none; stroke: #d62728; stroke-width: 1.5"/>
    <path d="M 598.360147 348.64401 
L 598.360147 348.632541 
" clip-path="url(#pff9874f92e)" style="fill: none; stroke: #d62728; stroke-width: 1.5"/>
    <path d="M 617.448609 349.994663 
L 617.448609 349.994663 
" clip-path="url(#pff9874f92e)" style="fill: none; stroke: #d62728; stroke-width: 1.5"/>
    <path d="M 636.53707 345.995455 
L 636.53707 345.981723 
" clip-path="url(#pff9874f92e)" style="fill: none; stroke: #d62728; stroke-width: 1.5"/>
    <path d="M 655.625532 344.90348 
L 655.625532 344.90348 
" clip-path="url(#pff9874f92e)" style="fill: none; stroke: #d62728; stroke-width: 1.5"/>
    <path d="M 674.713994 340.960494 
L 674.713994 340.960494 
" clip-path="url(#pff9874f92e)" style="fill: none; stroke: #d62728; stroke-width: 1.5"/>
    <path d="M 693.802455 337.244625 
L 693.802455 337.244625 
" clip-path="url(#pff9874f92e)" style="fill: none; stroke: #d62728; stroke-width: 1.5"/>
    <path d="M 712.890917 331.516256 
L 712.890917 331.516256 
" clip-path="url(#pff9874f92e)" style="fill: none; stroke: #d62728; stroke-width: 1.5"/>
    <path d="M 731.979379 321.895947 
L 731.979379 321.869561 
" clip-path="url(#pff9874f92e)" style="fill: none; stroke: #d62728; stroke-width: 1.5"/>
    <path d="M 751.067841 308.391319 
L 751.067841 308.372624 
" clip-path="url(#pff9874f92e)" style="fill: none; stroke: #d62728; stroke-width: 1.5"/>
    <path d="M 770.156302 291.887083 
L 770.156302 291.856724 
" clip-path="url(#pff9874f92e)" style="fill: none; stroke: #d62728; stroke-width: 1.5"/>
    <path d="M 789.244764 265.879743 
L 789.244764 265.879743 
" clip-path="url(#pff9874f92e)" style="fill: none; stroke: #d62728; stroke-width: 1.5"/>
   </g>
   <g id="line2d_5">
    <path d="M 486.016753 130.628019 
L 489.443193 130.633709 
L 492.869633 130.64441 
L 496.296073 130.660145 
L 499.722513 130.680948 
L 503.148953 130.706866 
L 506.575393 130.737954 
L 510.001833 130.774282 
L 513.428273 130.81593 
L 516.854713 130.86299 
L 520.281153 130.915567 
L 523.707593 130.973779 
L 527.134033 131.037756 
L 530.560473 131.107644 
L 533.986913 131.183601 
L 537.413353 131.265801 
L 540.839793 131.354436 
L 544.266233 131.44971 
L 547.692673 131.551847 
L 551.119113 131.661088 
L 554.545553 131.777695 
L 557.971993 131.901948 
L 561.398433 132.034149 
L 564.824873 132.174623 
L 568.251313 132.323717 
L 571.677753 132.481806 
L 575.104193 132.64929 
L 578.530633 132.826597 
L 581.957072 133.014189 
L 585.383512 133.212555 
L 588.809952 133.422223 
L 592.236392 133.643755 
L 595.662832 133.877753 
L 599.089272 134.124863 
L 602.515712 134.385772 
L 605.942152 134.661217 
L 609.368592 134.951987 
L 612.795032 135.258925 
L 616.221472 135.582932 
L 619.647912 135.924973 
L 623.074352 136.28608 
L 626.500792 136.667358 
L 629.927232 137.069989 
L 633.353672 137.495238 
L 636.780112 137.944461 
L 640.206552 138.419108 
L 643.632992 138.920732 
L 647.059432 139.450997 
L 650.485872 140.011688 
L 653.912312 140.604714 
L 657.338752 141.232123 
L 660.765192 141.896109 
L 664.191632 142.599027 
L 667.618072 143.343398 
L 671.044512 144.131928 
L 674.470952 144.967519 
L 677.897392 145.853283 
L 681.323832 146.792558 
L 684.750272 147.788925 
L 688.176712 148.846225 
L 691.603152 149.968581 
L 695.029592 151.160414 
L 698.456032 152.426468 
L 701.882472 153.771831 
L 705.308912 155.201961 
L 708.735352 156.722714 
L 712.161792 158.340367 
L 715.588232 160.061652 
L 719.014672 161.893786 
L 722.441112 163.844504 
L 725.867552 165.922091 
L 729.293992 168.135426 
L 732.720432 170.494012 
L 736.146872 173.008024 
L 739.573311 175.688345 
L 742.999751 178.546615 
L 746.426191 181.595274 
L 749.852631 184.847609 
L 753.279071 188.317807 
L 756.705511 192.021002 
L 760.131951 195.973328 
L 763.558391 200.19197 
L 766.984831 204.695222 
L 770.411271 209.502537 
L 773.837711 214.634583 
L 777.264151 220.113298 
L 780.690591 225.961944 
L 784.117031 232.205157 
L 787.543471 238.869003 
L 790.969911 245.981023 
L 794.396351 253.570283 
L 797.822791 261.667415 
L 801.249231 270.304662 
L 804.675671 279.515905 
L 808.102111 289.336701 
L 811.528551 299.804302 
L 814.954991 310.957676 
L 818.381431 322.837513 
L 821.807871 335.486233 
L 825.234311 348.947971 
" clip-path="url(#pff9874f92e)" style="fill: none; stroke: #1f77b4; stroke-width: 1.5; stroke-linecap: square"/>
   </g>
   <g id="line2d_6">
    <path d="M 486.016753 350.724342 
L 489.443193 350.718652 
L 492.869633 350.707951 
L 496.296073 350.692216 
L 499.722513 350.671413 
L 503.148953 350.645495 
L 506.575393 350.614407 
L 510.001833 350.578079 
L 513.428273 350.536431 
L 516.854713 350.489371 
L 520.281153 350.436794 
L 523.707593 350.378582 
L 527.134033 350.314605 
L 530.560473 350.244717 
L 533.986913 350.16876 
L 537.413353 350.08656 
L 540.839793 349.997925 
L 544.266233 349.902651 
L 547.692673 349.800514 
L 551.119113 349.691273 
L 554.545553 349.574666 
L 557.971993 349.450413 
L 561.398433 349.318212 
L 564.824873 349.177738 
L 568.251313 349.028644 
L 571.677753 348.870555 
L 575.104193 348.703071 
L 578.530633 348.525764 
L 581.957072 348.338172 
L 585.383512 348.139806 
L 588.809952 347.930138 
L 592.236392 347.708606 
L 595.662832 347.474608 
L 599.089272 347.227498 
L 602.515712 346.966589 
L 605.942152 346.691144 
L 609.368592 346.400374 
L 612.795032 346.093436 
L 616.221472 345.769429 
L 619.647912 345.427388 
L 623.074352 345.066281 
L 626.500792 344.685003 
L 629.927232 344.282372 
L 633.353672 343.857123 
L 636.780112 343.4079 
L 640.206552 342.933253 
L 643.632992 342.431629 
L 647.059432 341.901364 
L 650.485872 341.340673 
L 653.912312 340.747647 
L 657.338752 340.120238 
L 660.765192 339.456252 
L 664.191632 338.753334 
L 667.618072 338.008963 
L 671.044512 337.220432 
L 674.470952 336.384842 
L 677.897392 335.499078 
L 681.323832 334.559803 
L 684.750272 333.563436 
L 688.176712 332.506136 
L 691.603152 331.38378 
L 695.029592 330.191947 
L 698.456032 328.925893 
L 701.882472 327.58053 
L 705.308912 326.1504 
L 708.735352 324.629647 
L 712.161792 323.011994 
L 715.588232 321.290709 
L 719.014672 319.458575 
L 722.441112 317.507857 
L 725.867552 315.43027 
L 729.293992 313.216935 
L 732.720432 310.858348 
L 736.146872 308.344337 
L 739.573311 305.664016 
L 742.999751 302.805746 
L 746.426191 299.757087 
L 749.852631 296.504752 
L 753.279071 293.034554 
L 756.705511 289.331359 
L 760.131951 285.379033 
L 763.558391 281.160391 
L 766.984831 276.657139 
L 770.411271 271.849824 
L 773.837711 266.717778 
L 777.264151 261.239063 
L 780.690591 255.390417 
L 784.117031 249.147204 
L 787.543471 242.483358 
L 790.969911 235.371338 
L 794.396351 227.782078 
L 797.822791 219.684945 
L 801.249231 211.047699 
L 804.675671 201.836456 
L 808.102111 192.01566 
L 811.528551 181.548059 
L 814.954991 170.394685 
L 818.381431 158.514848 
L 821.807871 145.866128 
L 825.234311 132.40439 
" clip-path="url(#pff9874f92e)" style="fill: none; stroke: #d62728; stroke-width: 1.5; stroke-linecap: square"/>
   </g>
   <g id="line2d_7">
    <g clip-path="url(#pff9874f92e)">
     <use xlink:href="#mfa53c61018" x="483.829376" y="212.886019" style="fill: #1f77b4; stroke: #1f77b4"/>
     <use xlink:href="#mfa53c61018" x="502.917838" y="213.075283" style="fill: #1f77b4; stroke: #1f77b4"/>
     <use xlink:href="#mfa53c61018" x="522.0063" y="216.418934" style="fill: #1f77b4; stroke: #1f77b4"/>
     <use xlink:href="#mfa53c61018" x="541.094762" y="213.012195" style="fill: #1f77b4; stroke: #1f77b4"/>
     <use xlink:href="#mfa53c61018" x="560.183223" y="210.551772" style="fill: #1f77b4; stroke: #1f77b4"/>
     <use xlink:href="#mfa53c61018" x="579.271685" y="211.624264" style="fill: #1f77b4; stroke: #1f77b4"/>
     <use xlink:href="#mfa53c61018" x="598.360147" y="215.851144" style="fill: #1f77b4; stroke: #1f77b4"/>
     <use xlink:href="#mfa53c61018" x="617.448609" y="211.119562" style="fill: #1f77b4; stroke: #1f77b4"/>
     <use xlink:href="#mfa53c61018" x="636.53707" y="221.150517" style="fill: #1f77b4; stroke: #1f77b4"/>
     <use xlink:href="#mfa53c61018" x="655.625532" y="218.248479" style="fill: #1f77b4; stroke: #1f77b4"/>
     <use xlink:href="#mfa53c61018" x="674.713994" y="223.169325" style="fill: #1f77b4; stroke: #1f77b4"/>
     <use xlink:href="#mfa53c61018" x="693.802455" y="229.793541" style="fill: #1f77b4; stroke: #1f77b4"/>
     <use xlink:href="#mfa53c61018" x="712.890917" y="233.20028" style="fill: #1f77b4; stroke: #1f77b4"/>
     <use xlink:href="#mfa53c61018" x="731.979379" y="241.149339" style="fill: #1f77b4; stroke: #1f77b4"/>
     <use xlink:href="#mfa53c61018" x="751.067841" y="257.678334" style="fill: #1f77b4; stroke: #1f77b4"/>
     <use xlink:href="#mfa53c61018" x="770.156302" y="280.200666" style="fill: #1f77b4; stroke: #1f77b4"/>
     <use xlink:href="#mfa53c61018" x="789.244764" y="305.196039" style="fill: #1f77b4; stroke: #1f77b4"/>
    </g>
   </g>
   <g id="line2d_8">
    <g clip-path="url(#pff9874f92e)">
     <use xlink:href="#m7959ccf782" x="522.0063" y="352.58757" style="fill: #d62728; stroke: #d62728"/>
     <use xlink:href="#m7959ccf782" x="541.094762" y="354.688392" style="fill: #d62728; stroke: #d62728"/>
     <use xlink:href="#m7959ccf782" x="560.183223" y="352.581261" style="fill: #d62728; stroke: #d62728"/>
     <use xlink:href="#m7959ccf782" x="579.271685" y="350.152382" style="fill: #d62728; stroke: #d62728"/>
     <use xlink:href="#m7959ccf782" x="598.360147" y="348.638276" style="fill: #d62728; stroke: #d62728"/>
     <use xlink:href="#m7959ccf782" x="617.448609" y="349.994663" style="fill: #d62728; stroke: #d62728"/>
     <use xlink:href="#m7959ccf782" x="636.53707" y="345.988589" style="fill: #d62728; stroke: #d62728"/>
     <use xlink:href="#m7959ccf782" x="655.625532" y="344.90348" style="fill: #d62728; stroke: #d62728"/>
     <use xlink:href="#m7959ccf782" x="674.713994" y="340.960494" style="fill: #d62728; stroke: #d62728"/>
     <use xlink:href="#m7959ccf782" x="693.802455" y="337.244625" style="fill: #d62728; stroke: #d62728"/>
     <use xlink:href="#m7959ccf782" x="712.890917" y="331.516256" style="fill: #d62728; stroke: #d62728"/>
     <use xlink:href="#m7959ccf782" x="731.979379" y="321.882754" style="fill: #d62728; stroke: #d62728"/>
     <use xlink:href="#m7959ccf782" x="751.067841" y="308.381972" style="fill: #d62728; stroke: #d62728"/>
     <use xlink:href="#m7959ccf782" x="770.156302" y="291.871903" style="fill: #d62728; stroke: #d62728"/>
     <use xlink:href="#m7959ccf782" x="789.244764" y="265.879743" style="fill: #d62728; stroke: #d62728"/>
    </g>
   </g>
   <g id="patch_8">
    <path d="M 464.754841 369.725865 
L 464.754841 111.635611 
" style="fill: none; stroke: #000000; stroke-width: 1.2; stroke-linejoin: miter; stroke-linecap: square"/>
   </g>
   <g id="patch_9">
    <path d="M 842.4 369.725865 
L 842.4 111.635611 
" style="fill: none; stroke: #000000; stroke-width: 1.2; stroke-linejoin: miter; stroke-linecap: square"/>
   </g>
   <g id="patch_10">
    <path d="M 464.754841 369.725865 
L 842.4 369.725865 
" style="fill: none; stroke: #000000; stroke-width: 1.2; stroke-linejoin: miter; stroke-linecap: square"/>
   </g>
   <g id="patch_11">
    <path d="M 464.754841 111.635611 
L 842.4 111.635611 
" style="fill: none; stroke: #000000; stroke-width: 1.2; stroke-linejoin: miter; stroke-linecap: square"/>
   </g>
   <g id="text_21">
    <!-- s-polarization -->
    <g transform="translate(588.934296 105.635611) scale(0.24 -0.24)">
     <use xlink:href="#CMR17-73" transform="scale(0.996264)"/>
     <use xlink:href="#CMR17-2d" transform="translate(35.801338 0) scale(0.996264)"/>
     <use xlink:href="#CMR17-70" transform="translate(65.877304 0) scale(0.996264)"/>
     <use xlink:href="#CMR17-6f" transform="translate(119.375112 0) scale(0.996264)"/>
     <use xlink:href="#CMR17-6c" transform="translate(165.06559 0) scale(0.996264)"/>
     <use xlink:href="#CMR17-61" transform="translate(189.936648 0) scale(0.996264)"/>
     <use xlink:href="#CMR17-72" transform="translate(235.627125 0) scale(0.996264)"/>
     <use xlink:href="#CMR17-69" transform="translate(270.907893 0) scale(0.996264)"/>
     <use xlink:href="#CMR17-7a" transform="translate(295.778951 0) scale(0.996264)"/>
     <use xlink:href="#CMR17-61" transform="translate(336.264612 0) scale(0.996264)"/>
     <use xlink:href="#CMR17-74" transform="translate(381.955089 0) scale(0.996264)"/>
     <use xlink:href="#CMR17-69" transform="translate(417.235857 0) scale(0.996264)"/>
     <use xlink:href="#CMR17-6f" transform="translate(442.106915 0) scale(0.996264)"/>
     <use xlink:href="#CMR17-6e" transform="translate(487.797392 0) scale(0.996264)"/>
    </g>
   </g>
  </g>
  <g id="text_22">
   <!-- Relative intensity for reflected and transmitted light,  -->
   <g transform="translate(127.353857 16.604405) scale(0.24 -0.24)">
    <defs>
     <path id="CMR17-66" d="M 979 2560 
L 1709 2560 
L 1709 2725 
L 966 2725 
L 966 3494 
C 966 4022 1235 4352 1510 4352 
C 1594 4352 1690 4327 1754 4282 
C 1702 4269 1568 4225 1568 4067 
C 1568 3901 1696 3850 1786 3850 
C 1875 3850 2003 3901 2003 4067 
C 2003 4308 1773 4454 1517 4454 
C 1152 4454 653 4156 653 3481 
L 653 2725 
L 141 2725 
L 141 2560 
L 653 2560 
L 653 427 
C 653 184 627 153 218 153 
L 218 -13 
C 371 0 666 0 832 0 
C 1018 0 1344 0 1517 -13 
L 1517 153 
C 1056 153 979 153 979 439 
L 979 2560 
z
" transform="scale(0.015625)"/>
     <path id="CMR17-d" d="M 2554 4409 
C 2483 4396 2426 4384 2342 4365 
C 2157 4460 1914 4460 1850 4460 
C 1306 4460 634 4154 634 3472 
L 634 2725 
L 122 2725 
L 122 2560 
L 634 2560 
L 634 427 
C 634 184 608 153 198 153 
L 198 -13 
C 352 0 634 0 794 0 
C 960 0 1242 0 1395 -13 
L 1395 153 
C 986 153 960 178 960 427 
L 960 2560 
L 2227 2560 
L 2227 427 
C 2227 184 2202 153 1792 153 
L 1792 -13 
C 1946 0 2227 0 2387 0 
C 2554 0 2835 0 2989 -13 
L 2989 153 
C 2579 153 2554 178 2554 427 
L 2554 4409 
z
M 947 2725 
L 947 3469 
C 947 4028 1370 4352 1837 4352 
C 1869 4352 2221 4352 2221 4282 
C 2221 4275 2214 4269 2182 4237 
C 2125 4199 2099 4135 2099 4071 
C 2099 3981 2144 3905 2227 3873 
L 2227 2725 
L 947 2725 
z
" transform="scale(0.015625)"/>
     <path id="CMR17-63" d="M 2234 2240 
C 2112 2240 1933 2240 1933 2017 
C 1933 1838 2080 1787 2163 1787 
C 2208 1787 2394 1807 2394 2024 
C 2394 2467 1958 2803 1466 2803 
C 787 2803 211 2178 211 1363 
C 211 516 813 -64 1466 -64 
C 2259 -64 2458 677 2458 748 
C 2458 774 2451 793 2406 793 
C 2362 793 2355 787 2330 703 
C 2163 180 1798 51 1523 51 
C 1114 51 621 427 621 1369 
C 621 2338 1094 2688 1472 2688 
C 1722 2688 2093 2573 2234 2240 
z
" transform="scale(0.015625)"/>
     <path id="CMR17-64" d="M 1869 4326 
L 1869 4160 
C 2246 4160 2304 4122 2304 3820 
L 2304 2345 
C 2278 2377 2016 2790 1498 2790 
C 845 2790 211 2208 211 1364 
C 211 525 806 -64 1434 -64 
C 1978 -64 2259 337 2291 380 
L 2291 -63 
L 3066 -63 
L 3066 128 
C 2688 128 2630 166 2630 473 
L 2630 4396 
L 1869 4326 
z
M 2291 755 
C 2291 563 2176 390 2029 262 
C 1811 70 1594 38 1472 38 
C 1286 38 621 134 621 1356 
C 621 2612 1363 2688 1530 2688 
C 1824 2688 2061 2522 2208 2291 
C 2291 2157 2291 2138 2291 2023 
L 2291 755 
z
" transform="scale(0.015625)"/>
     <path id="CMR17-6d" d="M 4326 1933 
C 4326 2252 4269 2790 3507 2790 
C 3072 2790 2771 2496 2656 2151 
L 2650 2151 
C 2573 2676 2195 2790 1837 2790 
C 1331 2790 1069 2400 973 2144 
L 966 2144 
L 966 2790 
L 211 2720 
L 211 2554 
C 589 2554 646 2515 646 2208 
L 646 428 
C 646 184 621 153 211 153 
L 211 -13 
C 365 0 646 0 813 0 
C 979 0 1267 0 1421 -13 
L 1421 153 
C 1011 153 986 178 986 428 
L 986 1658 
C 986 2247 1344 2688 1792 2688 
C 2266 2688 2317 2266 2317 1958 
L 2317 428 
C 2317 184 2291 153 1882 153 
L 1882 -13 
C 2035 0 2317 0 2483 0 
C 2650 0 2938 0 3091 -13 
L 3091 153 
C 2682 153 2656 178 2656 428 
L 2656 1658 
C 2656 2247 3014 2688 3462 2688 
C 3936 2688 3987 2266 3987 1958 
L 3987 428 
C 3987 184 3962 153 3552 153 
L 3552 -13 
C 3706 0 3987 0 4154 0 
C 4320 0 4608 0 4762 -13 
L 4762 153 
C 4352 153 4326 178 4326 428 
L 4326 1933 
z
" transform="scale(0.015625)"/>
     <path id="CMR17-68" d="M 2656 1933 
C 2656 2259 2592 2790 1837 2790 
C 1312 2790 1056 2368 979 2157 
L 973 2157 
L 973 4396 
L 211 4326 
L 211 4160 
C 589 4160 646 4122 646 3817 
L 646 426 
C 646 184 621 153 211 153 
L 211 -13 
C 365 0 646 0 813 0 
C 979 0 1267 0 1421 -13 
L 1421 153 
C 1011 153 986 178 986 428 
L 986 1658 
C 986 2247 1344 2688 1792 2688 
C 2266 2688 2317 2266 2317 1958 
L 2317 428 
C 2317 184 2291 153 1882 153 
L 1882 -13 
C 2035 0 2317 0 2483 0 
C 2650 0 2938 0 3091 -13 
L 3091 153 
C 2682 153 2656 178 2656 428 
L 2656 1933 
z
" transform="scale(0.015625)"/>
     <path id="CMR17-2c" d="M 1011 102 
C 1024 45 1024 25 1024 -77 
C 1024 -463 896 -817 627 -1139 
C 595 -1170 595 -1183 595 -1197 
C 595 -1222 621 -1248 646 -1248 
C 685 -1248 1126 -799 1126 -87 
C 1126 124 1101 522 800 522 
C 659 522 538 427 538 261 
C 538 96 659 0 800 0 
C 877 0 960 32 1011 102 
z
" transform="scale(0.015625)"/>
    </defs>
    <use xlink:href="#CMR17-52" transform="scale(0.996264)"/>
    <use xlink:href="#CMR17-65" transform="translate(67.791102 0) scale(0.996264)"/>
    <use xlink:href="#CMR17-6c" transform="translate(108.276762 0) scale(0.996264)"/>
    <use xlink:href="#CMR17-61" transform="translate(133.147821 0) scale(0.996264)"/>
    <use xlink:href="#CMR17-74" transform="translate(178.838298 0) scale(0.996264)"/>
    <use xlink:href="#CMR17-69" transform="translate(214.119066 0) scale(0.996264)"/>
    <use xlink:href="#CMR17-76" transform="translate(238.990124 0) scale(0.996264)"/>
    <use xlink:href="#CMR17-65" transform="translate(284.680586 0) scale(0.996264)"/>
    <use xlink:href="#CMR17-69" transform="translate(355.242213 0) scale(0.996264)"/>
    <use xlink:href="#CMR17-6e" transform="translate(380.113272 0) scale(0.996264)"/>
    <use xlink:href="#CMR17-74" transform="translate(428.406187 0) scale(0.996264)"/>
    <use xlink:href="#CMR17-65" transform="translate(463.686955 0) scale(0.996264)"/>
    <use xlink:href="#CMR17-6e" transform="translate(504.172616 0) scale(0.996264)"/>
    <use xlink:href="#CMR17-73" transform="translate(555.067985 0) scale(0.996264)"/>
    <use xlink:href="#CMR17-69" transform="translate(590.869323 0) scale(0.996264)"/>
    <use xlink:href="#CMR17-74" transform="translate(615.740382 0) scale(0.996264)"/>
    <use xlink:href="#CMR17-79" transform="translate(648.418695 0) scale(0.996264)"/>
    <use xlink:href="#CMR17-66" transform="translate(726.787578 0) scale(0.996264)"/>
    <use xlink:href="#CMR17-6f" transform="translate(754.26109 0) scale(0.996264)"/>
    <use xlink:href="#CMR17-72" transform="translate(799.951567 0) scale(0.996264)"/>
    <use xlink:href="#CMR17-72" transform="translate(865.308301 0) scale(0.996264)"/>
    <use xlink:href="#CMR17-65" transform="translate(900.589069 0) scale(0.996264)"/>
    <use xlink:href="#CMR17-d" transform="translate(941.07473 0) scale(0.996264)"/>
    <use xlink:href="#CMR17-65" transform="translate(990.816953 0) scale(0.996264)"/>
    <use xlink:href="#CMR17-63" transform="translate(1031.302613 0) scale(0.996264)"/>
    <use xlink:href="#CMR17-74" transform="translate(1071.788274 0) scale(0.996264)"/>
    <use xlink:href="#CMR17-65" transform="translate(1107.069042 0) scale(0.996264)"/>
    <use xlink:href="#CMR17-64" transform="translate(1147.554702 0) scale(0.996264)"/>
    <use xlink:href="#CMR17-61" transform="translate(1228.526038 0) scale(0.996264)"/>
    <use xlink:href="#CMR17-6e" transform="translate(1274.216515 0) scale(0.996264)"/>
    <use xlink:href="#CMR17-64" transform="translate(1325.111885 0) scale(0.996264)"/>
    <use xlink:href="#CMR17-74" transform="translate(1406.083221 0) scale(0.996264)"/>
    <use xlink:href="#CMR17-72" transform="translate(1441.363989 0) scale(0.996264)"/>
    <use xlink:href="#CMR17-61" transform="translate(1476.644757 0) scale(0.996264)"/>
    <use xlink:href="#CMR17-6e" transform="translate(1522.335234 0) scale(0.996264)"/>
    <use xlink:href="#CMR17-73" transform="translate(1573.230604 0) scale(0.996264)"/>
    <use xlink:href="#CMR17-6d" transform="translate(1609.031941 0) scale(0.996264)"/>
    <use xlink:href="#CMR17-69" transform="translate(1685.951531 0) scale(0.996264)"/>
    <use xlink:href="#CMR17-74" transform="translate(1710.82259 0) scale(0.996264)"/>
    <use xlink:href="#CMR17-74" transform="translate(1746.103358 0) scale(0.996264)"/>
    <use xlink:href="#CMR17-65" transform="translate(1781.384125 0) scale(0.996264)"/>
    <use xlink:href="#CMR17-64" transform="translate(1821.869786 0) scale(0.996264)"/>
    <use xlink:href="#CMR17-6c" transform="translate(1902.841122 0) scale(0.996264)"/>
    <use xlink:href="#CMR17-69" transform="translate(1927.71218 0) scale(0.996264)"/>
    <use xlink:href="#CMR17-67" transform="translate(1952.583239 0) scale(0.996264)"/>
    <use xlink:href="#CMR17-68" transform="translate(1998.273716 0) scale(0.996264)"/>
    <use xlink:href="#CMR17-74" transform="translate(2046.566632 0) scale(0.996264)"/>
    <use xlink:href="#CMR17-2c" transform="translate(2081.8474 0) scale(0.996264)"/>
   </g>
   <!--  in the case of light traveling from air to glass -->
   <g transform="translate(164.888259 41.180449) scale(0.24 -0.24)">
    <use xlink:href="#CMR17-69" transform="scale(0.996264)"/>
    <use xlink:href="#CMR17-6e" transform="translate(24.871058 0) scale(0.996264)"/>
    <use xlink:href="#CMR17-74" transform="translate(105.842395 0) scale(0.996264)"/>
    <use xlink:href="#CMR17-68" transform="translate(141.123162 0) scale(0.996264)"/>
    <use xlink:href="#CMR17-65" transform="translate(192.018532 0) scale(0.996264)"/>
    <use xlink:href="#CMR17-63" transform="translate(262.580159 0) scale(0.996264)"/>
    <use xlink:href="#CMR17-61" transform="translate(303.065819 0) scale(0.996264)"/>
    <use xlink:href="#CMR17-73" transform="translate(348.756297 0) scale(0.996264)"/>
    <use xlink:href="#CMR17-65" transform="translate(384.557634 0) scale(0.996264)"/>
    <use xlink:href="#CMR17-6f" transform="translate(455.119261 0) scale(0.996264)"/>
    <use xlink:href="#CMR17-66" transform="translate(500.809738 0) scale(0.996264)"/>
    <use xlink:href="#CMR17-6c" transform="translate(558.359217 0) scale(0.996264)"/>
    <use xlink:href="#CMR17-69" transform="translate(583.230275 0) scale(0.996264)"/>
    <use xlink:href="#CMR17-67" transform="translate(608.101334 0) scale(0.996264)"/>
    <use xlink:href="#CMR17-68" transform="translate(653.791811 0) scale(0.996264)"/>
    <use xlink:href="#CMR17-74" transform="translate(702.084727 0) scale(0.996264)"/>
    <use xlink:href="#CMR17-74" transform="translate(767.441461 0) scale(0.996264)"/>
    <use xlink:href="#CMR17-72" transform="translate(802.722229 0) scale(0.996264)"/>
    <use xlink:href="#CMR17-61" transform="translate(838.002997 0) scale(0.996264)"/>
    <use xlink:href="#CMR17-76" transform="translate(881.09102 0) scale(0.996264)"/>
    <use xlink:href="#CMR17-65" transform="translate(926.781482 0) scale(0.996264)"/>
    <use xlink:href="#CMR17-6c" transform="translate(967.267142 0) scale(0.996264)"/>
    <use xlink:href="#CMR17-69" transform="translate(992.138201 0) scale(0.996264)"/>
    <use xlink:href="#CMR17-6e" transform="translate(1017.009259 0) scale(0.996264)"/>
    <use xlink:href="#CMR17-67" transform="translate(1067.904629 0) scale(0.996264)"/>
    <use xlink:href="#CMR17-66" transform="translate(1143.671072 0) scale(0.996264)"/>
    <use xlink:href="#CMR17-72" transform="translate(1171.144585 0) scale(0.996264)"/>
    <use xlink:href="#CMR17-6f" transform="translate(1206.425353 0) scale(0.996264)"/>
    <use xlink:href="#CMR17-6d" transform="translate(1252.11583 0) scale(0.996264)"/>
    <use xlink:href="#CMR17-61" transform="translate(1359.111386 0) scale(0.996264)"/>
    <use xlink:href="#CMR17-69" transform="translate(1404.801863 0) scale(0.996264)"/>
    <use xlink:href="#CMR17-72" transform="translate(1429.672921 0) scale(0.996264)"/>
    <use xlink:href="#CMR17-74" transform="translate(1495.029656 0) scale(0.996264)"/>
    <use xlink:href="#CMR17-6f" transform="translate(1530.310423 0) scale(0.996264)"/>
    <use xlink:href="#CMR17-67" transform="translate(1606.076867 0) scale(0.996264)"/>
    <use xlink:href="#CMR17-6c" transform="translate(1651.767344 0) scale(0.996264)"/>
    <use xlink:href="#CMR17-61" transform="translate(1676.638402 0) scale(0.996264)"/>
    <use xlink:href="#CMR17-73" transform="translate(1722.32888 0) scale(0.996264)"/>
    <use xlink:href="#CMR17-73" transform="translate(1758.130217 0) scale(0.996264)"/>
   </g>
  </g>
  <g id="legend_1">
   <g id="patch_12">
    <path d="M 726.972396 40.851489 
L 853.5 40.851489 
Q 856.5 40.851489 856.5 37.851489 
L 856.5 -2.46 
Q 856.5 -5.46 853.5 -5.46 
L 726.972396 -5.46 
Q 723.972396 -5.46 723.972396 -2.46 
L 723.972396 37.851489 
Q 723.972396 40.851489 726.972396 40.851489 
z
" style="fill: #ffffff; opacity: 0.5; stroke: #000000; stroke-linejoin: miter"/>
   </g>
   <g id="LineCollection_9">
    <path d="M 737.472396 5.79 
L 752.472396 5.79 
" style="fill: none; stroke: #1f77b4; stroke-width: 1.5"/>
   </g>
   <g id="LineCollection_10">
    <path d="M 744.972396 13.29 
L 744.972396 -1 
" style="fill: none; stroke: #1f77b4; stroke-width: 1.5"/>
   </g>
   <g id="line2d_9"/>
   <g id="line2d_10">
    <g>
     <use xlink:href="#mfa53c61018" x="744.972396" y="5.79" style="fill: #1f77b4; stroke: #1f77b4"/>
    </g>
   </g>
   <g id="text_23">
    <!-- Transmitted -->
    <g transform="translate(771.972396 11.04) scale(0.15 -0.15)">
     <defs>
      <path id="CMR17-54" d="M 3981 4326 
L 288 4326 
L 179 2918 
L 294 2918 
C 378 3976 467 4160 1453 4160 
C 1568 4160 1754 4160 1805 4154 
C 1926 4135 1926 4058 1926 3912 
L 1926 459 
C 1926 230 1907 160 1376 160 
L 1197 160 
L 1197 0 
C 1504 0 1824 0 2138 0 
C 2451 0 2771 0 3078 0 
L 3078 160 
L 2899 160 
C 2368 160 2349 230 2349 459 
L 2349 3912 
C 2349 4052 2349 4129 2464 4154 
C 2515 4160 2701 4160 2816 4160 
C 3795 4160 3891 3976 3974 2918 
L 4090 2918 
L 3981 4326 
z
" transform="scale(0.015625)"/>
     </defs>
     <use xlink:href="#CMR17-54" transform="scale(0.996264)"/>
     <use xlink:href="#CMR17-72" transform="translate(58.702625 0) scale(0.996264)"/>
     <use xlink:href="#CMR17-61" transform="translate(93.983393 0) scale(0.996264)"/>
     <use xlink:href="#CMR17-6e" transform="translate(139.67387 0) scale(0.996264)"/>
     <use xlink:href="#CMR17-73" transform="translate(190.56924 0) scale(0.996264)"/>
     <use xlink:href="#CMR17-6d" transform="translate(226.370577 0) scale(0.996264)"/>
     <use xlink:href="#CMR17-69" transform="translate(303.290167 0) scale(0.996264)"/>
     <use xlink:href="#CMR17-74" transform="translate(328.161226 0) scale(0.996264)"/>
     <use xlink:href="#CMR17-74" transform="translate(363.441994 0) scale(0.996264)"/>
     <use xlink:href="#CMR17-65" transform="translate(398.722761 0) scale(0.996264)"/>
     <use xlink:href="#CMR17-64" transform="translate(439.208422 0) scale(0.996264)"/>
    </g>
   </g>
   <g id="LineCollection_11">
    <path d="M 737.472396 26.695745 
L 752.472396 26.695745 
" style="fill: none; stroke: #d62728; stroke-width: 1.5"/>
   </g>
   <g id="LineCollection_12">
    <path d="M 744.972396 34.195745 
L 744.972396 19.195745 
" style="fill: none; stroke: #d62728; stroke-width: 1.5"/>
   </g>
   <g id="line2d_11"/>
   <g id="line2d_12">
    <g>
     <use xlink:href="#m7959ccf782" x="744.972396" y="26.695745" style="fill: #d62728; stroke: #d62728"/>
    </g>
   </g>
   <g id="text_24">
    <!-- Reflected -->
    <g transform="translate(771.972396 31.945745) scale(0.15 -0.15)">
     <use xlink:href="#CMR17-52" transform="scale(0.996264)"/>
     <use xlink:href="#CMR17-65" transform="translate(67.791102 0) scale(0.996264)"/>
     <use xlink:href="#CMR17-d" transform="translate(108.276762 0) scale(0.996264)"/>
     <use xlink:href="#CMR17-65" transform="translate(158.018986 0) scale(0.996264)"/>
     <use xlink:href="#CMR17-63" transform="translate(198.504646 0) scale(0.996264)"/>
     <use xlink:href="#CMR17-74" transform="translate(238.990307 0) scale(0.996264)"/>
     <use xlink:href="#CMR17-65" transform="translate(274.271075 0) scale(0.996264)"/>
     <use xlink:href="#CMR17-64" transform="translate(314.756735 0) scale(0.996264)"/>
    </g>
   </g>
  </g>
 </g>
 <defs>
  <clipPath id="p929a97144d">
   <rect x="65.509683" y="111.635611" width="377.645159" height="258.090253"/>
  </clipPath>
  <clipPath id="pff9874f92e">
   <rect x="464.754841" y="111.635611" width="377.645159" height="258.090253"/>
  </clipPath>
 </defs>
</svg>
