<?xml version="1.0" encoding="utf-8" standalone="no"?>
<!DOCTYPE svg PUBLIC "-//W3C//DTD SVG 1.1//EN"
  "http://www.w3.org/Graphics/SVG/1.1/DTD/svg11.dtd">
<svg xmlns:xlink="http://www.w3.org/1999/xlink" width="708.661417pt" height="425.19685pt" viewBox="0 0 708.661417 425.19685" xmlns="http://www.w3.org/2000/svg" version="1.1">
 <metadata>
  <rdf:RDF xmlns:dc="http://purl.org/dc/elements/1.1/" xmlns:cc="http://creativecommons.org/ns#" xmlns:rdf="http://www.w3.org/1999/02/22-rdf-syntax-ns#">
   <cc:Work>
    <dc:type rdf:resource="http://purl.org/dc/dcmitype/StillImage"/>
    <dc:date>2026-03-11T09:28:32.516025</dc:date>
    <dc:format>image/svg+xml</dc:format>
    <dc:creator>
     <cc:Agent>
      <dc:title>Matplotlib v3.8.4, https://matplotlib.org/</dc:title>
     </cc:Agent>
    </dc:creator>
   </cc:Work>
  </rdf:RDF>
 </metadata>
 <defs>
  <style type="text/css">*{stroke-linejoin: round; stroke-linecap: butt}</style>
 </defs>
 <g id="figure_1">
  <g id="axes_1">
   <g id="patch_1">
    <path d="M 392.077929 257.239495 
C 403.422497 270.6722 419.690526 279.086163 437.272381 280.614452 
C 454.854236 282.142742 472.345673 276.663293 485.865603 265.391916 
C 499.385533 254.120539 507.854133 237.957465 509.392346 220.489041 
C 510.930559 203.020617 505.41553 185.642028 494.070961 172.209323 
" clip-path="url(#p05a968d69b)" style="fill: none; stroke: #000000; stroke-linejoin: miter"/>
   </g>
   <g id="patch_2">
    <path d="M 526.420148 214.424331 
C 524.26223 213.968611 521.82568 215.236304 519.651131 217.946129 
C 517.476582 220.655954 515.737713 224.591479 514.820354 228.87947 
C 513.902995 233.167462 513.880413 237.465442 514.757621 240.819752 
C 515.634828 244.174063 517.341762 246.316799 519.49968 246.772519 
" clip-path="url(#p05a968d69b)" style="fill: none; stroke: #000000; stroke-linejoin: miter"/>
   </g>
   <g id="line2d_1">
    <path d="M 113.546886 65.905512 
L 612.831067 65.905512 
" clip-path="url(#p05a968d69b)" style="fill: none; stroke: #000000; stroke-width: 1.5; stroke-linecap: square"/>
   </g>
   <g id="line2d_2">
    <path d="M 113.546886 363.543307 
L 612.831067 363.543307 
" clip-path="url(#p05a968d69b)" style="fill: none; stroke: #000000; stroke-width: 1.5; stroke-linecap: square"/>
   </g>
   <g id="line2d_3">
    <path d="M 612.831067 363.543307 
L 612.831067 65.905512 
" clip-path="url(#p05a968d69b)" style="fill: none; stroke: #000000; stroke-width: 1.5; stroke-linecap: square"/>
   </g>
   <g id="line2d_4">
    <path d="M 113.546886 363.543307 
L 113.546886 65.905512 
" clip-path="url(#p05a968d69b)" style="fill: none; stroke: #000000; stroke-width: 1.5; stroke-linecap: square"/>
   </g>
   <g id="line2d_5">
    <path d="M 133.518253 234.566929 
L 213.403722 234.566929 
" clip-path="url(#p05a968d69b)" style="fill: none; stroke: #000000; stroke-width: 1.5; stroke-linecap: square"/>
   </g>
   <g id="line2d_6">
    <path d="M 213.403722 234.566929 
L 213.403722 194.88189 
" clip-path="url(#p05a968d69b)" style="fill: none; stroke: #000000; stroke-width: 1.5; stroke-linecap: square"/>
   </g>
   <g id="line2d_7">
    <path d="M 213.403722 194.88189 
L 133.518253 194.88189 
" clip-path="url(#p05a968d69b)" style="fill: none; stroke: #000000; stroke-width: 1.5; stroke-linecap: square"/>
   </g>
   <g id="line2d_8">
    <path d="M 133.518253 194.88189 
L 133.518253 234.566929 
" clip-path="url(#p05a968d69b)" style="fill: none; stroke: #000000; stroke-width: 1.5; stroke-linecap: square"/>
   </g>
   <g id="line2d_9">
    <path d="M 245.025054 247.795276 
L 245.025054 181.653543 
" clip-path="url(#p05a968d69b)" style="fill: none; stroke: #000000; stroke-width: 1.5; stroke-linecap: square"/>
   </g>
   <g id="line2d_10">
    <path d="M 241.696492 247.795276 
L 241.696492 181.653543 
" clip-path="url(#p05a968d69b)" style="fill: none; stroke: #000000; stroke-width: 1.5; stroke-linecap: square"/>
   </g>
   <g id="line2d_11">
    <path d="M 245.025054 247.795276 
L 241.696492 247.795276 
" clip-path="url(#p05a968d69b)" style="fill: none; stroke: #000000; stroke-width: 1.5; stroke-linecap: square"/>
   </g>
   <g id="line2d_12">
    <path d="M 245.025054 181.653543 
L 241.696492 181.653543 
" clip-path="url(#p05a968d69b)" style="fill: none; stroke: #000000; stroke-width: 1.5; stroke-linecap: square"/>
   </g>
   <g id="line2d_13">
    <path d="M 304.939155 247.795276 
L 304.939155 181.653543 
" clip-path="url(#p05a968d69b)" style="fill: none; stroke: #000000; stroke-width: 1.5; stroke-linecap: square"/>
   </g>
   <g id="line2d_14">
    <path d="M 301.610594 247.795276 
L 301.610594 181.653543 
" clip-path="url(#p05a968d69b)" style="fill: none; stroke: #000000; stroke-width: 1.5; stroke-linecap: square"/>
   </g>
   <g id="line2d_15">
    <path d="M 304.939155 247.795276 
L 301.610594 247.795276 
" clip-path="url(#p05a968d69b)" style="fill: none; stroke: #000000; stroke-width: 1.5; stroke-linecap: square"/>
   </g>
   <g id="line2d_16">
    <path d="M 304.939155 181.653543 
L 301.610594 181.653543 
" clip-path="url(#p05a968d69b)" style="fill: none; stroke: #000000; stroke-width: 1.5; stroke-linecap: square"/>
   </g>
   <g id="line2d_17">
    <path d="M 494.070961 172.209323 
L 392.077929 257.239495 
" clip-path="url(#p05a968d69b)" style="fill: none; stroke: #000000; stroke-width: 1.5; stroke-linecap: square"/>
   </g>
   <g id="line2d_18">
    <path d="M 466.022878 233.856198 
L 466.36216 233.447123 
L 466.694056 233.032109 
L 467.018461 232.611289 
L 467.335271 232.184795 
L 467.644387 231.752764 
L 467.94571 231.315331 
L 468.239145 230.872637 
L 468.524598 230.424821 
L 468.801979 229.972025 
L 469.0712 229.514393 
L 469.332175 229.05207 
L 469.584823 228.585203 
L 469.829062 228.11394 
L 470.064815 227.638429 
L 470.292008 227.158823 
L 470.510569 226.675273 
L 470.720427 226.187933 
L 470.921517 225.696957 
L 471.113775 225.202501 
L 471.29714 224.704721 
L 471.471553 224.203776 
L 471.636959 223.699824 
L 471.793307 223.193026 
L 471.940545 222.683541 
L 472.078629 222.171533 
L 472.207513 221.657162 
L 472.327156 221.140592 
L 472.437522 220.621988 
L 472.538575 220.101512 
L 472.630283 219.579332 
L 472.712616 219.055611 
L 472.785549 218.530517 
L 472.849059 218.004216 
L 472.903125 217.476874 
L 472.94773 216.948659 
L 472.98286 216.419739 
L 473.008505 215.890282 
L 473.024655 215.360454 
L 473.031306 214.830425 
L 473.028456 214.300362 
L 473.016105 213.770433 
L 472.994257 213.240807 
L 472.96292 212.711652 
L 472.922103 212.183135 
L 472.871819 211.655424 
L 472.812085 211.128687 
L 472.742919 210.60309 
L 472.664342 210.0788 
L 472.576381 209.555983 
" clip-path="url(#p05a968d69b)" style="fill: none; stroke: #1f77b4; stroke-width: 1.5; stroke-linecap: square"/>
   </g>
   <g id="line2d_19">
    <path d="M 427.77549 201.969884 
L 427.616645 202.160366 
L 427.460202 202.352801 
L 427.306185 202.547158 
L 427.154619 202.743409 
L 427.005528 202.941521 
L 426.858933 203.141464 
L 426.714859 203.343208 
L 426.573327 203.54672 
L 426.43436 203.75197 
L 426.297979 203.958925 
L 426.164205 204.167552 
L 426.03306 204.377821 
L 425.904563 204.589698 
L 425.778734 204.80315 
L 425.655593 205.018143 
L 425.53516 205.234645 
L 425.417452 205.452622 
L 425.302489 205.67204 
L 425.190287 205.892865 
L 425.080865 206.115063 
L 424.97424 206.338598 
L 424.870427 206.563437 
L 424.769444 206.789544 
L 424.671305 207.016884 
L 424.576027 207.245422 
L 424.483624 207.475123 
L 424.39411 207.70595 
L 424.307499 207.937868 
L 424.223805 208.170841 
L 424.14304 208.404832 
L 424.065218 208.639805 
L 423.99035 208.875724 
L 423.918448 209.112552 
L 423.849523 209.350252 
L 423.783586 209.588787 
L 423.720647 209.828121 
L 423.660716 210.068215 
L 423.603802 210.309033 
L 423.549914 210.550538 
L 423.499061 210.792691 
L 423.451249 211.035455 
L 423.406488 211.278792 
L 423.364783 211.522665 
L 423.326142 211.767035 
L 423.290569 212.011865 
L 423.258072 212.257117 
L 423.228654 212.502752 
L 423.20232 212.748732 
L 423.179075 212.99502 
" clip-path="url(#p05a968d69b)" style="fill: none; stroke: #2ca02c; stroke-width: 1.5; stroke-linecap: square"/>
   </g>
   <g id="line2d_20">
    <path d="M 519.49968 246.772519 
L 526.420148 214.424331 
" clip-path="url(#p05a968d69b)" style="fill: none; stroke: #000000; stroke-width: 1.5; stroke-linecap: square"/>
   </g>
   <g id="line2d_21">
    <path d="M 541.098959 251.084814 
L 548.019427 218.736626 
" clip-path="url(#p05a968d69b)" style="fill: none; stroke: #000000; stroke-width: 1.5; stroke-linecap: square"/>
   </g>
   <g id="line2d_22">
    <path d="M 537.843135 250.397232 
L 544.763603 218.049044 
" clip-path="url(#p05a968d69b)" style="fill: none; stroke: #000000; stroke-width: 1.5; stroke-linecap: square"/>
   </g>
   <g id="line2d_23">
    <path d="M 541.098959 251.084814 
L 537.843135 250.397232 
" clip-path="url(#p05a968d69b)" style="fill: none; stroke: #000000; stroke-width: 1.5; stroke-linecap: square"/>
   </g>
   <g id="line2d_24">
    <path d="M 548.019427 218.736626 
L 544.763603 218.049044 
" clip-path="url(#p05a968d69b)" style="fill: none; stroke: #000000; stroke-width: 1.5; stroke-linecap: square"/>
   </g>
   <g id="line2d_25">
    <path d="M 564.184537 240.496633 
L 564.876584 237.261815 
" clip-path="url(#p05a968d69b)" style="fill: none; stroke: #000000; stroke-width: 1.5; stroke-linecap: square"/>
   </g>
   <g id="line2d_26">
    <path d="M 560.928713 239.809052 
L 561.62076 236.574233 
" clip-path="url(#p05a968d69b)" style="fill: none; stroke: #000000; stroke-width: 1.5; stroke-linecap: square"/>
   </g>
   <g id="line2d_27">
    <path d="M 423.818424 191.924032 
L 424.230156 191.586938 
L 424.647865 191.257183 
L 425.071418 190.934871 
L 425.500681 190.620105 
L 425.935517 190.312983 
L 426.37579 190.013604 
L 426.821359 189.722063 
L 427.272083 189.438452 
L 427.727819 189.16286 
L 428.188423 188.895376 
L 428.653748 188.636084 
L 429.123647 188.385067 
L 429.59797 188.142403 
L 430.076568 187.908171 
L 430.559288 187.682443 
L 431.045978 187.465293 
L 431.536483 187.256789 
L 432.030647 187.056996 
L 432.528314 186.865978 
L 433.029326 186.683797 
L 433.533524 186.510509 
L 434.040749 186.34617 
L 434.550838 186.190831 
L 435.063631 186.044542 
L 435.578964 185.90735 
L 436.096675 185.779297 
L 436.616599 185.660425 
L 437.138571 185.550772 
L 437.662426 185.450371 
L 438.187997 185.359255 
L 438.715119 185.277453 
L 439.243623 185.20499 
L 439.773342 185.14189 
L 440.304107 185.088173 
L 440.835752 185.043855 
L 441.368107 185.008952 
L 441.901002 184.983473 
L 442.43427 184.967427 
L 442.967742 184.960819 
L 443.501246 184.963651 
L 444.034616 184.975922 
L 444.567681 184.997629 
L 445.100272 185.028764 
L 445.632221 185.069317 
L 446.163359 185.119276 
L 446.693517 185.178625 
L 447.222527 185.247346 
L 447.750221 185.325415 
L 448.276433 185.412809 
" clip-path="url(#p05a968d69b)" style="fill: none; stroke: #17becf; stroke-width: 1.5; stroke-linecap: square"/>
   </g>
   <g id="line2d_28">
    <path d="M 443.074445 214.724409 
L 458.052971 135.354331 
" clip-path="url(#p05a968d69b)" style="fill: none; stroke-dasharray: 3.7,1.6; stroke-dashoffset: 0; stroke: #d62728"/>
   </g>
   <g id="line2d_29">
    <path d="M 378.887708 138.72315 
L 507.261182 290.725669 
" clip-path="url(#p05a968d69b)" style="fill: none; stroke-dasharray: 3.7,1.6; stroke-dashoffset: 0; stroke: #808080"/>
   </g>
   <g id="line2d_30">
    <path d="M 213.403722 214.724409 
L 243.360773 214.724409 
" clip-path="url(#p05a968d69b)" style="fill: none; stroke: #d62728; stroke-linecap: square"/>
   </g>
   <g id="line2d_31">
    <path d="M 243.360773 214.724409 
L 303.274875 214.724409 
" clip-path="url(#p05a968d69b)" style="fill: none; stroke: #d62728; stroke-linecap: square"/>
   </g>
   <g id="line2d_32">
    <path d="M 303.274875 214.724409 
L 443.074445 214.724409 
" clip-path="url(#p05a968d69b)" style="fill: none; stroke: #d62728; stroke-linecap: square"/>
   </g>
   <g id="line2d_33">
    <path d="M 443.074445 214.724409 
L 522.959914 230.598425 
" clip-path="url(#p05a968d69b)" style="fill: none; stroke: #d62728; stroke-linecap: square"/>
   </g>
   <g id="line2d_34">
    <path d="M 522.959914 230.598425 
L 562.902649 238.535433 
" clip-path="url(#p05a968d69b)" style="fill: none; stroke: #d62728; stroke-linecap: square"/>
   </g>
   <g id="text_1">
    <!-- Laser -->
    <g style="fill: #d62728" transform="translate(162.591613 216.931909) scale(0.08 -0.08)">
     <defs>
      <path id="DejaVuSans-4c" d="M 628 4666 
L 1259 4666 
L 1259 531 
L 3531 531 
L 3531 0 
L 628 0 
L 628 4666 
z
" transform="scale(0.015625)"/>
      <path id="DejaVuSans-61" d="M 2194 1759 
Q 1497 1759 1228 1600 
Q 959 1441 959 1056 
Q 959 750 1161 570 
Q 1363 391 1709 391 
Q 2188 391 2477 730 
Q 2766 1069 2766 1631 
L 2766 1759 
L 2194 1759 
z
M 3341 1997 
L 3341 0 
L 2766 0 
L 2766 531 
Q 2569 213 2275 61 
Q 1981 -91 1556 -91 
Q 1019 -91 701 211 
Q 384 513 384 1019 
Q 384 1609 779 1909 
Q 1175 2209 1959 2209 
L 2766 2209 
L 2766 2266 
Q 2766 2663 2505 2880 
Q 2244 3097 1772 3097 
Q 1472 3097 1187 3025 
Q 903 2953 641 2809 
L 641 3341 
Q 956 3463 1253 3523 
Q 1550 3584 1831 3584 
Q 2591 3584 2966 3190 
Q 3341 2797 3341 1997 
z
" transform="scale(0.015625)"/>
      <path id="DejaVuSans-73" d="M 2834 3397 
L 2834 2853 
Q 2591 2978 2328 3040 
Q 2066 3103 1784 3103 
Q 1356 3103 1142 2972 
Q 928 2841 928 2578 
Q 928 2378 1081 2264 
Q 1234 2150 1697 2047 
L 1894 2003 
Q 2506 1872 2764 1633 
Q 3022 1394 3022 966 
Q 3022 478 2636 193 
Q 2250 -91 1575 -91 
Q 1294 -91 989 -36 
Q 684 19 347 128 
L 347 722 
Q 666 556 975 473 
Q 1284 391 1588 391 
Q 1994 391 2212 530 
Q 2431 669 2431 922 
Q 2431 1156 2273 1281 
Q 2116 1406 1581 1522 
L 1381 1569 
Q 847 1681 609 1914 
Q 372 2147 372 2553 
Q 372 3047 722 3315 
Q 1072 3584 1716 3584 
Q 2034 3584 2315 3537 
Q 2597 3491 2834 3397 
z
" transform="scale(0.015625)"/>
      <path id="DejaVuSans-65" d="M 3597 1894 
L 3597 1613 
L 953 1613 
Q 991 1019 1311 708 
Q 1631 397 2203 397 
Q 2534 397 2845 478 
Q 3156 559 3463 722 
L 3463 178 
Q 3153 47 2828 -22 
Q 2503 -91 2169 -91 
Q 1331 -91 842 396 
Q 353 884 353 1716 
Q 353 2575 817 3079 
Q 1281 3584 2069 3584 
Q 2775 3584 3186 3129 
Q 3597 2675 3597 1894 
z
M 3022 2063 
Q 3016 2534 2758 2815 
Q 2500 3097 2075 3097 
Q 1594 3097 1305 2825 
Q 1016 2553 972 2059 
L 3022 2063 
z
" transform="scale(0.015625)"/>
      <path id="DejaVuSans-72" d="M 2631 2963 
Q 2534 3019 2420 3045 
Q 2306 3072 2169 3072 
Q 1681 3072 1420 2755 
Q 1159 2438 1159 1844 
L 1159 0 
L 581 0 
L 581 3500 
L 1159 3500 
L 1159 2956 
Q 1341 3275 1631 3429 
Q 1922 3584 2338 3584 
Q 2397 3584 2469 3576 
Q 2541 3569 2628 3553 
L 2631 2963 
z
" transform="scale(0.015625)"/>
     </defs>
     <use xlink:href="#DejaVuSans-4c"/>
     <use xlink:href="#DejaVuSans-61" x="55.712891"/>
     <use xlink:href="#DejaVuSans-73" x="116.992188"/>
     <use xlink:href="#DejaVuSans-65" x="169.091797"/>
     <use xlink:href="#DejaVuSans-72" x="230.615234"/>
    </g>
   </g>
   <g id="text_2">
    <!-- Aperture -->
    <g transform="translate(225.860773 167.32561) scale(0.08 -0.08)">
     <defs>
      <path id="DejaVuSans-41" d="M 2188 4044 
L 1331 1722 
L 3047 1722 
L 2188 4044 
z
M 1831 4666 
L 2547 4666 
L 4325 0 
L 3669 0 
L 3244 1197 
L 1141 1197 
L 716 0 
L 50 0 
L 1831 4666 
z
" transform="scale(0.015625)"/>
      <path id="DejaVuSans-70" d="M 1159 525 
L 1159 -1331 
L 581 -1331 
L 581 3500 
L 1159 3500 
L 1159 2969 
Q 1341 3281 1617 3432 
Q 1894 3584 2278 3584 
Q 2916 3584 3314 3078 
Q 3713 2572 3713 1747 
Q 3713 922 3314 415 
Q 2916 -91 2278 -91 
Q 1894 -91 1617 61 
Q 1341 213 1159 525 
z
M 3116 1747 
Q 3116 2381 2855 2742 
Q 2594 3103 2138 3103 
Q 1681 3103 1420 2742 
Q 1159 2381 1159 1747 
Q 1159 1113 1420 752 
Q 1681 391 2138 391 
Q 2594 391 2855 752 
Q 3116 1113 3116 1747 
z
" transform="scale(0.015625)"/>
      <path id="DejaVuSans-74" d="M 1172 4494 
L 1172 3500 
L 2356 3500 
L 2356 3053 
L 1172 3053 
L 1172 1153 
Q 1172 725 1289 603 
Q 1406 481 1766 481 
L 2356 481 
L 2356 0 
L 1766 0 
Q 1100 0 847 248 
Q 594 497 594 1153 
L 594 3053 
L 172 3053 
L 172 3500 
L 594 3500 
L 594 4494 
L 1172 4494 
z
" transform="scale(0.015625)"/>
      <path id="DejaVuSans-75" d="M 544 1381 
L 544 3500 
L 1119 3500 
L 1119 1403 
Q 1119 906 1312 657 
Q 1506 409 1894 409 
Q 2359 409 2629 706 
Q 2900 1003 2900 1516 
L 2900 3500 
L 3475 3500 
L 3475 0 
L 2900 0 
L 2900 538 
Q 2691 219 2414 64 
Q 2138 -91 1772 -91 
Q 1169 -91 856 284 
Q 544 659 544 1381 
z
M 1991 3584 
L 1991 3584 
z
" transform="scale(0.015625)"/>
     </defs>
     <use xlink:href="#DejaVuSans-41"/>
     <use xlink:href="#DejaVuSans-70" x="68.408203"/>
     <use xlink:href="#DejaVuSans-65" x="131.884766"/>
     <use xlink:href="#DejaVuSans-72" x="193.408203"/>
     <use xlink:href="#DejaVuSans-74" x="234.521484"/>
     <use xlink:href="#DejaVuSans-75" x="273.730469"/>
     <use xlink:href="#DejaVuSans-72" x="337.109375"/>
     <use xlink:href="#DejaVuSans-65" x="375.972656"/>
    </g>
   </g>
   <g id="text_3">
    <!-- $45^{\circ}$ Polarisator -->
    <g transform="translate(273.634875 271.971469) scale(0.08 -0.08)">
     <defs>
      <path id="DejaVuSans-34" d="M 2419 4116 
L 825 1625 
L 2419 1625 
L 2419 4116 
z
M 2253 4666 
L 3047 4666 
L 3047 1625 
L 3713 1625 
L 3713 1100 
L 3047 1100 
L 3047 0 
L 2419 0 
L 2419 1100 
L 313 1100 
L 313 1709 
L 2253 4666 
z
" transform="scale(0.015625)"/>
      <path id="DejaVuSans-35" d="M 691 4666 
L 3169 4666 
L 3169 4134 
L 1269 4134 
L 1269 2991 
Q 1406 3038 1543 3061 
Q 1681 3084 1819 3084 
Q 2600 3084 3056 2656 
Q 3513 2228 3513 1497 
Q 3513 744 3044 326 
Q 2575 -91 1722 -91 
Q 1428 -91 1123 -41 
Q 819 9 494 109 
L 494 744 
Q 775 591 1075 516 
Q 1375 441 1709 441 
Q 2250 441 2565 725 
Q 2881 1009 2881 1497 
Q 2881 1984 2565 2268 
Q 2250 2553 1709 2553 
Q 1456 2553 1204 2497 
Q 953 2441 691 2322 
L 691 4666 
z
" transform="scale(0.015625)"/>
      <path id="DejaVuSans-2218" d="M 2003 2603 
Q 1753 2603 1581 2429 
Q 1409 2256 1409 2006 
Q 1409 1759 1581 1589 
Q 1753 1419 2003 1419 
Q 2253 1419 2425 1589 
Q 2597 1759 2597 2006 
Q 2597 2253 2423 2428 
Q 2250 2603 2003 2603 
z
M 2003 3006 
Q 2203 3006 2387 2929 
Q 2572 2853 2706 2709 
Q 2850 2569 2922 2390 
Q 2994 2212 2994 2006 
Q 2994 1594 2705 1308 
Q 2416 1022 1997 1022 
Q 1575 1022 1294 1303 
Q 1013 1584 1013 2006 
Q 1013 2425 1300 2715 
Q 1588 3006 2003 3006 
z
" transform="scale(0.015625)"/>
      <path id="DejaVuSans-20" transform="scale(0.015625)"/>
      <path id="DejaVuSans-50" d="M 1259 4147 
L 1259 2394 
L 2053 2394 
Q 2494 2394 2734 2622 
Q 2975 2850 2975 3272 
Q 2975 3691 2734 3919 
Q 2494 4147 2053 4147 
L 1259 4147 
z
M 628 4666 
L 2053 4666 
Q 2838 4666 3239 4311 
Q 3641 3956 3641 3272 
Q 3641 2581 3239 2228 
Q 2838 1875 2053 1875 
L 1259 1875 
L 1259 0 
L 628 0 
L 628 4666 
z
" transform="scale(0.015625)"/>
      <path id="DejaVuSans-6f" d="M 1959 3097 
Q 1497 3097 1228 2736 
Q 959 2375 959 1747 
Q 959 1119 1226 758 
Q 1494 397 1959 397 
Q 2419 397 2687 759 
Q 2956 1122 2956 1747 
Q 2956 2369 2687 2733 
Q 2419 3097 1959 3097 
z
M 1959 3584 
Q 2709 3584 3137 3096 
Q 3566 2609 3566 1747 
Q 3566 888 3137 398 
Q 2709 -91 1959 -91 
Q 1206 -91 779 398 
Q 353 888 353 1747 
Q 353 2609 779 3096 
Q 1206 3584 1959 3584 
z
" transform="scale(0.015625)"/>
      <path id="DejaVuSans-6c" d="M 603 4863 
L 1178 4863 
L 1178 0 
L 603 0 
L 603 4863 
z
" transform="scale(0.015625)"/>
      <path id="DejaVuSans-69" d="M 603 3500 
L 1178 3500 
L 1178 0 
L 603 0 
L 603 3500 
z
M 603 4863 
L 1178 4863 
L 1178 4134 
L 603 4134 
L 603 4863 
z
" transform="scale(0.015625)"/>
     </defs>
     <use xlink:href="#DejaVuSans-34" transform="translate(0 0.015625)"/>
     <use xlink:href="#DejaVuSans-35" transform="translate(63.623047 0.015625)"/>
     <use xlink:href="#DejaVuSans-2218" transform="translate(128.203125 38.296875) scale(0.7)"/>
     <use xlink:href="#DejaVuSans-20" transform="translate(174.755859 0.015625)"/>
     <use xlink:href="#DejaVuSans-50" transform="translate(206.542969 0.015625)"/>
     <use xlink:href="#DejaVuSans-6f" transform="translate(266.845703 0.015625)"/>
     <use xlink:href="#DejaVuSans-6c" transform="translate(328.027344 0.015625)"/>
     <use xlink:href="#DejaVuSans-61" transform="translate(355.810547 0.015625)"/>
     <use xlink:href="#DejaVuSans-72" transform="translate(417.089844 0.015625)"/>
     <use xlink:href="#DejaVuSans-69" transform="translate(458.203125 0.015625)"/>
     <use xlink:href="#DejaVuSans-73" transform="translate(485.986328 0.015625)"/>
     <use xlink:href="#DejaVuSans-61" transform="translate(538.085938 0.015625)"/>
     <use xlink:href="#DejaVuSans-74" transform="translate(599.365234 0.015625)"/>
     <use xlink:href="#DejaVuSans-6f" transform="translate(638.574219 0.015625)"/>
     <use xlink:href="#DejaVuSans-72" transform="translate(699.755859 0.015625)"/>
    </g>
    <!-- to get both $s$- and $p$-polarization -->
    <g transform="translate(238.674875 280.931219) scale(0.08 -0.08)">
     <defs>
      <path id="DejaVuSans-67" d="M 2906 1791 
Q 2906 2416 2648 2759 
Q 2391 3103 1925 3103 
Q 1463 3103 1205 2759 
Q 947 2416 947 1791 
Q 947 1169 1205 825 
Q 1463 481 1925 481 
Q 2391 481 2648 825 
Q 2906 1169 2906 1791 
z
M 3481 434 
Q 3481 -459 3084 -895 
Q 2688 -1331 1869 -1331 
Q 1566 -1331 1297 -1286 
Q 1028 -1241 775 -1147 
L 775 -588 
Q 1028 -725 1275 -790 
Q 1522 -856 1778 -856 
Q 2344 -856 2625 -561 
Q 2906 -266 2906 331 
L 2906 616 
Q 2728 306 2450 153 
Q 2172 0 1784 0 
Q 1141 0 747 490 
Q 353 981 353 1791 
Q 353 2603 747 3093 
Q 1141 3584 1784 3584 
Q 2172 3584 2450 3431 
Q 2728 3278 2906 2969 
L 2906 3500 
L 3481 3500 
L 3481 434 
z
" transform="scale(0.015625)"/>
      <path id="DejaVuSans-62" d="M 3116 1747 
Q 3116 2381 2855 2742 
Q 2594 3103 2138 3103 
Q 1681 3103 1420 2742 
Q 1159 2381 1159 1747 
Q 1159 1113 1420 752 
Q 1681 391 2138 391 
Q 2594 391 2855 752 
Q 3116 1113 3116 1747 
z
M 1159 2969 
Q 1341 3281 1617 3432 
Q 1894 3584 2278 3584 
Q 2916 3584 3314 3078 
Q 3713 2572 3713 1747 
Q 3713 922 3314 415 
Q 2916 -91 2278 -91 
Q 1894 -91 1617 61 
Q 1341 213 1159 525 
L 1159 0 
L 581 0 
L 581 4863 
L 1159 4863 
L 1159 2969 
z
" transform="scale(0.015625)"/>
      <path id="DejaVuSans-68" d="M 3513 2113 
L 3513 0 
L 2938 0 
L 2938 2094 
Q 2938 2591 2744 2837 
Q 2550 3084 2163 3084 
Q 1697 3084 1428 2787 
Q 1159 2491 1159 1978 
L 1159 0 
L 581 0 
L 581 4863 
L 1159 4863 
L 1159 2956 
Q 1366 3272 1645 3428 
Q 1925 3584 2291 3584 
Q 2894 3584 3203 3211 
Q 3513 2838 3513 2113 
z
" transform="scale(0.015625)"/>
      <path id="DejaVuSans-Oblique-73" d="M 3200 3397 
L 3091 2853 
Q 2863 2978 2609 3040 
Q 2356 3103 2088 3103 
Q 1634 3103 1373 2948 
Q 1113 2794 1113 2528 
Q 1113 2219 1719 2053 
Q 1766 2041 1788 2034 
L 1972 1978 
Q 2547 1819 2739 1644 
Q 2931 1469 2931 1166 
Q 2931 609 2489 259 
Q 2047 -91 1331 -91 
Q 1053 -91 747 -37 
Q 441 16 72 128 
L 184 722 
Q 500 559 806 475 
Q 1113 391 1394 391 
Q 1816 391 2080 572 
Q 2344 753 2344 1031 
Q 2344 1331 1650 1516 
L 1591 1531 
L 1394 1581 
Q 956 1697 753 1886 
Q 550 2075 550 2369 
Q 550 2928 970 3256 
Q 1391 3584 2113 3584 
Q 2397 3584 2667 3537 
Q 2938 3491 3200 3397 
z
" transform="scale(0.015625)"/>
      <path id="DejaVuSans-2d" d="M 313 2009 
L 1997 2009 
L 1997 1497 
L 313 1497 
L 313 2009 
z
" transform="scale(0.015625)"/>
      <path id="DejaVuSans-6e" d="M 3513 2113 
L 3513 0 
L 2938 0 
L 2938 2094 
Q 2938 2591 2744 2837 
Q 2550 3084 2163 3084 
Q 1697 3084 1428 2787 
Q 1159 2491 1159 1978 
L 1159 0 
L 581 0 
L 581 3500 
L 1159 3500 
L 1159 2956 
Q 1366 3272 1645 3428 
Q 1925 3584 2291 3584 
Q 2894 3584 3203 3211 
Q 3513 2838 3513 2113 
z
" transform="scale(0.015625)"/>
      <path id="DejaVuSans-64" d="M 2906 2969 
L 2906 4863 
L 3481 4863 
L 3481 0 
L 2906 0 
L 2906 525 
Q 2725 213 2448 61 
Q 2172 -91 1784 -91 
Q 1150 -91 751 415 
Q 353 922 353 1747 
Q 353 2572 751 3078 
Q 1150 3584 1784 3584 
Q 2172 3584 2448 3432 
Q 2725 3281 2906 2969 
z
M 947 1747 
Q 947 1113 1208 752 
Q 1469 391 1925 391 
Q 2381 391 2643 752 
Q 2906 1113 2906 1747 
Q 2906 2381 2643 2742 
Q 2381 3103 1925 3103 
Q 1469 3103 1208 2742 
Q 947 2381 947 1747 
z
" transform="scale(0.015625)"/>
      <path id="DejaVuSans-Oblique-70" d="M 3175 2156 
Q 3175 2616 2975 2859 
Q 2775 3103 2400 3103 
Q 2144 3103 1911 2972 
Q 1678 2841 1497 2591 
Q 1319 2344 1212 1994 
Q 1106 1644 1106 1300 
Q 1106 863 1306 627 
Q 1506 391 1875 391 
Q 2147 391 2380 519 
Q 2613 647 2778 891 
Q 2956 1147 3065 1494 
Q 3175 1841 3175 2156 
z
M 1394 2969 
Q 1625 3272 1939 3428 
Q 2253 3584 2638 3584 
Q 3175 3584 3472 3232 
Q 3769 2881 3769 2247 
Q 3769 1728 3584 1258 
Q 3400 788 3053 416 
Q 2822 169 2531 39 
Q 2241 -91 1919 -91 
Q 1547 -91 1294 64 
Q 1041 219 916 525 
L 556 -1331 
L -19 -1331 
L 922 3500 
L 1497 3500 
L 1394 2969 
z
" transform="scale(0.015625)"/>
      <path id="DejaVuSans-7a" d="M 353 3500 
L 3084 3500 
L 3084 2975 
L 922 459 
L 3084 459 
L 3084 0 
L 275 0 
L 275 525 
L 2438 3041 
L 353 3041 
L 353 3500 
z
" transform="scale(0.015625)"/>
     </defs>
     <use xlink:href="#DejaVuSans-74" transform="translate(0 0.015625)"/>
     <use xlink:href="#DejaVuSans-6f" transform="translate(39.208984 0.015625)"/>
     <use xlink:href="#DejaVuSans-20" transform="translate(100.390625 0.015625)"/>
     <use xlink:href="#DejaVuSans-67" transform="translate(132.177734 0.015625)"/>
     <use xlink:href="#DejaVuSans-65" transform="translate(195.654297 0.015625)"/>
     <use xlink:href="#DejaVuSans-74" transform="translate(257.177734 0.015625)"/>
     <use xlink:href="#DejaVuSans-20" transform="translate(296.386719 0.015625)"/>
     <use xlink:href="#DejaVuSans-62" transform="translate(328.173828 0.015625)"/>
     <use xlink:href="#DejaVuSans-6f" transform="translate(391.650391 0.015625)"/>
     <use xlink:href="#DejaVuSans-74" transform="translate(452.832031 0.015625)"/>
     <use xlink:href="#DejaVuSans-68" transform="translate(492.041016 0.015625)"/>
     <use xlink:href="#DejaVuSans-20" transform="translate(555.419922 0.015625)"/>
     <use xlink:href="#DejaVuSans-Oblique-73" transform="translate(587.207031 0.015625)"/>
     <use xlink:href="#DejaVuSans-2d" transform="translate(639.306641 0.015625)"/>
     <use xlink:href="#DejaVuSans-20" transform="translate(675.390625 0.015625)"/>
     <use xlink:href="#DejaVuSans-61" transform="translate(707.177734 0.015625)"/>
     <use xlink:href="#DejaVuSans-6e" transform="translate(768.457031 0.015625)"/>
     <use xlink:href="#DejaVuSans-64" transform="translate(831.835938 0.015625)"/>
     <use xlink:href="#DejaVuSans-20" transform="translate(895.3125 0.015625)"/>
     <use xlink:href="#DejaVuSans-Oblique-70" transform="translate(927.099609 0.015625)"/>
     <use xlink:href="#DejaVuSans-2d" transform="translate(990.576172 0.015625)"/>
     <use xlink:href="#DejaVuSans-70" transform="translate(1026.660156 0.015625)"/>
     <use xlink:href="#DejaVuSans-6f" transform="translate(1090.136719 0.015625)"/>
     <use xlink:href="#DejaVuSans-6c" transform="translate(1151.318359 0.015625)"/>
     <use xlink:href="#DejaVuSans-61" transform="translate(1179.101562 0.015625)"/>
     <use xlink:href="#DejaVuSans-72" transform="translate(1240.380859 0.015625)"/>
     <use xlink:href="#DejaVuSans-69" transform="translate(1281.494141 0.015625)"/>
     <use xlink:href="#DejaVuSans-7a" transform="translate(1309.277344 0.015625)"/>
     <use xlink:href="#DejaVuSans-61" transform="translate(1361.767578 0.015625)"/>
     <use xlink:href="#DejaVuSans-74" transform="translate(1423.046875 0.015625)"/>
     <use xlink:href="#DejaVuSans-69" transform="translate(1462.255859 0.015625)"/>
     <use xlink:href="#DejaVuSans-6f" transform="translate(1490.039062 0.015625)"/>
     <use xlink:href="#DejaVuSans-6e" transform="translate(1551.220703 0.015625)"/>
    </g>
   </g>
   <g id="text_4">
    <!-- Semicircular Glass -->
    <g transform="translate(406.159445 306.223248) scale(0.08 -0.08)">
     <defs>
      <path id="DejaVuSans-53" d="M 3425 4513 
L 3425 3897 
Q 3066 4069 2747 4153 
Q 2428 4238 2131 4238 
Q 1616 4238 1336 4038 
Q 1056 3838 1056 3469 
Q 1056 3159 1242 3001 
Q 1428 2844 1947 2747 
L 2328 2669 
Q 3034 2534 3370 2195 
Q 3706 1856 3706 1288 
Q 3706 609 3251 259 
Q 2797 -91 1919 -91 
Q 1588 -91 1214 -16 
Q 841 59 441 206 
L 441 856 
Q 825 641 1194 531 
Q 1563 422 1919 422 
Q 2459 422 2753 634 
Q 3047 847 3047 1241 
Q 3047 1584 2836 1778 
Q 2625 1972 2144 2069 
L 1759 2144 
Q 1053 2284 737 2584 
Q 422 2884 422 3419 
Q 422 4038 858 4394 
Q 1294 4750 2059 4750 
Q 2388 4750 2728 4690 
Q 3069 4631 3425 4513 
z
" transform="scale(0.015625)"/>
      <path id="DejaVuSans-6d" d="M 3328 2828 
Q 3544 3216 3844 3400 
Q 4144 3584 4550 3584 
Q 5097 3584 5394 3201 
Q 5691 2819 5691 2113 
L 5691 0 
L 5113 0 
L 5113 2094 
Q 5113 2597 4934 2840 
Q 4756 3084 4391 3084 
Q 3944 3084 3684 2787 
Q 3425 2491 3425 1978 
L 3425 0 
L 2847 0 
L 2847 2094 
Q 2847 2600 2669 2842 
Q 2491 3084 2119 3084 
Q 1678 3084 1418 2786 
Q 1159 2488 1159 1978 
L 1159 0 
L 581 0 
L 581 3500 
L 1159 3500 
L 1159 2956 
Q 1356 3278 1631 3431 
Q 1906 3584 2284 3584 
Q 2666 3584 2933 3390 
Q 3200 3197 3328 2828 
z
" transform="scale(0.015625)"/>
      <path id="DejaVuSans-63" d="M 3122 3366 
L 3122 2828 
Q 2878 2963 2633 3030 
Q 2388 3097 2138 3097 
Q 1578 3097 1268 2742 
Q 959 2388 959 1747 
Q 959 1106 1268 751 
Q 1578 397 2138 397 
Q 2388 397 2633 464 
Q 2878 531 3122 666 
L 3122 134 
Q 2881 22 2623 -34 
Q 2366 -91 2075 -91 
Q 1284 -91 818 406 
Q 353 903 353 1747 
Q 353 2603 823 3093 
Q 1294 3584 2113 3584 
Q 2378 3584 2631 3529 
Q 2884 3475 3122 3366 
z
" transform="scale(0.015625)"/>
      <path id="DejaVuSans-47" d="M 3809 666 
L 3809 1919 
L 2778 1919 
L 2778 2438 
L 4434 2438 
L 4434 434 
Q 4069 175 3628 42 
Q 3188 -91 2688 -91 
Q 1594 -91 976 548 
Q 359 1188 359 2328 
Q 359 3472 976 4111 
Q 1594 4750 2688 4750 
Q 3144 4750 3555 4637 
Q 3966 4525 4313 4306 
L 4313 3634 
Q 3963 3931 3569 4081 
Q 3175 4231 2741 4231 
Q 1884 4231 1454 3753 
Q 1025 3275 1025 2328 
Q 1025 1384 1454 906 
Q 1884 428 2741 428 
Q 3075 428 3337 486 
Q 3600 544 3809 666 
z
" transform="scale(0.015625)"/>
     </defs>
     <use xlink:href="#DejaVuSans-53"/>
     <use xlink:href="#DejaVuSans-65" x="63.476562"/>
     <use xlink:href="#DejaVuSans-6d" x="125"/>
     <use xlink:href="#DejaVuSans-69" x="222.412109"/>
     <use xlink:href="#DejaVuSans-63" x="250.195312"/>
     <use xlink:href="#DejaVuSans-69" x="305.175781"/>
     <use xlink:href="#DejaVuSans-72" x="332.958984"/>
     <use xlink:href="#DejaVuSans-63" x="371.822266"/>
     <use xlink:href="#DejaVuSans-75" x="426.802734"/>
     <use xlink:href="#DejaVuSans-6c" x="490.181641"/>
     <use xlink:href="#DejaVuSans-61" x="517.964844"/>
     <use xlink:href="#DejaVuSans-72" x="579.244141"/>
     <use xlink:href="#DejaVuSans-20" x="620.357422"/>
     <use xlink:href="#DejaVuSans-47" x="652.144531"/>
     <use xlink:href="#DejaVuSans-6c" x="729.634766"/>
     <use xlink:href="#DejaVuSans-61" x="757.417969"/>
     <use xlink:href="#DejaVuSans-73" x="818.697266"/>
     <use xlink:href="#DejaVuSans-73" x="870.796875"/>
    </g>
   </g>
   <g id="text_5">
    <!-- $\theta_i$ -->
    <g style="fill: #1f77b4" transform="translate(482.403422 229.84759) scale(0.12 -0.12)">
     <defs>
      <path id="DejaVuSans-Oblique-3b8" d="M 2913 2219 
L 925 2219 
Q 791 1284 928 888 
Q 1100 400 1566 400 
Q 2034 400 2391 891 
Q 2703 1322 2913 2219 
z
M 3009 2750 
Q 3094 3638 2984 3950 
Q 2813 4444 2353 4444 
Q 1875 4444 1525 3956 
Q 1250 3563 1034 2750 
L 3009 2750 
z
M 2444 4913 
Q 3194 4913 3494 4250 
Q 3794 3591 3566 2422 
Q 3341 1256 2781 594 
Q 2225 -72 1475 -72 
Q 722 -72 425 594 
Q 128 1256 353 2422 
Q 581 3591 1134 4250 
Q 1691 4913 2444 4913 
z
" transform="scale(0.015625)"/>
      <path id="DejaVuSans-Oblique-69" d="M 1172 4863 
L 1747 4863 
L 1606 4134 
L 1031 4134 
L 1172 4863 
z
M 909 3500 
L 1484 3500 
L 800 0 
L 225 0 
L 909 3500 
z
" transform="scale(0.015625)"/>
     </defs>
     <use xlink:href="#DejaVuSans-Oblique-3b8" transform="translate(0 0.234375)"/>
     <use xlink:href="#DejaVuSans-Oblique-69" transform="translate(61.181641 -16.171875) scale(0.7)"/>
    </g>
   </g>
   <g id="text_6">
    <!-- $\theta_t$ -->
    <g style="fill: #2ca02c" transform="translate(404.342398 204.367533) scale(0.12 -0.12)">
     <defs>
      <path id="DejaVuSans-Oblique-74" d="M 2706 3500 
L 2619 3053 
L 1472 3053 
L 1100 1153 
Q 1081 1047 1072 975 
Q 1063 903 1063 863 
Q 1063 663 1183 572 
Q 1303 481 1569 481 
L 2150 481 
L 2053 0 
L 1503 0 
Q 991 0 739 200 
Q 488 400 488 806 
Q 488 878 497 964 
Q 506 1050 525 1153 
L 897 3053 
L 409 3053 
L 500 3500 
L 978 3500 
L 1172 4494 
L 1747 4494 
L 1556 3500 
L 2706 3500 
z
" transform="scale(0.015625)"/>
     </defs>
     <use xlink:href="#DejaVuSans-Oblique-3b8" transform="translate(0 0.234375)"/>
     <use xlink:href="#DejaVuSans-Oblique-74" transform="translate(61.181641 -16.171875) scale(0.7)"/>
    </g>
   </g>
   <g id="text_7">
    <!-- Collimating Lens -->
    <g transform="translate(493.922492 262.293767) scale(0.07 -0.07)">
     <defs>
      <path id="DejaVuSans-43" d="M 4122 4306 
L 4122 3641 
Q 3803 3938 3442 4084 
Q 3081 4231 2675 4231 
Q 1875 4231 1450 3742 
Q 1025 3253 1025 2328 
Q 1025 1406 1450 917 
Q 1875 428 2675 428 
Q 3081 428 3442 575 
Q 3803 722 4122 1019 
L 4122 359 
Q 3791 134 3420 21 
Q 3050 -91 2638 -91 
Q 1578 -91 968 557 
Q 359 1206 359 2328 
Q 359 3453 968 4101 
Q 1578 4750 2638 4750 
Q 3056 4750 3426 4639 
Q 3797 4528 4122 4306 
z
" transform="scale(0.015625)"/>
     </defs>
     <use xlink:href="#DejaVuSans-43"/>
     <use xlink:href="#DejaVuSans-6f" x="69.824219"/>
     <use xlink:href="#DejaVuSans-6c" x="131.005859"/>
     <use xlink:href="#DejaVuSans-6c" x="158.789062"/>
     <use xlink:href="#DejaVuSans-69" x="186.572266"/>
     <use xlink:href="#DejaVuSans-6d" x="214.355469"/>
     <use xlink:href="#DejaVuSans-61" x="311.767578"/>
     <use xlink:href="#DejaVuSans-74" x="373.046875"/>
     <use xlink:href="#DejaVuSans-69" x="412.255859"/>
     <use xlink:href="#DejaVuSans-6e" x="440.039062"/>
     <use xlink:href="#DejaVuSans-67" x="503.417969"/>
     <use xlink:href="#DejaVuSans-20" x="566.894531"/>
     <use xlink:href="#DejaVuSans-4c" x="598.681641"/>
     <use xlink:href="#DejaVuSans-65" x="652.644531"/>
     <use xlink:href="#DejaVuSans-6e" x="714.167969"/>
     <use xlink:href="#DejaVuSans-73" x="777.546875"/>
    </g>
   </g>
   <g id="text_8">
    <!-- Last Polarizer -->
    <g transform="translate(516.090656 192.60139) scale(0.08 -0.08)">
     <use xlink:href="#DejaVuSans-4c"/>
     <use xlink:href="#DejaVuSans-61" x="55.712891"/>
     <use xlink:href="#DejaVuSans-73" x="116.992188"/>
     <use xlink:href="#DejaVuSans-74" x="169.091797"/>
     <use xlink:href="#DejaVuSans-20" x="208.300781"/>
     <use xlink:href="#DejaVuSans-50" x="240.087891"/>
     <use xlink:href="#DejaVuSans-6f" x="296.765625"/>
     <use xlink:href="#DejaVuSans-6c" x="357.947266"/>
     <use xlink:href="#DejaVuSans-61" x="385.730469"/>
     <use xlink:href="#DejaVuSans-72" x="447.009766"/>
     <use xlink:href="#DejaVuSans-69" x="488.123047"/>
     <use xlink:href="#DejaVuSans-7a" x="515.90625"/>
     <use xlink:href="#DejaVuSans-65" x="568.396484"/>
     <use xlink:href="#DejaVuSans-72" x="629.919922"/>
    </g>
    <!--  choosing $s$ or $p$ -->
    <g transform="translate(511.211281 201.56114) scale(0.08 -0.08)">
     <use xlink:href="#DejaVuSans-20" transform="translate(0 0.015625)"/>
     <use xlink:href="#DejaVuSans-63" transform="translate(31.787109 0.015625)"/>
     <use xlink:href="#DejaVuSans-68" transform="translate(86.767578 0.015625)"/>
     <use xlink:href="#DejaVuSans-6f" transform="translate(150.146484 0.015625)"/>
     <use xlink:href="#DejaVuSans-6f" transform="translate(211.328125 0.015625)"/>
     <use xlink:href="#DejaVuSans-73" transform="translate(272.509766 0.015625)"/>
     <use xlink:href="#DejaVuSans-69" transform="translate(324.609375 0.015625)"/>
     <use xlink:href="#DejaVuSans-6e" transform="translate(352.392578 0.015625)"/>
     <use xlink:href="#DejaVuSans-67" transform="translate(415.771484 0.015625)"/>
     <use xlink:href="#DejaVuSans-20" transform="translate(479.248047 0.015625)"/>
     <use xlink:href="#DejaVuSans-Oblique-73" transform="translate(511.035156 0.015625)"/>
     <use xlink:href="#DejaVuSans-20" transform="translate(563.134766 0.015625)"/>
     <use xlink:href="#DejaVuSans-6f" transform="translate(594.921875 0.015625)"/>
     <use xlink:href="#DejaVuSans-72" transform="translate(656.103516 0.015625)"/>
     <use xlink:href="#DejaVuSans-20" transform="translate(697.216797 0.015625)"/>
     <use xlink:href="#DejaVuSans-Oblique-70" transform="translate(729.003906 0.015625)"/>
    </g>
   </g>
   <g id="text_9">
    <!-- FotoDet -->
    <g transform="translate(568.144459 240.742933) scale(0.08 -0.08)">
     <defs>
      <path id="DejaVuSans-46" d="M 628 4666 
L 3309 4666 
L 3309 4134 
L 1259 4134 
L 1259 2759 
L 3109 2759 
L 3109 2228 
L 1259 2228 
L 1259 0 
L 628 0 
L 628 4666 
z
" transform="scale(0.015625)"/>
      <path id="DejaVuSans-44" d="M 1259 4147 
L 1259 519 
L 2022 519 
Q 2988 519 3436 956 
Q 3884 1394 3884 2338 
Q 3884 3275 3436 3711 
Q 2988 4147 2022 4147 
L 1259 4147 
z
M 628 4666 
L 1925 4666 
Q 3281 4666 3915 4102 
Q 4550 3538 4550 2338 
Q 4550 1131 3912 565 
Q 3275 0 1925 0 
L 628 0 
L 628 4666 
z
" transform="scale(0.015625)"/>
     </defs>
     <use xlink:href="#DejaVuSans-46"/>
     <use xlink:href="#DejaVuSans-6f" x="53.894531"/>
     <use xlink:href="#DejaVuSans-74" x="115.076172"/>
     <use xlink:href="#DejaVuSans-6f" x="154.285156"/>
     <use xlink:href="#DejaVuSans-44" x="215.466797"/>
     <use xlink:href="#DejaVuSans-65" x="292.46875"/>
     <use xlink:href="#DejaVuSans-74" x="353.992188"/>
    </g>
   </g>
   <g id="text_10">
    <!-- $\theta_r$ -->
    <g style="fill: #17becf" transform="translate(425.605814 173.952934) scale(0.12 -0.12)">
     <defs>
      <path id="DejaVuSans-Oblique-72" d="M 2853 2969 
Q 2766 3016 2653 3041 
Q 2541 3066 2413 3066 
Q 1953 3066 1609 2717 
Q 1266 2369 1153 1784 
L 800 0 
L 225 0 
L 909 3500 
L 1484 3500 
L 1375 2956 
Q 1603 3259 1920 3421 
Q 2238 3584 2597 3584 
Q 2691 3584 2781 3573 
Q 2872 3563 2963 3538 
L 2853 2969 
z
" transform="scale(0.015625)"/>
     </defs>
     <use xlink:href="#DejaVuSans-Oblique-3b8" transform="translate(0 0.234375)"/>
     <use xlink:href="#DejaVuSans-Oblique-72" transform="translate(61.181641 -16.171875) scale(0.7)"/>
    </g>
   </g>
   <g id="line2d_35">
    <path d="M 564.184537 240.496633 
L 560.928713 239.809052 
" clip-path="url(#p05a968d69b)" style="fill: none; stroke: #000000; stroke-width: 1.5; stroke-linecap: square"/>
   </g>
   <g id="line2d_36">
    <path d="M 564.876584 237.261815 
L 561.62076 236.574233 
" clip-path="url(#p05a968d69b)" style="fill: none; stroke: #000000; stroke-width: 1.5; stroke-linecap: square"/>
   </g>
   <g id="PolyCollection_1">
    <defs>
     <path id="mda85842074" d="M 564.184537 -187.935036 
L 564.184537 -184.700217 
L 560.928713 -185.387799 
L 560.928713 -188.622618 
L 560.928713 -188.622618 
L 564.184537 -187.935036 
z
" style="stroke: #000000"/>
    </defs>
    <g clip-path="url(#p05a968d69b)">
     <use xlink:href="#mda85842074" x="0" y="425.19685" style="stroke: #000000"/>
    </g>
   </g>
  </g>
 </g>
 <defs>
  <clipPath id="p05a968d69b">
   <rect x="88.582677" y="51.023622" width="549.212598" height="327.401575"/>
  </clipPath>
 </defs>
</svg>
