<?xml version="1.0" encoding="utf-8" standalone="no"?>
<!DOCTYPE svg PUBLIC "-//W3C//DTD SVG 1.1//EN"
  "http://www.w3.org/Graphics/SVG/1.1/DTD/svg11.dtd">
<svg xmlns:xlink="http://www.w3.org/1999/xlink" width="864pt" height="432pt" viewBox="0 0 864 432" xmlns="http://www.w3.org/2000/svg" version="1.1">
 <metadata>
  <rdf:RDF xmlns:dc="http://purl.org/dc/elements/1.1/" xmlns:cc="http://creativecommons.org/ns#" xmlns:rdf="http://www.w3.org/1999/02/22-rdf-syntax-ns#">
   <cc:Work>
    <dc:type rdf:resource="http://purl.org/dc/dcmitype/StillImage"/>
    <dc:date>2026-03-12T08:40:14.439950</dc:date>
    <dc:format>image/svg+xml</dc:format>
    <dc:creator>
     <cc:Agent>
      <dc:title>Matplotlib v3.9.2, https://matplotlib.org/</dc:title>
     </cc:Agent>
    </dc:creator>
   </cc:Work>
  </rdf:RDF>
 </metadata>
 <defs>
  <style type="text/css">*{stroke-linejoin: round; stroke-linecap: butt}</style>
 </defs>
 <g id="figure_1">
  <g id="patch_1">
   <path d="M 0 432 
L 864 432 
L 864 0 
L 0 0 
z
" style="fill: #ffffff"/>
  </g>
  <g id="axes_1">
   <g id="patch_2">
    <path d="M 65.509683 369.725865 
L 443.154841 369.725865 
L 443.154841 111.635611 
L 65.509683 111.635611 
z
" style="fill: #ffffff"/>
   </g>
   <g id="matplotlib.axis_1">
    <g id="xtick_1">
     <g id="text_1">
      <!-- $\mathdefault{0}$ -->
      <g transform="translate(76.586615 383.60359) scale(0.15 -0.15)">
       <defs>
        <path id="CMR17-30" d="M 2688 2025 
C 2688 2416 2682 3080 2413 3591 
C 2176 4039 1798 4198 1466 4198 
C 1158 4198 768 4058 525 3597 
C 269 3118 243 2524 243 2025 
C 243 1661 250 1106 448 619 
C 723 -39 1216 -128 1466 -128 
C 1760 -128 2208 -7 2470 600 
C 2662 1042 2688 1559 2688 2025 
z
M 1466 -26 
C 1056 -26 813 325 723 812 
C 653 1188 653 1738 653 2096 
C 653 2588 653 2997 736 3387 
C 858 3929 1216 4096 1466 4096 
C 1728 4096 2067 3923 2189 3400 
C 2272 3036 2278 2607 2278 2096 
C 2278 1680 2278 1169 2202 792 
C 2067 95 1690 -26 1466 -26 
z
" transform="scale(0.015625)"/>
       </defs>
       <use xlink:href="#CMR17-30" transform="scale(0.996264)"/>
      </g>
     </g>
    </g>
    <g id="xtick_2">
     <g id="text_2">
      <!-- $\mathdefault{20}$ -->
      <g transform="translate(157.773752 383.60359) scale(0.15 -0.15)">
       <defs>
        <path id="CMR17-32" d="M 2669 989 
L 2554 989 
C 2490 536 2438 459 2413 420 
C 2381 369 1920 369 1830 369 
L 602 369 
C 832 619 1280 1072 1824 1597 
C 2214 1967 2669 2402 2669 3035 
C 2669 3790 2067 4224 1395 4224 
C 691 4224 262 3604 262 3030 
C 262 2780 448 2748 525 2748 
C 589 2748 781 2787 781 3010 
C 781 3207 614 3264 525 3264 
C 486 3264 448 3258 422 3245 
C 544 3790 915 4058 1306 4058 
C 1862 4058 2227 3617 2227 3035 
C 2227 2479 1901 2000 1536 1584 
L 262 146 
L 262 0 
L 2515 0 
L 2669 989 
z
" transform="scale(0.015625)"/>
       </defs>
       <use xlink:href="#CMR17-32" transform="scale(0.996264)"/>
       <use xlink:href="#CMR17-30" transform="translate(45.690477 0) scale(0.996264)"/>
      </g>
     </g>
    </g>
    <g id="xtick_3">
     <g id="text_3">
      <!-- $\mathdefault{40}$ -->
      <g transform="translate(242.619008 383.60359) scale(0.15 -0.15)">
       <defs>
        <path id="CMR17-34" d="M 2150 4122 
C 2150 4256 2144 4256 2029 4256 
L 128 1254 
L 128 1088 
L 1779 1088 
L 1779 457 
C 1779 224 1766 160 1318 160 
L 1197 160 
L 1197 0 
C 1402 0 1747 0 1965 0 
C 2182 0 2528 0 2733 0 
L 2733 160 
L 2611 160 
C 2163 160 2150 224 2150 457 
L 2150 1088 
L 2803 1088 
L 2803 1254 
L 2150 1254 
L 2150 4122 
z
M 1798 3703 
L 1798 1254 
L 256 1254 
L 1798 3703 
z
" transform="scale(0.015625)"/>
       </defs>
       <use xlink:href="#CMR17-34" transform="scale(0.996264)"/>
       <use xlink:href="#CMR17-30" transform="translate(45.690477 0) scale(0.996264)"/>
      </g>
     </g>
    </g>
    <g id="xtick_4">
     <g id="text_4">
      <!-- $\mathdefault{60}$ -->
      <g transform="translate(327.464264 383.60359) scale(0.15 -0.15)">
       <defs>
        <path id="CMR17-36" d="M 678 2176 
C 678 3690 1395 4032 1811 4032 
C 1946 4032 2272 4009 2400 3776 
C 2298 3776 2106 3776 2106 3553 
C 2106 3381 2246 3323 2336 3323 
C 2394 3323 2566 3348 2566 3560 
C 2566 3954 2246 4179 1805 4179 
C 1043 4179 243 3390 243 1984 
C 243 253 966 -128 1478 -128 
C 2099 -128 2688 427 2688 1283 
C 2688 2081 2170 2662 1517 2662 
C 1126 2662 838 2407 678 1960 
L 678 2176 
z
M 1478 25 
C 691 25 691 1200 691 1436 
C 691 1896 909 2560 1504 2560 
C 1613 2560 1926 2560 2138 2120 
C 2253 1870 2253 1609 2253 1289 
C 2253 944 2253 690 2118 434 
C 1978 171 1773 25 1478 25 
z
" transform="scale(0.015625)"/>
       </defs>
       <use xlink:href="#CMR17-36" transform="scale(0.996264)"/>
       <use xlink:href="#CMR17-30" transform="translate(45.690477 0) scale(0.996264)"/>
      </g>
     </g>
    </g>
    <g id="xtick_5">
     <g id="text_5">
      <!-- $\mathdefault{80}$ -->
      <g transform="translate(412.30952 383.60359) scale(0.15 -0.15)">
       <defs>
        <path id="CMR17-38" d="M 1741 2264 
C 2144 2467 2554 2773 2554 3263 
C 2554 3841 1990 4179 1472 4179 
C 890 4179 378 3759 378 3180 
C 378 3021 416 2747 666 2505 
C 730 2442 998 2251 1171 2130 
C 883 1983 211 1634 211 934 
C 211 279 838 -128 1459 -128 
C 2144 -128 2720 362 2720 1010 
C 2720 1590 2330 1857 2074 2029 
L 1741 2264 
z
M 902 2822 
C 851 2854 595 3051 595 3351 
C 595 3739 998 4032 1459 4032 
C 1965 4032 2336 3676 2336 3262 
C 2336 2669 1670 2331 1638 2331 
C 1632 2331 1626 2331 1574 2370 
L 902 2822 
z
M 2080 1519 
C 2176 1449 2483 1240 2483 851 
C 2483 381 2010 25 1472 25 
C 890 25 448 438 448 940 
C 448 1443 838 1862 1280 2060 
L 2080 1519 
z
" transform="scale(0.015625)"/>
       </defs>
       <use xlink:href="#CMR17-38" transform="scale(0.996264)"/>
       <use xlink:href="#CMR17-30" transform="translate(45.690477 0) scale(0.996264)"/>
      </g>
     </g>
    </g>
    <g id="text_6">
     <!-- $\theta_1$ [Degrees] -->
     <g transform="translate(207.278892 405.435356) scale(0.2 -0.2)">
      <defs>
       <path id="CMMI12-12" d="M 2835 3200 
C 2835 3850 2630 4480 2106 4480 
C 1210 4480 256 2615 256 1216 
C 256 923 320 -64 992 -64 
C 1862 -64 2835 1756 2835 3200 
z
M 896 2304 
C 992 2679 1126 3214 1382 3665 
C 1594 4047 1818 4352 2099 4352 
C 2310 4352 2451 4174 2451 3564 
C 2451 3334 2432 3017 2246 2304 
L 896 2304 
z
M 2202 2113 
C 2042 1490 1907 1088 1677 687 
C 1491 363 1267 64 998 64 
C 800 64 640 217 640 846 
C 640 1260 742 1693 845 2113 
L 2202 2113 
z
" transform="scale(0.015625)"/>
       <path id="CMR17-31" d="M 1702 4058 
C 1702 4192 1696 4192 1606 4192 
C 1357 3916 979 3827 621 3827 
C 602 3827 570 3827 563 3808 
C 557 3795 557 3782 557 3648 
C 755 3648 1088 3686 1344 3839 
L 1344 461 
C 1344 236 1331 160 781 160 
L 589 160 
L 589 0 
C 896 0 1216 0 1523 0 
C 1830 0 2150 0 2458 0 
L 2458 160 
L 2266 160 
C 1715 160 1702 230 1702 458 
L 1702 4058 
z
" transform="scale(0.015625)"/>
       <path id="CMR17-5b" d="M 1504 -1600 
L 1504 -1377 
L 902 -1377 
L 902 4544 
L 1504 4544 
L 1504 4767 
L 678 4767 
L 678 -1600 
L 1504 -1600 
z
" transform="scale(0.015625)"/>
       <path id="CMR17-44" d="M 333 4352 
L 333 4186 
C 774 4186 845 4186 845 3900 
L 845 452 
C 845 166 774 166 333 166 
L 333 0 
L 2368 0 
C 3398 0 4224 943 4224 2141 
C 4224 3346 3411 4352 2368 4352 
L 333 4352 
z
M 1523 166 
C 1267 166 1254 197 1254 414 
L 1254 3938 
C 1254 4155 1267 4186 1523 4186 
L 2240 4186 
C 2771 4186 3750 3874 3750 2141 
C 3750 1242 3488 879 3366 707 
C 3213 510 2848 166 2240 166 
L 1523 166 
z
" transform="scale(0.015625)"/>
       <path id="CMR17-65" d="M 2438 1472 
C 2464 1498 2464 1511 2464 1576 
C 2464 2238 2118 2816 1389 2816 
C 710 2816 173 2169 173 1383 
C 173 551 781 -64 1459 -64 
C 2176 -64 2458 607 2458 740 
C 2458 784 2419 784 2406 784 
C 2362 784 2355 771 2330 696 
C 2189 265 1837 51 1504 51 
C 1229 51 954 203 781 480 
C 582 803 582 1176 582 1472 
L 2438 1472 
z
M 589 1568 
C 634 2505 1126 2714 1382 2714 
C 1818 2714 2112 2297 2118 1568 
L 589 1568 
z
" transform="scale(0.015625)"/>
       <path id="CMR17-67" d="M 710 1164 
C 832 1068 1043 960 1299 960 
C 1805 960 2240 1357 2240 1888 
C 2240 2054 2189 2310 1997 2509 
C 2176 2692 2438 2752 2586 2752 
C 2611 2752 2650 2752 2682 2734 
C 2656 2728 2598 2703 2598 2605 
C 2598 2527 2656 2471 2739 2471 
C 2835 2471 2886 2533 2886 2614 
C 2886 2731 2790 2854 2586 2854 
C 2330 2854 2106 2738 1926 2580 
C 1734 2753 1504 2816 1299 2816 
C 794 2816 358 2419 358 1888 
C 358 1522 570 1292 634 1228 
C 442 1004 442 743 442 711 
C 442 545 506 302 723 168 
C 390 85 128 -169 128 -486 
C 128 -943 736 -1280 1466 -1280 
C 2170 -1280 2803 -956 2803 -479 
C 2803 384 1856 384 1363 384 
C 1216 384 954 384 922 391 
C 723 423 589 602 589 826 
C 589 883 589 1024 710 1164 
z
M 1299 1068 
C 736 1068 736 1760 736 1889 
C 736 2016 736 2708 1299 2708 
C 1862 2708 1862 2016 1862 1889 
C 1862 1760 1862 1068 1299 1068 
z
M 1466 -1171 
C 826 -1171 384 -835 384 -486 
C 384 -289 493 -105 634 -4 
C 794 104 858 104 1293 104 
C 1818 104 2547 104 2547 -486 
C 2547 -835 2106 -1171 1466 -1171 
z
" transform="scale(0.015625)"/>
       <path id="CMR17-72" d="M 960 1497 
C 960 2112 1222 2688 1702 2688 
C 1747 2688 1792 2682 1837 2662 
C 1837 2662 1696 2617 1696 2452 
C 1696 2298 1818 2234 1914 2234 
C 1990 2234 2131 2279 2131 2458 
C 2131 2663 1926 2790 1709 2790 
C 1222 2790 1011 2317 947 2093 
L 941 2093 
L 941 2790 
L 198 2720 
L 198 2554 
C 576 2554 634 2515 634 2208 
L 634 428 
C 634 184 608 153 198 153 
L 198 -13 
C 352 0 646 0 813 0 
C 998 0 1325 0 1498 -13 
L 1498 153 
C 1037 153 960 153 960 440 
L 960 1497 
z
" transform="scale(0.015625)"/>
       <path id="CMR17-73" d="M 1978 2697 
C 1978 2813 1971 2819 1933 2819 
C 1907 2819 1901 2813 1824 2717 
C 1805 2691 1747 2626 1728 2601 
C 1523 2819 1235 2819 1126 2819 
C 416 2819 160 2447 160 2076 
C 160 1498 813 1365 998 1325 
C 1402 1243 1542 1217 1677 1101 
C 1760 1025 1901 884 1901 654 
C 1901 384 1747 38 1158 38 
C 602 38 403 460 288 1021 
C 269 1110 269 1117 218 1117 
C 166 1117 160 1110 160 983 
L 160 63 
C 160 -51 166 -58 205 -58 
C 237 -58 243 -51 275 0 
C 314 57 410 211 448 276 
C 576 103 800 -64 1158 -64 
C 1792 -64 2131 283 2131 784 
C 2131 1112 1958 1285 1875 1362 
C 1683 1561 1459 1606 1190 1657 
C 838 1735 390 1825 390 2217 
C 390 2383 480 2737 1126 2737 
C 1811 2737 1850 2094 1862 1888 
C 1869 1856 1901 1849 1920 1849 
C 1978 1849 1978 1869 1978 1978 
L 1978 2697 
z
" transform="scale(0.015625)"/>
       <path id="CMR17-5d" d="M 915 4767 
L 90 4767 
L 90 4544 
L 691 4544 
L 691 -1377 
L 90 -1377 
L 90 -1600 
L 915 -1600 
L 915 4767 
z
" transform="scale(0.015625)"/>
      </defs>
      <use xlink:href="#CMMI12-12" transform="scale(0.996264)"/>
      <use xlink:href="#CMR17-31" transform="translate(45.45979 -14.943915) scale(0.697382)"/>
      <use xlink:href="#CMR17-5b" transform="translate(108.01707 0) scale(0.996264)"/>
      <use xlink:href="#CMR17-44" transform="translate(132.888129 0) scale(0.996264)"/>
      <use xlink:href="#CMR17-65" transform="translate(203.281685 0) scale(0.996264)"/>
      <use xlink:href="#CMR17-67" transform="translate(243.767345 0) scale(0.996264)"/>
      <use xlink:href="#CMR17-72" transform="translate(289.457822 0) scale(0.996264)"/>
      <use xlink:href="#CMR17-65" transform="translate(324.73859 0) scale(0.996264)"/>
      <use xlink:href="#CMR17-65" transform="translate(365.224251 0) scale(0.996264)"/>
      <use xlink:href="#CMR17-73" transform="translate(405.709911 0) scale(0.996264)"/>
      <use xlink:href="#CMR17-5d" transform="translate(441.511249 0) scale(0.996264)"/>
     </g>
    </g>
   </g>
   <g id="matplotlib.axis_2">
    <g id="ytick_1">
     <g id="text_7">
      <!-- $\mathdefault{0.0}$ -->
      <g transform="translate(43.31263 363.178524) scale(0.15 -0.15)">
       <defs>
        <path id="CMMI12-3a" d="M 1178 307 
C 1178 492 1024 619 870 619 
C 685 619 557 466 557 313 
C 557 128 710 0 864 0 
C 1050 0 1178 153 1178 307 
z
" transform="scale(0.015625)"/>
       </defs>
       <use xlink:href="#CMR17-30" transform="scale(0.996264)"/>
       <use xlink:href="#CMMI12-3a" transform="translate(45.690477 0) scale(0.996264)"/>
       <use xlink:href="#CMR17-30" transform="translate(72.787654 0) scale(0.996264)"/>
      </g>
     </g>
    </g>
    <g id="ytick_2">
     <g id="text_8">
      <!-- $\mathdefault{0.2}$ -->
      <g transform="translate(43.31263 316.254954) scale(0.15 -0.15)">
       <use xlink:href="#CMR17-30" transform="scale(0.996264)"/>
       <use xlink:href="#CMMI12-3a" transform="translate(45.690477 0) scale(0.996264)"/>
       <use xlink:href="#CMR17-32" transform="translate(72.787654 0) scale(0.996264)"/>
      </g>
     </g>
    </g>
    <g id="ytick_3">
     <g id="text_9">
      <!-- $\mathdefault{0.4}$ -->
      <g transform="translate(43.31263 269.331385) scale(0.15 -0.15)">
       <use xlink:href="#CMR17-30" transform="scale(0.996264)"/>
       <use xlink:href="#CMMI12-3a" transform="translate(45.690477 0) scale(0.996264)"/>
       <use xlink:href="#CMR17-34" transform="translate(72.787654 0) scale(0.996264)"/>
      </g>
     </g>
    </g>
    <g id="ytick_4">
     <g id="text_10">
      <!-- $\mathdefault{0.6}$ -->
      <g transform="translate(43.31263 222.407816) scale(0.15 -0.15)">
       <use xlink:href="#CMR17-30" transform="scale(0.996264)"/>
       <use xlink:href="#CMMI12-3a" transform="translate(45.690477 0) scale(0.996264)"/>
       <use xlink:href="#CMR17-36" transform="translate(72.787654 0) scale(0.996264)"/>
      </g>
     </g>
    </g>
    <g id="ytick_5">
     <g id="text_11">
      <!-- $\mathdefault{0.8}$ -->
      <g transform="translate(43.31263 175.484247) scale(0.15 -0.15)">
       <use xlink:href="#CMR17-30" transform="scale(0.996264)"/>
       <use xlink:href="#CMMI12-3a" transform="translate(45.690477 0) scale(0.996264)"/>
       <use xlink:href="#CMR17-38" transform="translate(72.787654 0) scale(0.996264)"/>
      </g>
     </g>
    </g>
    <g id="ytick_6">
     <g id="text_12">
      <!-- $\mathdefault{1.0}$ -->
      <g transform="translate(43.31263 128.560677) scale(0.15 -0.15)">
       <use xlink:href="#CMR17-31" transform="scale(0.996264)"/>
       <use xlink:href="#CMMI12-3a" transform="translate(45.690477 0) scale(0.996264)"/>
       <use xlink:href="#CMR17-30" transform="translate(72.787654 0) scale(0.996264)"/>
      </g>
     </g>
    </g>
    <g id="text_13">
     <!-- Relative Intensity -->
     <g transform="translate(35.436997 311.12858) rotate(-90) scale(0.2 -0.2)">
      <defs>
       <path id="CMR17-52" d="M 2509 2146 
C 3117 2268 3629 2676 3629 3186 
C 3629 3785 2950 4326 2054 4326 
L 333 4326 
L 333 4160 
C 774 4160 845 4160 845 3873 
L 845 415 
C 845 128 774 128 333 128 
L 333 -26 
C 518 -26 851 -26 1050 -26 
C 1248 -26 1581 -26 1766 -26 
L 1766 128 
C 1325 128 1254 128 1254 417 
L 1254 2112 
L 2003 2112 
C 2368 2112 2573 1964 2662 1881 
C 2918 1632 2918 1459 2918 1024 
C 2918 595 2918 377 3110 160 
C 3354 -102 3680 -128 3821 -128 
C 4294 -128 4365 396 4365 503 
C 4365 540 4365 585 4307 585 
C 4256 585 4250 547 4250 522 
C 4218 112 4032 -26 3834 -26 
C 3482 -26 3443 375 3405 764 
C 3386 898 3373 993 3360 1133 
C 3322 1452 3270 1917 2509 2146 
z
M 1984 2214 
L 1254 2214 
L 1254 3913 
C 1254 4129 1267 4160 1523 4160 
L 1990 4160 
C 2522 4160 3142 3977 3142 3190 
C 3142 2372 2464 2214 1984 2214 
z
" transform="scale(0.015625)"/>
       <path id="CMR17-6c" d="M 979 4396 
L 218 4326 
L 218 4160 
C 595 4160 653 4122 653 3817 
L 653 426 
C 653 184 627 153 218 153 
L 218 -13 
C 371 0 653 0 813 0 
C 979 0 1261 0 1414 -13 
L 1414 153 
C 1005 153 979 178 979 426 
L 979 4396 
z
" transform="scale(0.015625)"/>
       <path id="CMR17-61" d="M 2304 1653 
C 2304 2072 2304 2294 2035 2543 
C 1798 2752 1523 2816 1306 2816 
C 800 2816 435 2407 435 1971 
C 435 1728 627 1728 666 1728 
C 749 1728 896 1778 896 1954 
C 896 2112 774 2181 666 2181 
C 640 2181 608 2174 589 2168 
C 723 2592 1069 2714 1293 2714 
C 1613 2714 1965 2429 1965 1885 
L 1965 1600 
C 1587 1600 1133 1549 774 1357 
C 371 1133 256 813 256 570 
C 256 77 832 -64 1171 -64 
C 1523 -64 1850 139 1990 511 
C 2003 233 2182 -18 2464 -18 
C 2598 -18 2938 70 2938 567 
L 2938 920 
L 2822 920 
L 2822 562 
C 2822 178 2650 128 2566 128 
C 2304 128 2304 458 2304 738 
L 2304 1653 
z
M 1965 870 
C 1965 317 1568 38 1216 38 
C 896 38 646 275 646 570 
C 646 761 730 1100 1101 1305 
C 1408 1478 1760 1504 1965 1504 
L 1965 870 
z
" transform="scale(0.015625)"/>
       <path id="CMR17-74" d="M 966 2560 
L 1862 2560 
L 1862 2725 
L 966 2725 
L 966 3904 
L 851 3904 
C 838 3245 614 2668 70 2668 
L 70 2560 
L 627 2560 
L 627 771 
C 627 650 627 -64 1370 -64 
C 1747 -64 1965 306 1965 777 
L 1965 1140 
L 1850 1140 
L 1850 783 
C 1850 344 1677 51 1408 51 
C 1222 51 966 178 966 758 
L 966 2560 
z
" transform="scale(0.015625)"/>
       <path id="CMR17-69" d="M 992 3909 
C 992 4049 877 4170 730 4170 
C 589 4170 467 4056 467 3909 
C 467 3769 582 3648 730 3648 
C 870 3648 992 3763 992 3909 
z
M 243 2706 
L 243 2541 
C 602 2541 653 2502 653 2197 
L 653 427 
C 653 184 627 153 218 153 
L 218 -13 
C 371 0 646 0 806 0 
C 960 0 1222 0 1370 -13 
L 1370 153 
C 992 153 979 191 979 420 
L 979 2776 
L 243 2706 
z
" transform="scale(0.015625)"/>
       <path id="CMR17-76" d="M 2502 2163 
C 2560 2304 2662 2560 3034 2560 
L 3034 2726 
C 2912 2726 2752 2726 2630 2726 
C 2496 2726 2285 2726 2157 2732 
L 2157 2566 
C 2317 2553 2406 2477 2406 2311 
C 2406 2253 2406 2240 2368 2151 
L 1664 377 
L 902 2286 
C 864 2369 864 2381 864 2407 
C 864 2560 1075 2560 1171 2560 
L 1171 2732 
C 1018 2726 736 2726 576 2726 
C 403 2726 205 2726 64 2732 
L 64 2560 
C 307 2560 442 2560 518 2362 
L 1446 44 
C 1485 -51 1491 -64 1549 -64 
C 1606 -64 1613 -51 1651 44 
L 2502 2163 
z
" transform="scale(0.015625)"/>
       <path id="CMR17-49" d="M 1261 3905 
C 1261 4192 1338 4192 1798 4192 
L 1798 4352 
C 1594 4352 1267 4352 1050 4352 
C 832 4352 506 4352 301 4352 
L 301 4192 
C 762 4192 838 4192 838 3905 
L 838 447 
C 838 160 762 160 301 160 
L 301 0 
C 506 0 832 0 1050 0 
C 1267 0 1594 0 1798 0 
L 1798 160 
C 1338 160 1261 160 1261 447 
L 1261 3905 
z
" transform="scale(0.015625)"/>
       <path id="CMR17-6e" d="M 2656 1933 
C 2656 2259 2592 2790 1837 2790 
C 1331 2790 1069 2400 973 2144 
L 966 2144 
L 966 2790 
L 211 2720 
L 211 2554 
C 589 2554 646 2515 646 2208 
L 646 428 
C 646 184 621 153 211 153 
L 211 -13 
C 365 0 646 0 813 0 
C 979 0 1267 0 1421 -13 
L 1421 153 
C 1011 153 986 178 986 428 
L 986 1658 
C 986 2247 1344 2688 1792 2688 
C 2266 2688 2317 2266 2317 1958 
L 2317 428 
C 2317 184 2291 153 1882 153 
L 1882 -13 
C 2035 0 2317 0 2483 0 
C 2650 0 2938 0 3091 -13 
L 3091 153 
C 2682 153 2656 178 2656 428 
L 2656 1933 
z
" transform="scale(0.015625)"/>
       <path id="CMR17-79" d="M 2496 2197 
C 2656 2586 2944 2586 3034 2586 
L 3034 2752 
C 2912 2752 2752 2752 2630 2752 
C 2496 2752 2285 2752 2157 2758 
L 2157 2592 
C 2400 2573 2406 2394 2406 2343 
C 2406 2280 2394 2248 2362 2171 
L 1664 449 
L 902 2306 
C 870 2382 870 2426 870 2433 
C 870 2573 1018 2586 1171 2586 
L 1171 2758 
C 1018 2752 742 2752 582 2752 
C 410 2752 205 2752 64 2758 
L 64 2586 
C 410 2586 448 2554 531 2350 
L 1485 15 
C 1197 -738 1030 -1178 627 -1178 
C 557 -1178 397 -1159 282 -1044 
C 429 -1031 493 -942 493 -833 
C 493 -725 416 -629 288 -629 
C 147 -629 77 -725 77 -840 
C 77 -1095 339 -1280 627 -1280 
C 998 -1280 1229 -922 1357 -604 
L 2496 2197 
z
" transform="scale(0.015625)"/>
      </defs>
      <use xlink:href="#CMR17-52" transform="scale(0.996264)"/>
      <use xlink:href="#CMR17-65" transform="translate(67.791102 0) scale(0.996264)"/>
      <use xlink:href="#CMR17-6c" transform="translate(108.276762 0) scale(0.996264)"/>
      <use xlink:href="#CMR17-61" transform="translate(133.147821 0) scale(0.996264)"/>
      <use xlink:href="#CMR17-74" transform="translate(178.838298 0) scale(0.996264)"/>
      <use xlink:href="#CMR17-69" transform="translate(214.119066 0) scale(0.996264)"/>
      <use xlink:href="#CMR17-76" transform="translate(238.990124 0) scale(0.996264)"/>
      <use xlink:href="#CMR17-65" transform="translate(284.680586 0) scale(0.996264)"/>
      <use xlink:href="#CMR17-49" transform="translate(355.242213 0) scale(0.996264)"/>
      <use xlink:href="#CMR17-6e" transform="translate(387.880622 0) scale(0.996264)"/>
      <use xlink:href="#CMR17-74" transform="translate(436.173538 0) scale(0.996264)"/>
      <use xlink:href="#CMR17-65" transform="translate(471.454306 0) scale(0.996264)"/>
      <use xlink:href="#CMR17-6e" transform="translate(511.939966 0) scale(0.996264)"/>
      <use xlink:href="#CMR17-73" transform="translate(562.835336 0) scale(0.996264)"/>
      <use xlink:href="#CMR17-69" transform="translate(598.636674 0) scale(0.996264)"/>
      <use xlink:href="#CMR17-74" transform="translate(623.507732 0) scale(0.996264)"/>
      <use xlink:href="#CMR17-79" transform="translate(656.186046 0) scale(0.996264)"/>
     </g>
    </g>
   </g>
   <g id="LineCollection_1">
    <path clip-path="url(#p15811d7869)" style="fill: none; stroke: #1f77b4; stroke-width: 1.5"/>
    <path clip-path="url(#p15811d7869)" style="fill: none; stroke: #1f77b4; stroke-width: 1.5"/>
    <path d="M 120.015948 123.371815 
L 125.318776 123.371815 
" clip-path="url(#p15811d7869)" style="fill: none; stroke: #1f77b4; stroke-width: 1.5"/>
    <path d="M 140.96212 123.371815 
L 146.795232 123.371815 
" clip-path="url(#p15811d7869)" style="fill: none; stroke: #1f77b4; stroke-width: 1.5"/>
    <path d="M 161.908293 125.87604 
L 168.271687 125.87604 
" clip-path="url(#p15811d7869)" style="fill: none; stroke: #1f77b4; stroke-width: 1.5"/>
    <path d="M 182.854466 131.069422 
L 189.748143 131.069422 
" clip-path="url(#p15811d7869)" style="fill: none; stroke: #1f77b4; stroke-width: 1.5"/>
    <path d="M 203.800638 134.418951 
L 211.224598 134.418951 
" clip-path="url(#p15811d7869)" style="fill: none; stroke: #1f77b4; stroke-width: 1.5"/>
    <path d="M 224.746811 123.371815 
L 232.701053 123.371815 
" clip-path="url(#p15811d7869)" style="fill: none; stroke: #1f77b4; stroke-width: 1.5"/>
    <path d="M 245.692983 166.246861 
L 254.177509 166.246861 
" clip-path="url(#p15811d7869)" style="fill: none; stroke: #1f77b4; stroke-width: 1.5"/>
    <path d="M 266.639156 357.989661 
L 275.653964 357.989661 
" clip-path="url(#p15811d7869)" style="fill: none; stroke: #1f77b4; stroke-width: 1.5"/>
    <path d="M 287.585328 357.989661 
L 297.13042 357.989661 
" clip-path="url(#p15811d7869)" style="fill: none; stroke: #1f77b4; stroke-width: 1.5"/>
    <path d="M 308.531501 357.989661 
L 318.606875 357.989661 
" clip-path="url(#p15811d7869)" style="fill: none; stroke: #1f77b4; stroke-width: 1.5"/>
    <path d="M 329.477674 357.989661 
L 340.083331 357.989661 
" clip-path="url(#p15811d7869)" style="fill: none; stroke: #1f77b4; stroke-width: 1.5"/>
    <path d="M 350.423846 357.989661 
L 361.559786 357.989661 
" clip-path="url(#p15811d7869)" style="fill: none; stroke: #1f77b4; stroke-width: 1.5"/>
    <path d="M 371.370019 357.989661 
L 383.036241 357.989661 
" clip-path="url(#p15811d7869)" style="fill: none; stroke: #1f77b4; stroke-width: 1.5"/>
    <path d="M 392.316191 357.989661 
L 404.512697 357.989661 
" clip-path="url(#p15811d7869)" style="fill: none; stroke: #1f77b4; stroke-width: 1.5"/>
    <path d="M 413.262364 357.989661 
L 425.989152 357.989661 
" clip-path="url(#p15811d7869)" style="fill: none; stroke: #1f77b4; stroke-width: 1.5"/>
   </g>
   <g id="LineCollection_2">
    <path clip-path="url(#p15811d7869)" style="fill: none; stroke: #1f77b4; stroke-width: 1.5"/>
    <path clip-path="url(#p15811d7869)" style="fill: none; stroke: #1f77b4; stroke-width: 1.5"/>
    <path d="M 122.667362 123.371815 
L 122.667362 123.371815 
" clip-path="url(#p15811d7869)" style="fill: none; stroke: #1f77b4; stroke-width: 1.5"/>
    <path d="M 143.878676 123.371815 
L 143.878676 123.371815 
" clip-path="url(#p15811d7869)" style="fill: none; stroke: #1f77b4; stroke-width: 1.5"/>
    <path d="M 165.08999 125.876192 
L 165.08999 125.875888 
" clip-path="url(#p15811d7869)" style="fill: none; stroke: #1f77b4; stroke-width: 1.5"/>
    <path d="M 186.301304 131.074228 
L 186.301304 131.064616 
" clip-path="url(#p15811d7869)" style="fill: none; stroke: #1f77b4; stroke-width: 1.5"/>
    <path d="M 207.512618 134.423176 
L 207.512618 134.414727 
" clip-path="url(#p15811d7869)" style="fill: none; stroke: #1f77b4; stroke-width: 1.5"/>
    <path d="M 228.723932 123.375069 
L 228.723932 123.368561 
" clip-path="url(#p15811d7869)" style="fill: none; stroke: #1f77b4; stroke-width: 1.5"/>
    <path d="M 249.935246 166.250547 
L 249.935246 166.243176 
" clip-path="url(#p15811d7869)" style="fill: none; stroke: #1f77b4; stroke-width: 1.5"/>
    <path d="M 271.14656 357.989661 
L 271.14656 357.989661 
" clip-path="url(#p15811d7869)" style="fill: none; stroke: #1f77b4; stroke-width: 1.5"/>
    <path d="M 292.357874 357.989661 
L 292.357874 357.989661 
" clip-path="url(#p15811d7869)" style="fill: none; stroke: #1f77b4; stroke-width: 1.5"/>
    <path d="M 313.569188 357.989661 
L 313.569188 357.989661 
" clip-path="url(#p15811d7869)" style="fill: none; stroke: #1f77b4; stroke-width: 1.5"/>
    <path d="M 334.780502 357.989661 
L 334.780502 357.989661 
" clip-path="url(#p15811d7869)" style="fill: none; stroke: #1f77b4; stroke-width: 1.5"/>
    <path d="M 355.991816 357.989661 
L 355.991816 357.989661 
" clip-path="url(#p15811d7869)" style="fill: none; stroke: #1f77b4; stroke-width: 1.5"/>
    <path d="M 377.20313 357.989661 
L 377.20313 357.989661 
" clip-path="url(#p15811d7869)" style="fill: none; stroke: #1f77b4; stroke-width: 1.5"/>
    <path d="M 398.414444 357.989661 
L 398.414444 357.989661 
" clip-path="url(#p15811d7869)" style="fill: none; stroke: #1f77b4; stroke-width: 1.5"/>
    <path d="M 419.625758 357.989661 
L 419.625758 357.989661 
" clip-path="url(#p15811d7869)" style="fill: none; stroke: #1f77b4; stroke-width: 1.5"/>
   </g>
   <g id="LineCollection_3">
    <path clip-path="url(#p15811d7869)" style="fill: none; stroke: #d62728; stroke-width: 1.5"/>
    <path clip-path="url(#p15811d7869)" style="fill: none; stroke: #d62728; stroke-width: 1.5"/>
    <path d="M 120.015948 357.989661 
L 125.318776 357.989661 
" clip-path="url(#p15811d7869)" style="fill: none; stroke: #d62728; stroke-width: 1.5"/>
    <path d="M 140.96212 357.989661 
L 146.795232 357.989661 
" clip-path="url(#p15811d7869)" style="fill: none; stroke: #d62728; stroke-width: 1.5"/>
    <path d="M 161.908293 355.485436 
L 168.271687 355.485436 
" clip-path="url(#p15811d7869)" style="fill: none; stroke: #d62728; stroke-width: 1.5"/>
    <path d="M 182.854466 350.292054 
L 189.748143 350.292054 
" clip-path="url(#p15811d7869)" style="fill: none; stroke: #d62728; stroke-width: 1.5"/>
    <path d="M 203.800638 346.942525 
L 211.224598 346.942525 
" clip-path="url(#p15811d7869)" style="fill: none; stroke: #d62728; stroke-width: 1.5"/>
    <path d="M 224.746811 357.989661 
L 232.701053 357.989661 
" clip-path="url(#p15811d7869)" style="fill: none; stroke: #d62728; stroke-width: 1.5"/>
    <path d="M 245.692983 315.114615 
L 254.177509 315.114615 
" clip-path="url(#p15811d7869)" style="fill: none; stroke: #d62728; stroke-width: 1.5"/>
    <path d="M 266.639156 123.371815 
L 275.653964 123.371815 
" clip-path="url(#p15811d7869)" style="fill: none; stroke: #d62728; stroke-width: 1.5"/>
    <path d="M 287.585328 123.371815 
L 297.13042 123.371815 
" clip-path="url(#p15811d7869)" style="fill: none; stroke: #d62728; stroke-width: 1.5"/>
    <path d="M 308.531501 123.371815 
L 318.606875 123.371815 
" clip-path="url(#p15811d7869)" style="fill: none; stroke: #d62728; stroke-width: 1.5"/>
    <path d="M 329.477674 123.371815 
L 340.083331 123.371815 
" clip-path="url(#p15811d7869)" style="fill: none; stroke: #d62728; stroke-width: 1.5"/>
    <path d="M 350.423846 123.371815 
L 361.559786 123.371815 
" clip-path="url(#p15811d7869)" style="fill: none; stroke: #d62728; stroke-width: 1.5"/>
    <path d="M 371.370019 123.371815 
L 383.036241 123.371815 
" clip-path="url(#p15811d7869)" style="fill: none; stroke: #d62728; stroke-width: 1.5"/>
    <path d="M 392.316191 123.371815 
L 404.512697 123.371815 
" clip-path="url(#p15811d7869)" style="fill: none; stroke: #d62728; stroke-width: 1.5"/>
    <path d="M 413.262364 123.371815 
L 425.989152 123.371815 
" clip-path="url(#p15811d7869)" style="fill: none; stroke: #d62728; stroke-width: 1.5"/>
   </g>
   <g id="LineCollection_4">
    <path clip-path="url(#p15811d7869)" style="fill: none; stroke: #d62728; stroke-width: 1.5"/>
    <path clip-path="url(#p15811d7869)" style="fill: none; stroke: #d62728; stroke-width: 1.5"/>
    <path d="M 122.667362 357.989661 
L 122.667362 357.989661 
" clip-path="url(#p15811d7869)" style="fill: none; stroke: #d62728; stroke-width: 1.5"/>
    <path d="M 143.878676 357.989661 
L 143.878676 357.989661 
" clip-path="url(#p15811d7869)" style="fill: none; stroke: #d62728; stroke-width: 1.5"/>
    <path d="M 165.08999 355.485588 
L 165.08999 355.485285 
" clip-path="url(#p15811d7869)" style="fill: none; stroke: #d62728; stroke-width: 1.5"/>
    <path d="M 186.301304 350.29686 
L 186.301304 350.287248 
" clip-path="url(#p15811d7869)" style="fill: none; stroke: #d62728; stroke-width: 1.5"/>
    <path d="M 207.512618 346.94675 
L 207.512618 346.938301 
" clip-path="url(#p15811d7869)" style="fill: none; stroke: #d62728; stroke-width: 1.5"/>
    <path d="M 228.723932 357.992915 
L 228.723932 357.986407 
" clip-path="url(#p15811d7869)" style="fill: none; stroke: #d62728; stroke-width: 1.5"/>
    <path d="M 249.935246 315.1183 
L 249.935246 315.110929 
" clip-path="url(#p15811d7869)" style="fill: none; stroke: #d62728; stroke-width: 1.5"/>
    <path d="M 271.14656 123.371815 
L 271.14656 123.371815 
" clip-path="url(#p15811d7869)" style="fill: none; stroke: #d62728; stroke-width: 1.5"/>
    <path d="M 292.357874 123.371815 
L 292.357874 123.371815 
" clip-path="url(#p15811d7869)" style="fill: none; stroke: #d62728; stroke-width: 1.5"/>
    <path d="M 313.569188 123.371815 
L 313.569188 123.371815 
" clip-path="url(#p15811d7869)" style="fill: none; stroke: #d62728; stroke-width: 1.5"/>
    <path d="M 334.780502 123.371815 
L 334.780502 123.371815 
" clip-path="url(#p15811d7869)" style="fill: none; stroke: #d62728; stroke-width: 1.5"/>
    <path d="M 355.991816 123.371815 
L 355.991816 123.371815 
" clip-path="url(#p15811d7869)" style="fill: none; stroke: #d62728; stroke-width: 1.5"/>
    <path d="M 377.20313 123.371815 
L 377.20313 123.371815 
" clip-path="url(#p15811d7869)" style="fill: none; stroke: #d62728; stroke-width: 1.5"/>
    <path d="M 398.414444 123.371815 
L 398.414444 123.371815 
" clip-path="url(#p15811d7869)" style="fill: none; stroke: #d62728; stroke-width: 1.5"/>
    <path d="M 419.625758 123.371815 
L 419.625758 123.371815 
" clip-path="url(#p15811d7869)" style="fill: none; stroke: #d62728; stroke-width: 1.5"/>
   </g>
   <g id="line2d_1">
    <path d="M 82.675372 132.783745 
L 86.078911 132.770283 
L 89.48245 132.745713 
L 92.885989 132.71 
L 96.289529 132.663094 
L 99.693068 132.604928 
L 103.096607 132.535421 
L 106.500146 132.454476 
L 109.903686 132.361981 
L 113.307225 132.25781 
L 116.710764 132.141823 
L 120.114303 132.013864 
L 123.517843 131.873768 
L 126.921382 131.721356 
L 130.324921 131.55644 
L 133.72846 131.378823 
L 137.132 131.188302 
L 140.535539 130.984671 
L 143.939078 130.767726 
L 147.342617 130.537267 
L 150.746157 130.293105 
L 154.149696 130.035071 
L 157.553235 129.763027 
L 160.956775 129.476875 
L 164.360314 129.176575 
L 167.763853 128.862166 
L 171.167392 128.533794 
L 174.570932 128.191741 
L 177.974471 127.836475 
L 181.37801 127.468707 
L 184.781549 127.089462 
L 188.185089 126.700187 
L 191.588628 126.302878 
L 194.992167 125.900261 
L 198.395706 125.496037 
L 201.799246 125.095211 
L 205.202785 124.704559 
L 208.606324 124.33328 
L 212.009863 123.993929 
L 215.413403 123.703787 
L 218.816942 123.486899 
L 222.220481 123.377203 
L 225.62402 123.423451 
L 229.02756 123.697266 
L 232.431099 124.306876 
L 235.834638 125.421785 
L 239.238177 127.320174 
L 242.641717 130.488178 
L 246.045256 135.854166 
L 249.448795 145.447977 
L 252.852334 164.89634 
L 256.255874 222.605135 
" clip-path="url(#p15811d7869)" style="fill: none; stroke: #1f77b4; stroke-width: 1.5; stroke-linecap: square"/>
   </g>
   <g id="line2d_2">
    <path d="M 82.675372 348.577731 
L 86.078911 348.591193 
L 89.48245 348.615763 
L 92.885989 348.651476 
L 96.289529 348.698383 
L 99.693068 348.756548 
L 103.096607 348.826055 
L 106.500146 348.907 
L 109.903686 348.999495 
L 113.307225 349.103666 
L 116.710764 349.219653 
L 120.114303 349.347612 
L 123.517843 349.487708 
L 126.921382 349.64012 
L 130.324921 349.805036 
L 133.72846 349.982653 
L 137.132 350.173174 
L 140.535539 350.376805 
L 143.939078 350.59375 
L 147.342617 350.824209 
L 150.746157 351.068372 
L 154.149696 351.326405 
L 157.553235 351.598449 
L 160.956775 351.884601 
L 164.360314 352.184901 
L 167.763853 352.49931 
L 171.167392 352.827682 
L 174.570932 353.169735 
L 177.974471 353.525001 
L 181.37801 353.89277 
L 184.781549 354.272014 
L 188.185089 354.661289 
L 191.588628 355.058598 
L 194.992167 355.461215 
L 198.395706 355.865439 
L 201.799246 356.266265 
L 205.202785 356.656917 
L 208.606324 357.028196 
L 212.009863 357.367548 
L 215.413403 357.65769 
L 218.816942 357.874577 
L 222.220481 357.984273 
L 225.62402 357.938025 
L 229.02756 357.66421 
L 232.431099 357.0546 
L 235.834638 355.939691 
L 239.238177 354.041302 
L 242.641717 350.873298 
L 246.045256 345.50731 
L 249.448795 335.913499 
L 252.852334 316.465136 
L 256.255874 258.756342 
" clip-path="url(#p15811d7869)" style="fill: none; stroke: #d62728; stroke-width: 1.5; stroke-linecap: square"/>
   </g>
   <g id="line2d_3">
    <path d="M 82.675372 132.783745 
L 86.078911 132.770283 
L 89.48245 132.745713 
L 92.885989 132.71 
L 96.289529 132.663094 
L 99.693068 132.604928 
L 103.096607 132.535421 
L 106.500146 132.454476 
L 109.903686 132.361981 
L 113.307225 132.25781 
L 116.710764 132.141823 
L 120.114303 132.013864 
L 123.517843 131.873768 
L 126.921382 131.721356 
L 130.324921 131.55644 
L 133.72846 131.378823 
L 137.132 131.188302 
L 140.535539 130.984671 
L 143.939078 130.767726 
L 147.342617 130.537267 
L 150.746157 130.293105 
L 154.149696 130.035071 
L 157.553235 129.763027 
L 160.956775 129.476875 
L 164.360314 129.176575 
L 167.763853 128.862166 
L 171.167392 128.533794 
L 174.570932 128.191741 
L 177.974471 127.836475 
L 181.37801 127.468707 
L 184.781549 127.089462 
L 188.185089 126.700187 
L 191.588628 126.302878 
L 194.992167 125.900261 
L 198.395706 125.496037 
L 201.799246 125.095211 
L 205.202785 124.704559 
L 208.606324 124.33328 
L 212.009863 123.993929 
L 215.413403 123.703787 
L 218.816942 123.486899 
L 222.220481 123.377203 
L 225.62402 123.423451 
L 229.02756 123.697266 
L 232.431099 124.306876 
L 235.834638 125.421785 
L 239.238177 127.320174 
L 242.641717 130.488178 
L 246.045256 135.854166 
L 249.448795 145.447977 
L 252.852334 164.89634 
L 256.255874 222.605135 
" clip-path="url(#p15811d7869)" style="fill: none; stroke-dasharray: 5.55,2.4; stroke-dashoffset: 0; stroke: #000000; stroke-width: 1.5"/>
   </g>
   <g id="line2d_4">
    <path d="M 82.675372 348.577731 
L 86.078911 348.591193 
L 89.48245 348.615763 
L 92.885989 348.651476 
L 96.289529 348.698383 
L 99.693068 348.756548 
L 103.096607 348.826055 
L 106.500146 348.907 
L 109.903686 348.999495 
L 113.307225 349.103666 
L 116.710764 349.219653 
L 120.114303 349.347612 
L 123.517843 349.487708 
L 126.921382 349.64012 
L 130.324921 349.805036 
L 133.72846 349.982653 
L 137.132 350.173174 
L 140.535539 350.376805 
L 143.939078 350.59375 
L 147.342617 350.824209 
L 150.746157 351.068372 
L 154.149696 351.326405 
L 157.553235 351.598449 
L 160.956775 351.884601 
L 164.360314 352.184901 
L 167.763853 352.49931 
L 171.167392 352.827682 
L 174.570932 353.169735 
L 177.974471 353.525001 
L 181.37801 353.89277 
L 184.781549 354.272014 
L 188.185089 354.661289 
L 191.588628 355.058598 
L 194.992167 355.461215 
L 198.395706 355.865439 
L 201.799246 356.266265 
L 205.202785 356.656917 
L 208.606324 357.028196 
L 212.009863 357.367548 
L 215.413403 357.65769 
L 218.816942 357.874577 
L 222.220481 357.984273 
L 225.62402 357.938025 
L 229.02756 357.66421 
L 232.431099 357.0546 
L 235.834638 355.939691 
L 239.238177 354.041302 
L 242.641717 350.873298 
L 246.045256 345.50731 
L 249.448795 335.913499 
L 252.852334 316.465136 
L 256.255874 258.756342 
" clip-path="url(#p15811d7869)" style="fill: none; stroke-dasharray: 5.55,2.4; stroke-dashoffset: 0; stroke: #000000; stroke-width: 1.5"/>
   </g>
   <g id="line2d_5">
    <defs>
     <path id="mcbc38b4d3e" d="M -3 3 
L 3 -3 
M -3 -3 
L 3 3 
" style="stroke: #1f77b4"/>
    </defs>
    <g clip-path="url(#p15811d7869)">
     <use xlink:href="#mcbc38b4d3e" x="122.667362" y="123.371815" style="fill: #1f77b4; stroke: #1f77b4"/>
     <use xlink:href="#mcbc38b4d3e" x="143.878676" y="123.371815" style="fill: #1f77b4; stroke: #1f77b4"/>
     <use xlink:href="#mcbc38b4d3e" x="165.08999" y="125.87604" style="fill: #1f77b4; stroke: #1f77b4"/>
     <use xlink:href="#mcbc38b4d3e" x="186.301304" y="131.069422" style="fill: #1f77b4; stroke: #1f77b4"/>
     <use xlink:href="#mcbc38b4d3e" x="207.512618" y="134.418951" style="fill: #1f77b4; stroke: #1f77b4"/>
     <use xlink:href="#mcbc38b4d3e" x="228.723932" y="123.371815" style="fill: #1f77b4; stroke: #1f77b4"/>
     <use xlink:href="#mcbc38b4d3e" x="249.935246" y="166.246861" style="fill: #1f77b4; stroke: #1f77b4"/>
     <use xlink:href="#mcbc38b4d3e" x="271.14656" y="357.989661" style="fill: #1f77b4; stroke: #1f77b4"/>
     <use xlink:href="#mcbc38b4d3e" x="292.357874" y="357.989661" style="fill: #1f77b4; stroke: #1f77b4"/>
     <use xlink:href="#mcbc38b4d3e" x="313.569188" y="357.989661" style="fill: #1f77b4; stroke: #1f77b4"/>
     <use xlink:href="#mcbc38b4d3e" x="334.780502" y="357.989661" style="fill: #1f77b4; stroke: #1f77b4"/>
     <use xlink:href="#mcbc38b4d3e" x="355.991816" y="357.989661" style="fill: #1f77b4; stroke: #1f77b4"/>
     <use xlink:href="#mcbc38b4d3e" x="377.20313" y="357.989661" style="fill: #1f77b4; stroke: #1f77b4"/>
     <use xlink:href="#mcbc38b4d3e" x="398.414444" y="357.989661" style="fill: #1f77b4; stroke: #1f77b4"/>
     <use xlink:href="#mcbc38b4d3e" x="419.625758" y="357.989661" style="fill: #1f77b4; stroke: #1f77b4"/>
    </g>
   </g>
   <g id="line2d_6">
    <defs>
     <path id="mb809e2bc47" d="M -3 3 
L 3 -3 
M -3 -3 
L 3 3 
" style="stroke: #d62728"/>
    </defs>
    <g clip-path="url(#p15811d7869)">
     <use xlink:href="#mb809e2bc47" x="122.667362" y="357.989661" style="fill: #d62728; stroke: #d62728"/>
     <use xlink:href="#mb809e2bc47" x="143.878676" y="357.989661" style="fill: #d62728; stroke: #d62728"/>
     <use xlink:href="#mb809e2bc47" x="165.08999" y="355.485436" style="fill: #d62728; stroke: #d62728"/>
     <use xlink:href="#mb809e2bc47" x="186.301304" y="350.292054" style="fill: #d62728; stroke: #d62728"/>
     <use xlink:href="#mb809e2bc47" x="207.512618" y="346.942525" style="fill: #d62728; stroke: #d62728"/>
     <use xlink:href="#mb809e2bc47" x="228.723932" y="357.989661" style="fill: #d62728; stroke: #d62728"/>
     <use xlink:href="#mb809e2bc47" x="249.935246" y="315.114615" style="fill: #d62728; stroke: #d62728"/>
     <use xlink:href="#mb809e2bc47" x="271.14656" y="123.371815" style="fill: #d62728; stroke: #d62728"/>
     <use xlink:href="#mb809e2bc47" x="292.357874" y="123.371815" style="fill: #d62728; stroke: #d62728"/>
     <use xlink:href="#mb809e2bc47" x="313.569188" y="123.371815" style="fill: #d62728; stroke: #d62728"/>
     <use xlink:href="#mb809e2bc47" x="334.780502" y="123.371815" style="fill: #d62728; stroke: #d62728"/>
     <use xlink:href="#mb809e2bc47" x="355.991816" y="123.371815" style="fill: #d62728; stroke: #d62728"/>
     <use xlink:href="#mb809e2bc47" x="377.20313" y="123.371815" style="fill: #d62728; stroke: #d62728"/>
     <use xlink:href="#mb809e2bc47" x="398.414444" y="123.371815" style="fill: #d62728; stroke: #d62728"/>
     <use xlink:href="#mb809e2bc47" x="419.625758" y="123.371815" style="fill: #d62728; stroke: #d62728"/>
    </g>
   </g>
   <g id="patch_3">
    <path d="M 65.509683 369.725865 
L 65.509683 111.635611 
" style="fill: none; stroke: #000000; stroke-width: 1.2; stroke-linejoin: miter; stroke-linecap: square"/>
   </g>
   <g id="patch_4">
    <path d="M 443.154841 369.725865 
L 443.154841 111.635611 
" style="fill: none; stroke: #000000; stroke-width: 1.2; stroke-linejoin: miter; stroke-linecap: square"/>
   </g>
   <g id="patch_5">
    <path d="M 65.509683 369.725865 
L 443.154841 369.725865 
" style="fill: none; stroke: #000000; stroke-width: 1.2; stroke-linejoin: miter; stroke-linecap: square"/>
   </g>
   <g id="patch_6">
    <path d="M 65.509683 111.635611 
L 443.154841 111.635611 
" style="fill: none; stroke: #000000; stroke-width: 1.2; stroke-linejoin: miter; stroke-linecap: square"/>
   </g>
   <g id="text_14">
    <!-- p-polarisation -->
    <g transform="translate(188.439969 105.635611) scale(0.24 -0.24)">
     <defs>
      <path id="CMR17-70" d="M 1408 -1063 
C 998 -1063 973 -1037 973 -789 
L 973 402 
C 1158 134 1427 -38 1766 -38 
C 2406 -38 3053 523 3053 1388 
C 3053 2191 2496 2802 1837 2802 
C 1453 2802 1139 2592 960 2338 
L 960 2802 
L 198 2732 
L 198 2567 
C 576 2567 634 2528 634 2223 
L 634 -789 
C 634 -1031 608 -1063 198 -1063 
L 198 -1228 
C 352 -1216 634 -1216 800 -1216 
C 966 -1216 1254 -1216 1408 -1228 
L 1408 -1063 
z
M 973 2012 
C 973 2102 973 2235 1222 2471 
C 1254 2497 1472 2688 1792 2688 
C 2259 2688 2643 2108 2643 1382 
C 2643 656 2234 64 1728 64 
C 1498 64 1248 172 1056 472 
C 973 612 973 650 973 752 
L 973 2012 
z
" transform="scale(0.015625)"/>
      <path id="CMR17-2d" d="M 1632 1216 
L 1632 1496 
L 26 1496 
L 26 1216 
L 1632 1216 
z
" transform="scale(0.015625)"/>
      <path id="CMR17-6f" d="M 2758 1356 
C 2758 2176 2163 2816 1466 2816 
C 768 2816 173 2176 173 1356 
C 173 551 768 -64 1466 -64 
C 2163 -64 2758 551 2758 1356 
z
M 1466 51 
C 1165 51 909 230 762 480 
C 602 767 582 1126 582 1408 
C 582 1677 595 2010 762 2298 
C 890 2509 1139 2714 1466 2714 
C 1754 2714 1997 2554 2150 2330 
C 2349 2029 2349 1607 2349 1408 
C 2349 1158 2336 775 2163 467 
C 1984 173 1709 51 1466 51 
z
" transform="scale(0.015625)"/>
     </defs>
     <use xlink:href="#CMR17-70" transform="scale(0.996264)"/>
     <use xlink:href="#CMR17-2d" transform="translate(50.89537 0) scale(0.996264)"/>
     <use xlink:href="#CMR17-70" transform="translate(80.971336 0) scale(0.996264)"/>
     <use xlink:href="#CMR17-6f" transform="translate(134.469145 0) scale(0.996264)"/>
     <use xlink:href="#CMR17-6c" transform="translate(180.159622 0) scale(0.996264)"/>
     <use xlink:href="#CMR17-61" transform="translate(205.03068 0) scale(0.996264)"/>
     <use xlink:href="#CMR17-72" transform="translate(250.721157 0) scale(0.996264)"/>
     <use xlink:href="#CMR17-69" transform="translate(286.001925 0) scale(0.996264)"/>
     <use xlink:href="#CMR17-73" transform="translate(310.872984 0) scale(0.996264)"/>
     <use xlink:href="#CMR17-61" transform="translate(346.674321 0) scale(0.996264)"/>
     <use xlink:href="#CMR17-74" transform="translate(392.364798 0) scale(0.996264)"/>
     <use xlink:href="#CMR17-69" transform="translate(427.645566 0) scale(0.996264)"/>
     <use xlink:href="#CMR17-6f" transform="translate(452.516625 0) scale(0.996264)"/>
     <use xlink:href="#CMR17-6e" transform="translate(498.207102 0) scale(0.996264)"/>
    </g>
   </g>
  </g>
  <g id="axes_2">
   <g id="patch_7">
    <path d="M 464.754841 369.725865 
L 842.4 369.725865 
L 842.4 111.635611 
L 464.754841 111.635611 
z
" style="fill: #ffffff"/>
   </g>
   <g id="matplotlib.axis_3">
    <g id="xtick_6">
     <g id="text_15">
      <!-- $\mathdefault{0}$ -->
      <g transform="translate(475.831774 383.60359) scale(0.15 -0.15)">
       <use xlink:href="#CMR17-30" transform="scale(0.996264)"/>
      </g>
     </g>
    </g>
    <g id="xtick_7">
     <g id="text_16">
      <!-- $\mathdefault{20}$ -->
      <g transform="translate(557.018911 383.60359) scale(0.15 -0.15)">
       <use xlink:href="#CMR17-32" transform="scale(0.996264)"/>
       <use xlink:href="#CMR17-30" transform="translate(45.690477 0) scale(0.996264)"/>
      </g>
     </g>
    </g>
    <g id="xtick_8">
     <g id="text_17">
      <!-- $\mathdefault{40}$ -->
      <g transform="translate(641.864167 383.60359) scale(0.15 -0.15)">
       <use xlink:href="#CMR17-34" transform="scale(0.996264)"/>
       <use xlink:href="#CMR17-30" transform="translate(45.690477 0) scale(0.996264)"/>
      </g>
     </g>
    </g>
    <g id="xtick_9">
     <g id="text_18">
      <!-- $\mathdefault{60}$ -->
      <g transform="translate(726.709423 383.60359) scale(0.15 -0.15)">
       <use xlink:href="#CMR17-36" transform="scale(0.996264)"/>
       <use xlink:href="#CMR17-30" transform="translate(45.690477 0) scale(0.996264)"/>
      </g>
     </g>
    </g>
    <g id="xtick_10">
     <g id="text_19">
      <!-- $\mathdefault{80}$ -->
      <g transform="translate(811.554679 383.60359) scale(0.15 -0.15)">
       <use xlink:href="#CMR17-38" transform="scale(0.996264)"/>
       <use xlink:href="#CMR17-30" transform="translate(45.690477 0) scale(0.996264)"/>
      </g>
     </g>
    </g>
    <g id="text_20">
     <!-- $\theta_1$ [Degrees] -->
     <g transform="translate(606.524051 405.435356) scale(0.2 -0.2)">
      <use xlink:href="#CMMI12-12" transform="scale(0.996264)"/>
      <use xlink:href="#CMR17-31" transform="translate(45.45979 -14.943915) scale(0.697382)"/>
      <use xlink:href="#CMR17-5b" transform="translate(108.01707 0) scale(0.996264)"/>
      <use xlink:href="#CMR17-44" transform="translate(132.888129 0) scale(0.996264)"/>
      <use xlink:href="#CMR17-65" transform="translate(203.281685 0) scale(0.996264)"/>
      <use xlink:href="#CMR17-67" transform="translate(243.767345 0) scale(0.996264)"/>
      <use xlink:href="#CMR17-72" transform="translate(289.457822 0) scale(0.996264)"/>
      <use xlink:href="#CMR17-65" transform="translate(324.73859 0) scale(0.996264)"/>
      <use xlink:href="#CMR17-65" transform="translate(365.224251 0) scale(0.996264)"/>
      <use xlink:href="#CMR17-73" transform="translate(405.709911 0) scale(0.996264)"/>
      <use xlink:href="#CMR17-5d" transform="translate(441.511249 0) scale(0.996264)"/>
     </g>
    </g>
   </g>
   <g id="matplotlib.axis_4">
    <g id="ytick_7"/>
    <g id="ytick_8"/>
    <g id="ytick_9"/>
    <g id="ytick_10"/>
    <g id="ytick_11"/>
    <g id="ytick_12"/>
   </g>
   <g id="LineCollection_5">
    <path clip-path="url(#p7743c4d1ec)" style="fill: none; stroke: #1f77b4; stroke-width: 1.5"/>
    <path clip-path="url(#p7743c4d1ec)" style="fill: none; stroke: #1f77b4; stroke-width: 1.5"/>
    <path d="M 519.261107 123.371815 
L 524.563935 123.371815 
" clip-path="url(#p7743c4d1ec)" style="fill: none; stroke: #1f77b4; stroke-width: 1.5"/>
    <path d="M 540.207279 123.371815 
L 546.04039 123.371815 
" clip-path="url(#p7743c4d1ec)" style="fill: none; stroke: #1f77b4; stroke-width: 1.5"/>
    <path d="M 561.153452 130.112928 
L 567.516846 130.112928 
" clip-path="url(#p7743c4d1ec)" style="fill: none; stroke: #1f77b4; stroke-width: 1.5"/>
    <path d="M 582.099624 132.881533 
L 588.993301 132.881533 
" clip-path="url(#p7743c4d1ec)" style="fill: none; stroke: #1f77b4; stroke-width: 1.5"/>
    <path d="M 603.045797 136.988481 
L 610.469757 136.988481 
" clip-path="url(#p7743c4d1ec)" style="fill: none; stroke: #1f77b4; stroke-width: 1.5"/>
    <path d="M 623.991969 151.334374 
L 631.946212 151.334374 
" clip-path="url(#p7743c4d1ec)" style="fill: none; stroke: #1f77b4; stroke-width: 1.5"/>
    <path d="M 644.938142 232.265318 
L 653.422668 232.265318 
" clip-path="url(#p7743c4d1ec)" style="fill: none; stroke: #1f77b4; stroke-width: 1.5"/>
    <path d="M 665.884315 357.989661 
L 674.899123 357.989661 
" clip-path="url(#p7743c4d1ec)" style="fill: none; stroke: #1f77b4; stroke-width: 1.5"/>
    <path d="M 686.830487 357.989661 
L 696.375578 357.989661 
" clip-path="url(#p7743c4d1ec)" style="fill: none; stroke: #1f77b4; stroke-width: 1.5"/>
    <path d="M 707.77666 357.989661 
L 717.852034 357.989661 
" clip-path="url(#p7743c4d1ec)" style="fill: none; stroke: #1f77b4; stroke-width: 1.5"/>
    <path d="M 728.722832 357.989661 
L 739.328489 357.989661 
" clip-path="url(#p7743c4d1ec)" style="fill: none; stroke: #1f77b4; stroke-width: 1.5"/>
    <path d="M 749.669005 357.989661 
L 760.804945 357.989661 
" clip-path="url(#p7743c4d1ec)" style="fill: none; stroke: #1f77b4; stroke-width: 1.5"/>
    <path d="M 770.615177 357.989661 
L 782.2814 357.989661 
" clip-path="url(#p7743c4d1ec)" style="fill: none; stroke: #1f77b4; stroke-width: 1.5"/>
    <path d="M 791.56135 357.989661 
L 803.757856 357.989661 
" clip-path="url(#p7743c4d1ec)" style="fill: none; stroke: #1f77b4; stroke-width: 1.5"/>
    <path d="M 812.507523 357.989661 
L 825.234311 357.989661 
" clip-path="url(#p7743c4d1ec)" style="fill: none; stroke: #1f77b4; stroke-width: 1.5"/>
   </g>
   <g id="LineCollection_6">
    <path clip-path="url(#p7743c4d1ec)" style="fill: none; stroke: #1f77b4; stroke-width: 1.5"/>
    <path clip-path="url(#p7743c4d1ec)" style="fill: none; stroke: #1f77b4; stroke-width: 1.5"/>
    <path d="M 521.912521 123.376643 
L 521.912521 123.366986 
" clip-path="url(#p7743c4d1ec)" style="fill: none; stroke: #1f77b4; stroke-width: 1.5"/>
    <path d="M 543.123835 123.371815 
L 543.123835 123.371815 
" clip-path="url(#p7743c4d1ec)" style="fill: none; stroke: #1f77b4; stroke-width: 1.5"/>
    <path d="M 564.335149 130.114999 
L 564.335149 130.110857 
" clip-path="url(#p7743c4d1ec)" style="fill: none; stroke: #1f77b4; stroke-width: 1.5"/>
    <path d="M 585.546463 132.887378 
L 585.546463 132.875687 
" clip-path="url(#p7743c4d1ec)" style="fill: none; stroke: #1f77b4; stroke-width: 1.5"/>
    <path d="M 606.757777 136.989263 
L 606.757777 136.987698 
" clip-path="url(#p7743c4d1ec)" style="fill: none; stroke: #1f77b4; stroke-width: 1.5"/>
    <path d="M 627.969091 151.338788 
L 627.969091 151.32996 
" clip-path="url(#p7743c4d1ec)" style="fill: none; stroke: #1f77b4; stroke-width: 1.5"/>
    <path d="M 649.180405 232.276819 
L 649.180405 232.253818 
" clip-path="url(#p7743c4d1ec)" style="fill: none; stroke: #1f77b4; stroke-width: 1.5"/>
    <path d="M 670.391719 357.989661 
L 670.391719 357.989661 
" clip-path="url(#p7743c4d1ec)" style="fill: none; stroke: #1f77b4; stroke-width: 1.5"/>
    <path d="M 691.603033 357.989661 
L 691.603033 357.989661 
" clip-path="url(#p7743c4d1ec)" style="fill: none; stroke: #1f77b4; stroke-width: 1.5"/>
    <path d="M 712.814347 357.989661 
L 712.814347 357.989661 
" clip-path="url(#p7743c4d1ec)" style="fill: none; stroke: #1f77b4; stroke-width: 1.5"/>
    <path d="M 734.025661 357.989661 
L 734.025661 357.989661 
" clip-path="url(#p7743c4d1ec)" style="fill: none; stroke: #1f77b4; stroke-width: 1.5"/>
    <path d="M 755.236975 357.989661 
L 755.236975 357.989661 
" clip-path="url(#p7743c4d1ec)" style="fill: none; stroke: #1f77b4; stroke-width: 1.5"/>
    <path d="M 776.448289 357.989661 
L 776.448289 357.989661 
" clip-path="url(#p7743c4d1ec)" style="fill: none; stroke: #1f77b4; stroke-width: 1.5"/>
    <path d="M 797.659603 357.989661 
L 797.659603 357.989661 
" clip-path="url(#p7743c4d1ec)" style="fill: none; stroke: #1f77b4; stroke-width: 1.5"/>
    <path d="M 818.870917 357.989661 
L 818.870917 357.989661 
" clip-path="url(#p7743c4d1ec)" style="fill: none; stroke: #1f77b4; stroke-width: 1.5"/>
   </g>
   <g id="LineCollection_7">
    <path clip-path="url(#p7743c4d1ec)" style="fill: none; stroke: #d62728; stroke-width: 1.5"/>
    <path clip-path="url(#p7743c4d1ec)" style="fill: none; stroke: #d62728; stroke-width: 1.5"/>
    <path d="M 519.261107 357.989661 
L 524.563935 357.989661 
" clip-path="url(#p7743c4d1ec)" style="fill: none; stroke: #d62728; stroke-width: 1.5"/>
    <path d="M 540.207279 357.989661 
L 546.04039 357.989661 
" clip-path="url(#p7743c4d1ec)" style="fill: none; stroke: #d62728; stroke-width: 1.5"/>
    <path d="M 561.153452 351.248548 
L 567.516846 351.248548 
" clip-path="url(#p7743c4d1ec)" style="fill: none; stroke: #d62728; stroke-width: 1.5"/>
    <path d="M 582.099624 348.479943 
L 588.993301 348.479943 
" clip-path="url(#p7743c4d1ec)" style="fill: none; stroke: #d62728; stroke-width: 1.5"/>
    <path d="M 603.045797 344.372996 
L 610.469757 344.372996 
" clip-path="url(#p7743c4d1ec)" style="fill: none; stroke: #d62728; stroke-width: 1.5"/>
    <path d="M 623.991969 330.027102 
L 631.946212 330.027102 
" clip-path="url(#p7743c4d1ec)" style="fill: none; stroke: #d62728; stroke-width: 1.5"/>
    <path d="M 644.938142 249.096158 
L 653.422668 249.096158 
" clip-path="url(#p7743c4d1ec)" style="fill: none; stroke: #d62728; stroke-width: 1.5"/>
    <path d="M 665.884315 123.371815 
L 674.899123 123.371815 
" clip-path="url(#p7743c4d1ec)" style="fill: none; stroke: #d62728; stroke-width: 1.5"/>
    <path d="M 686.830487 123.371815 
L 696.375578 123.371815 
" clip-path="url(#p7743c4d1ec)" style="fill: none; stroke: #d62728; stroke-width: 1.5"/>
    <path d="M 707.77666 123.371815 
L 717.852034 123.371815 
" clip-path="url(#p7743c4d1ec)" style="fill: none; stroke: #d62728; stroke-width: 1.5"/>
    <path d="M 728.722832 123.371815 
L 739.328489 123.371815 
" clip-path="url(#p7743c4d1ec)" style="fill: none; stroke: #d62728; stroke-width: 1.5"/>
    <path d="M 749.669005 123.371815 
L 760.804945 123.371815 
" clip-path="url(#p7743c4d1ec)" style="fill: none; stroke: #d62728; stroke-width: 1.5"/>
    <path d="M 770.615177 123.371815 
L 782.2814 123.371815 
" clip-path="url(#p7743c4d1ec)" style="fill: none; stroke: #d62728; stroke-width: 1.5"/>
    <path d="M 791.56135 123.371815 
L 803.757856 123.371815 
" clip-path="url(#p7743c4d1ec)" style="fill: none; stroke: #d62728; stroke-width: 1.5"/>
    <path d="M 812.507523 123.371815 
L 825.234311 123.371815 
" clip-path="url(#p7743c4d1ec)" style="fill: none; stroke: #d62728; stroke-width: 1.5"/>
   </g>
   <g id="LineCollection_8">
    <path clip-path="url(#p7743c4d1ec)" style="fill: none; stroke: #d62728; stroke-width: 1.5"/>
    <path clip-path="url(#p7743c4d1ec)" style="fill: none; stroke: #d62728; stroke-width: 1.5"/>
    <path d="M 521.912521 357.99449 
L 521.912521 357.984833 
" clip-path="url(#p7743c4d1ec)" style="fill: none; stroke: #d62728; stroke-width: 1.5"/>
    <path d="M 543.123835 357.989661 
L 543.123835 357.989661 
" clip-path="url(#p7743c4d1ec)" style="fill: none; stroke: #d62728; stroke-width: 1.5"/>
    <path d="M 564.335149 351.250619 
L 564.335149 351.246477 
" clip-path="url(#p7743c4d1ec)" style="fill: none; stroke: #d62728; stroke-width: 1.5"/>
    <path d="M 585.546463 348.485789 
L 585.546463 348.474098 
" clip-path="url(#p7743c4d1ec)" style="fill: none; stroke: #d62728; stroke-width: 1.5"/>
    <path d="M 606.757777 344.373778 
L 606.757777 344.372213 
" clip-path="url(#p7743c4d1ec)" style="fill: none; stroke: #d62728; stroke-width: 1.5"/>
    <path d="M 627.969091 330.031516 
L 627.969091 330.022688 
" clip-path="url(#p7743c4d1ec)" style="fill: none; stroke: #d62728; stroke-width: 1.5"/>
    <path d="M 649.180405 249.107658 
L 649.180405 249.084658 
" clip-path="url(#p7743c4d1ec)" style="fill: none; stroke: #d62728; stroke-width: 1.5"/>
    <path d="M 670.391719 123.371815 
L 670.391719 123.371815 
" clip-path="url(#p7743c4d1ec)" style="fill: none; stroke: #d62728; stroke-width: 1.5"/>
    <path d="M 691.603033 123.371815 
L 691.603033 123.371815 
" clip-path="url(#p7743c4d1ec)" style="fill: none; stroke: #d62728; stroke-width: 1.5"/>
    <path d="M 712.814347 123.371815 
L 712.814347 123.371815 
" clip-path="url(#p7743c4d1ec)" style="fill: none; stroke: #d62728; stroke-width: 1.5"/>
    <path d="M 734.025661 123.371815 
L 734.025661 123.371815 
" clip-path="url(#p7743c4d1ec)" style="fill: none; stroke: #d62728; stroke-width: 1.5"/>
    <path d="M 755.236975 123.371815 
L 755.236975 123.371815 
" clip-path="url(#p7743c4d1ec)" style="fill: none; stroke: #d62728; stroke-width: 1.5"/>
    <path d="M 776.448289 123.371815 
L 776.448289 123.371815 
" clip-path="url(#p7743c4d1ec)" style="fill: none; stroke: #d62728; stroke-width: 1.5"/>
    <path d="M 797.659603 123.371815 
L 797.659603 123.371815 
" clip-path="url(#p7743c4d1ec)" style="fill: none; stroke: #d62728; stroke-width: 1.5"/>
    <path d="M 818.870917 123.371815 
L 818.870917 123.371815 
" clip-path="url(#p7743c4d1ec)" style="fill: none; stroke: #d62728; stroke-width: 1.5"/>
   </g>
   <g id="line2d_7">
    <path d="M 481.92053 132.789399 
L 485.32407 132.802874 
L 488.727609 132.827512 
L 492.131148 132.86343 
L 495.534687 132.910797 
L 498.938227 132.969836 
L 502.341766 133.040831 
L 505.745305 133.124124 
L 509.148844 133.220123 
L 512.552384 133.329303 
L 515.955923 133.452215 
L 519.359462 133.58949 
L 522.763001 133.741844 
L 526.166541 133.910091 
L 529.57008 134.095151 
L 532.973619 134.29806 
L 536.377158 134.519987 
L 539.780698 134.762245 
L 543.184237 135.026314 
L 546.587776 135.313859 
L 549.991315 135.626759 
L 553.394855 135.967132 
L 556.798394 136.337375 
L 560.201933 136.740203 
L 563.605472 137.178699 
L 567.009012 137.656375 
L 570.412551 138.177245 
L 573.81609 138.745907 
L 577.21963 139.367657 
L 580.623169 140.048614 
L 584.026708 140.795885 
L 587.430247 141.617763 
L 590.833787 142.523983 
L 594.237326 143.526046 
L 597.640865 144.637626 
L 601.044404 145.875113 
L 604.447944 147.258313 
L 607.851483 148.811399 
L 611.255022 150.564179 
L 614.658561 152.553875 
L 618.062101 154.827613 
L 621.46564 157.446042 
L 624.869179 160.488709 
L 628.272718 164.062357 
L 631.676258 168.314221 
L 635.079797 173.454482 
L 638.483336 179.79663 
L 641.886875 187.836352 
L 645.290415 198.42434 
L 648.693954 213.214571 
L 652.097493 236.210384 
L 655.501032 284.258424 
" clip-path="url(#p7743c4d1ec)" style="fill: none; stroke: #1f77b4; stroke-width: 1.5; stroke-linecap: square"/>
   </g>
   <g id="line2d_8">
    <path d="M 481.92053 348.572077 
L 485.32407 348.558603 
L 488.727609 348.533964 
L 492.131148 348.498046 
L 495.534687 348.450679 
L 498.938227 348.39164 
L 502.341766 348.320645 
L 505.745305 348.237352 
L 509.148844 348.141354 
L 512.552384 348.032173 
L 515.955923 347.909261 
L 519.359462 347.771986 
L 522.763001 347.619632 
L 526.166541 347.451385 
L 529.57008 347.266325 
L 532.973619 347.063416 
L 536.377158 346.841489 
L 539.780698 346.599231 
L 543.184237 346.335162 
L 546.587776 346.047617 
L 549.991315 345.734717 
L 553.394855 345.394344 
L 556.798394 345.024101 
L 560.201933 344.621273 
L 563.605472 344.182777 
L 567.009012 343.705101 
L 570.412551 343.184232 
L 573.81609 342.615569 
L 577.21963 341.993819 
L 580.623169 341.312862 
L 584.026708 340.565591 
L 587.430247 339.743714 
L 590.833787 338.837493 
L 594.237326 337.83543 
L 597.640865 336.72385 
L 601.044404 335.486364 
L 604.447944 334.103163 
L 607.851483 332.550077 
L 611.255022 330.797297 
L 614.658561 328.807601 
L 618.062101 326.533863 
L 621.46564 323.915435 
L 624.869179 320.872767 
L 628.272718 317.299119 
L 631.676258 313.047255 
L 635.079797 307.906994 
L 638.483336 301.564846 
L 641.886875 293.525125 
L 645.290415 282.937136 
L 648.693954 268.146905 
L 652.097493 245.151093 
L 655.501032 197.103053 
" clip-path="url(#p7743c4d1ec)" style="fill: none; stroke: #d62728; stroke-width: 1.5; stroke-linecap: square"/>
   </g>
   <g id="line2d_9">
    <path d="M 481.92053 130.636239 
L 485.32407 130.64612 
L 488.727609 130.664184 
L 492.131148 130.690511 
L 495.534687 130.725215 
L 498.938227 130.768451 
L 502.341766 130.820412 
L 505.745305 130.881332 
L 509.148844 130.951488 
L 512.552384 131.031204 
L 515.955923 131.120853 
L 519.359462 131.22086 
L 522.763001 131.331711 
L 526.166541 131.45395 
L 529.57008 131.588195 
L 532.973619 131.735137 
L 536.377158 131.89555 
L 539.780698 132.070304 
L 543.184237 132.260372 
L 546.587776 132.466842 
L 549.991315 132.690936 
L 553.394855 132.934022 
L 556.798394 133.197638 
L 560.201933 133.483511 
L 563.605472 133.79359 
L 567.009012 134.130073 
L 570.412551 134.495449 
L 573.81609 134.892541 
L 577.21963 135.324563 
L 580.623169 135.795187 
L 584.026708 136.30862 
L 587.430247 136.869701 
L 590.833787 137.484024 
L 594.237326 138.158084 
L 597.640865 138.899457 
L 601.044404 139.717038 
L 604.447944 140.621324 
L 607.851483 141.624796 
L 611.255022 142.742401 
L 614.658561 143.992188 
L 618.062101 145.396154 
L 621.46564 146.981387 
L 624.869179 148.78164 
L 628.272718 150.839537 
L 631.676258 153.209742 
L 635.079797 155.963638 
L 638.483336 159.196455 
L 641.886875 163.038539 
L 645.290415 167.674048 
L 648.693954 173.37377 
L 652.097493 180.557259 
L 655.501032 189.922878 
L 658.904572 202.762187 
L 662.308111 221.915139 
L 665.71165 256.325302 
" clip-path="url(#p7743c4d1ec)" style="fill: none; stroke-dasharray: 5.55,2.4; stroke-dashoffset: 0; stroke: #000000; stroke-width: 1.5"/>
   </g>
   <g id="line2d_10">
    <path d="M 481.92053 350.725237 
L 485.32407 350.715356 
L 488.727609 350.697292 
L 492.131148 350.670966 
L 495.534687 350.636261 
L 498.938227 350.593025 
L 502.341766 350.541064 
L 505.745305 350.480144 
L 509.148844 350.409988 
L 512.552384 350.330272 
L 515.955923 350.240623 
L 519.359462 350.140616 
L 522.763001 350.029766 
L 526.166541 349.907526 
L 529.57008 349.773281 
L 532.973619 349.626339 
L 536.377158 349.465926 
L 539.780698 349.291172 
L 543.184237 349.101104 
L 546.587776 348.894634 
L 549.991315 348.67054 
L 553.394855 348.427454 
L 556.798394 348.163838 
L 560.201933 347.877965 
L 563.605472 347.567886 
L 567.009012 347.231403 
L 570.412551 346.866027 
L 573.81609 346.468936 
L 577.21963 346.036913 
L 580.623169 345.566289 
L 584.026708 345.052857 
L 587.430247 344.491775 
L 590.833787 343.877452 
L 594.237326 343.203392 
L 597.640865 342.462019 
L 601.044404 341.644439 
L 604.447944 340.740153 
L 607.851483 339.73668 
L 611.255022 338.619075 
L 614.658561 337.369288 
L 618.062101 335.965322 
L 621.46564 334.380089 
L 624.869179 332.579836 
L 628.272718 330.521939 
L 631.676258 328.151734 
L 635.079797 325.397838 
L 638.483336 322.165021 
L 641.886875 318.322937 
L 645.290415 313.687428 
L 648.693954 307.987706 
L 652.097493 300.804217 
L 655.501032 291.438598 
L 658.904572 278.59929 
L 662.308111 259.446337 
L 665.71165 225.036174 
" clip-path="url(#p7743c4d1ec)" style="fill: none; stroke-dasharray: 5.55,2.4; stroke-dashoffset: 0; stroke: #000000; stroke-width: 1.5"/>
   </g>
   <g id="line2d_11">
    <g clip-path="url(#p7743c4d1ec)">
     <use xlink:href="#mcbc38b4d3e" x="521.912521" y="123.371815" style="fill: #1f77b4; stroke: #1f77b4"/>
     <use xlink:href="#mcbc38b4d3e" x="543.123835" y="123.371815" style="fill: #1f77b4; stroke: #1f77b4"/>
     <use xlink:href="#mcbc38b4d3e" x="564.335149" y="130.112928" style="fill: #1f77b4; stroke: #1f77b4"/>
     <use xlink:href="#mcbc38b4d3e" x="585.546463" y="132.881533" style="fill: #1f77b4; stroke: #1f77b4"/>
     <use xlink:href="#mcbc38b4d3e" x="606.757777" y="136.988481" style="fill: #1f77b4; stroke: #1f77b4"/>
     <use xlink:href="#mcbc38b4d3e" x="627.969091" y="151.334374" style="fill: #1f77b4; stroke: #1f77b4"/>
     <use xlink:href="#mcbc38b4d3e" x="649.180405" y="232.265318" style="fill: #1f77b4; stroke: #1f77b4"/>
     <use xlink:href="#mcbc38b4d3e" x="670.391719" y="357.989661" style="fill: #1f77b4; stroke: #1f77b4"/>
     <use xlink:href="#mcbc38b4d3e" x="691.603033" y="357.989661" style="fill: #1f77b4; stroke: #1f77b4"/>
     <use xlink:href="#mcbc38b4d3e" x="712.814347" y="357.989661" style="fill: #1f77b4; stroke: #1f77b4"/>
     <use xlink:href="#mcbc38b4d3e" x="734.025661" y="357.989661" style="fill: #1f77b4; stroke: #1f77b4"/>
     <use xlink:href="#mcbc38b4d3e" x="755.236975" y="357.989661" style="fill: #1f77b4; stroke: #1f77b4"/>
     <use xlink:href="#mcbc38b4d3e" x="776.448289" y="357.989661" style="fill: #1f77b4; stroke: #1f77b4"/>
     <use xlink:href="#mcbc38b4d3e" x="797.659603" y="357.989661" style="fill: #1f77b4; stroke: #1f77b4"/>
     <use xlink:href="#mcbc38b4d3e" x="818.870917" y="357.989661" style="fill: #1f77b4; stroke: #1f77b4"/>
    </g>
   </g>
   <g id="line2d_12">
    <g clip-path="url(#p7743c4d1ec)">
     <use xlink:href="#mb809e2bc47" x="521.912521" y="357.989661" style="fill: #d62728; stroke: #d62728"/>
     <use xlink:href="#mb809e2bc47" x="543.123835" y="357.989661" style="fill: #d62728; stroke: #d62728"/>
     <use xlink:href="#mb809e2bc47" x="564.335149" y="351.248548" style="fill: #d62728; stroke: #d62728"/>
     <use xlink:href="#mb809e2bc47" x="585.546463" y="348.479943" style="fill: #d62728; stroke: #d62728"/>
     <use xlink:href="#mb809e2bc47" x="606.757777" y="344.372996" style="fill: #d62728; stroke: #d62728"/>
     <use xlink:href="#mb809e2bc47" x="627.969091" y="330.027102" style="fill: #d62728; stroke: #d62728"/>
     <use xlink:href="#mb809e2bc47" x="649.180405" y="249.096158" style="fill: #d62728; stroke: #d62728"/>
     <use xlink:href="#mb809e2bc47" x="670.391719" y="123.371815" style="fill: #d62728; stroke: #d62728"/>
     <use xlink:href="#mb809e2bc47" x="691.603033" y="123.371815" style="fill: #d62728; stroke: #d62728"/>
     <use xlink:href="#mb809e2bc47" x="712.814347" y="123.371815" style="fill: #d62728; stroke: #d62728"/>
     <use xlink:href="#mb809e2bc47" x="734.025661" y="123.371815" style="fill: #d62728; stroke: #d62728"/>
     <use xlink:href="#mb809e2bc47" x="755.236975" y="123.371815" style="fill: #d62728; stroke: #d62728"/>
     <use xlink:href="#mb809e2bc47" x="776.448289" y="123.371815" style="fill: #d62728; stroke: #d62728"/>
     <use xlink:href="#mb809e2bc47" x="797.659603" y="123.371815" style="fill: #d62728; stroke: #d62728"/>
     <use xlink:href="#mb809e2bc47" x="818.870917" y="123.371815" style="fill: #d62728; stroke: #d62728"/>
    </g>
   </g>
   <g id="patch_8">
    <path d="M 464.754841 369.725865 
L 464.754841 111.635611 
" style="fill: none; stroke: #000000; stroke-width: 1.2; stroke-linejoin: miter; stroke-linecap: square"/>
   </g>
   <g id="patch_9">
    <path d="M 842.4 369.725865 
L 842.4 111.635611 
" style="fill: none; stroke: #000000; stroke-width: 1.2; stroke-linejoin: miter; stroke-linecap: square"/>
   </g>
   <g id="patch_10">
    <path d="M 464.754841 369.725865 
L 842.4 369.725865 
" style="fill: none; stroke: #000000; stroke-width: 1.2; stroke-linejoin: miter; stroke-linecap: square"/>
   </g>
   <g id="patch_11">
    <path d="M 464.754841 111.635611 
L 842.4 111.635611 
" style="fill: none; stroke: #000000; stroke-width: 1.2; stroke-linejoin: miter; stroke-linecap: square"/>
   </g>
   <g id="text_21">
    <!-- s-polarisation -->
    <g transform="translate(589.496412 105.635611) scale(0.24 -0.24)">
     <use xlink:href="#CMR17-73" transform="scale(0.996264)"/>
     <use xlink:href="#CMR17-2d" transform="translate(35.801338 0) scale(0.996264)"/>
     <use xlink:href="#CMR17-70" transform="translate(65.877304 0) scale(0.996264)"/>
     <use xlink:href="#CMR17-6f" transform="translate(119.375112 0) scale(0.996264)"/>
     <use xlink:href="#CMR17-6c" transform="translate(165.06559 0) scale(0.996264)"/>
     <use xlink:href="#CMR17-61" transform="translate(189.936648 0) scale(0.996264)"/>
     <use xlink:href="#CMR17-72" transform="translate(235.627125 0) scale(0.996264)"/>
     <use xlink:href="#CMR17-69" transform="translate(270.907893 0) scale(0.996264)"/>
     <use xlink:href="#CMR17-73" transform="translate(295.778951 0) scale(0.996264)"/>
     <use xlink:href="#CMR17-61" transform="translate(331.580289 0) scale(0.996264)"/>
     <use xlink:href="#CMR17-74" transform="translate(377.270766 0) scale(0.996264)"/>
     <use xlink:href="#CMR17-69" transform="translate(412.551534 0) scale(0.996264)"/>
     <use xlink:href="#CMR17-6f" transform="translate(437.422593 0) scale(0.996264)"/>
     <use xlink:href="#CMR17-6e" transform="translate(483.11307 0) scale(0.996264)"/>
    </g>
   </g>
  </g>
  <g id="text_22">
   <!-- Relative intensity for reflected and transmitted light,  -->
   <g transform="translate(110.073857 25.244405) scale(0.24 -0.24)">
    <defs>
     <path id="CMR17-66" d="M 979 2560 
L 1709 2560 
L 1709 2725 
L 966 2725 
L 966 3494 
C 966 4022 1235 4352 1510 4352 
C 1594 4352 1690 4327 1754 4282 
C 1702 4269 1568 4225 1568 4067 
C 1568 3901 1696 3850 1786 3850 
C 1875 3850 2003 3901 2003 4067 
C 2003 4308 1773 4454 1517 4454 
C 1152 4454 653 4156 653 3481 
L 653 2725 
L 141 2725 
L 141 2560 
L 653 2560 
L 653 427 
C 653 184 627 153 218 153 
L 218 -13 
C 371 0 666 0 832 0 
C 1018 0 1344 0 1517 -13 
L 1517 153 
C 1056 153 979 153 979 439 
L 979 2560 
z
" transform="scale(0.015625)"/>
     <path id="CMR17-d" d="M 2554 4409 
C 2483 4396 2426 4384 2342 4365 
C 2157 4460 1914 4460 1850 4460 
C 1306 4460 634 4154 634 3472 
L 634 2725 
L 122 2725 
L 122 2560 
L 634 2560 
L 634 427 
C 634 184 608 153 198 153 
L 198 -13 
C 352 0 634 0 794 0 
C 960 0 1242 0 1395 -13 
L 1395 153 
C 986 153 960 178 960 427 
L 960 2560 
L 2227 2560 
L 2227 427 
C 2227 184 2202 153 1792 153 
L 1792 -13 
C 1946 0 2227 0 2387 0 
C 2554 0 2835 0 2989 -13 
L 2989 153 
C 2579 153 2554 178 2554 427 
L 2554 4409 
z
M 947 2725 
L 947 3469 
C 947 4028 1370 4352 1837 4352 
C 1869 4352 2221 4352 2221 4282 
C 2221 4275 2214 4269 2182 4237 
C 2125 4199 2099 4135 2099 4071 
C 2099 3981 2144 3905 2227 3873 
L 2227 2725 
L 947 2725 
z
" transform="scale(0.015625)"/>
     <path id="CMR17-63" d="M 2234 2240 
C 2112 2240 1933 2240 1933 2017 
C 1933 1838 2080 1787 2163 1787 
C 2208 1787 2394 1807 2394 2024 
C 2394 2467 1958 2803 1466 2803 
C 787 2803 211 2178 211 1363 
C 211 516 813 -64 1466 -64 
C 2259 -64 2458 677 2458 748 
C 2458 774 2451 793 2406 793 
C 2362 793 2355 787 2330 703 
C 2163 180 1798 51 1523 51 
C 1114 51 621 427 621 1369 
C 621 2338 1094 2688 1472 2688 
C 1722 2688 2093 2573 2234 2240 
z
" transform="scale(0.015625)"/>
     <path id="CMR17-64" d="M 1869 4326 
L 1869 4160 
C 2246 4160 2304 4122 2304 3820 
L 2304 2345 
C 2278 2377 2016 2790 1498 2790 
C 845 2790 211 2208 211 1364 
C 211 525 806 -64 1434 -64 
C 1978 -64 2259 337 2291 380 
L 2291 -63 
L 3066 -63 
L 3066 128 
C 2688 128 2630 166 2630 473 
L 2630 4396 
L 1869 4326 
z
M 2291 755 
C 2291 563 2176 390 2029 262 
C 1811 70 1594 38 1472 38 
C 1286 38 621 134 621 1356 
C 621 2612 1363 2688 1530 2688 
C 1824 2688 2061 2522 2208 2291 
C 2291 2157 2291 2138 2291 2023 
L 2291 755 
z
" transform="scale(0.015625)"/>
     <path id="CMR17-6d" d="M 4326 1933 
C 4326 2252 4269 2790 3507 2790 
C 3072 2790 2771 2496 2656 2151 
L 2650 2151 
C 2573 2676 2195 2790 1837 2790 
C 1331 2790 1069 2400 973 2144 
L 966 2144 
L 966 2790 
L 211 2720 
L 211 2554 
C 589 2554 646 2515 646 2208 
L 646 428 
C 646 184 621 153 211 153 
L 211 -13 
C 365 0 646 0 813 0 
C 979 0 1267 0 1421 -13 
L 1421 153 
C 1011 153 986 178 986 428 
L 986 1658 
C 986 2247 1344 2688 1792 2688 
C 2266 2688 2317 2266 2317 1958 
L 2317 428 
C 2317 184 2291 153 1882 153 
L 1882 -13 
C 2035 0 2317 0 2483 0 
C 2650 0 2938 0 3091 -13 
L 3091 153 
C 2682 153 2656 178 2656 428 
L 2656 1658 
C 2656 2247 3014 2688 3462 2688 
C 3936 2688 3987 2266 3987 1958 
L 3987 428 
C 3987 184 3962 153 3552 153 
L 3552 -13 
C 3706 0 3987 0 4154 0 
C 4320 0 4608 0 4762 -13 
L 4762 153 
C 4352 153 4326 178 4326 428 
L 4326 1933 
z
" transform="scale(0.015625)"/>
     <path id="CMR17-68" d="M 2656 1933 
C 2656 2259 2592 2790 1837 2790 
C 1312 2790 1056 2368 979 2157 
L 973 2157 
L 973 4396 
L 211 4326 
L 211 4160 
C 589 4160 646 4122 646 3817 
L 646 426 
C 646 184 621 153 211 153 
L 211 -13 
C 365 0 646 0 813 0 
C 979 0 1267 0 1421 -13 
L 1421 153 
C 1011 153 986 178 986 428 
L 986 1658 
C 986 2247 1344 2688 1792 2688 
C 2266 2688 2317 2266 2317 1958 
L 2317 428 
C 2317 184 2291 153 1882 153 
L 1882 -13 
C 2035 0 2317 0 2483 0 
C 2650 0 2938 0 3091 -13 
L 3091 153 
C 2682 153 2656 178 2656 428 
L 2656 1933 
z
" transform="scale(0.015625)"/>
     <path id="CMR17-2c" d="M 1011 102 
C 1024 45 1024 25 1024 -77 
C 1024 -463 896 -817 627 -1139 
C 595 -1170 595 -1183 595 -1197 
C 595 -1222 621 -1248 646 -1248 
C 685 -1248 1126 -799 1126 -87 
C 1126 124 1101 522 800 522 
C 659 522 538 427 538 261 
C 538 96 659 0 800 0 
C 877 0 960 32 1011 102 
z
" transform="scale(0.015625)"/>
    </defs>
    <use xlink:href="#CMR17-52" transform="scale(0.996264)"/>
    <use xlink:href="#CMR17-65" transform="translate(67.791102 0) scale(0.996264)"/>
    <use xlink:href="#CMR17-6c" transform="translate(108.276762 0) scale(0.996264)"/>
    <use xlink:href="#CMR17-61" transform="translate(133.147821 0) scale(0.996264)"/>
    <use xlink:href="#CMR17-74" transform="translate(178.838298 0) scale(0.996264)"/>
    <use xlink:href="#CMR17-69" transform="translate(214.119066 0) scale(0.996264)"/>
    <use xlink:href="#CMR17-76" transform="translate(238.990124 0) scale(0.996264)"/>
    <use xlink:href="#CMR17-65" transform="translate(284.680586 0) scale(0.996264)"/>
    <use xlink:href="#CMR17-69" transform="translate(355.242213 0) scale(0.996264)"/>
    <use xlink:href="#CMR17-6e" transform="translate(380.113272 0) scale(0.996264)"/>
    <use xlink:href="#CMR17-74" transform="translate(428.406187 0) scale(0.996264)"/>
    <use xlink:href="#CMR17-65" transform="translate(463.686955 0) scale(0.996264)"/>
    <use xlink:href="#CMR17-6e" transform="translate(504.172616 0) scale(0.996264)"/>
    <use xlink:href="#CMR17-73" transform="translate(555.067985 0) scale(0.996264)"/>
    <use xlink:href="#CMR17-69" transform="translate(590.869323 0) scale(0.996264)"/>
    <use xlink:href="#CMR17-74" transform="translate(615.740382 0) scale(0.996264)"/>
    <use xlink:href="#CMR17-79" transform="translate(648.418695 0) scale(0.996264)"/>
    <use xlink:href="#CMR17-66" transform="translate(726.787578 0) scale(0.996264)"/>
    <use xlink:href="#CMR17-6f" transform="translate(754.26109 0) scale(0.996264)"/>
    <use xlink:href="#CMR17-72" transform="translate(799.951567 0) scale(0.996264)"/>
    <use xlink:href="#CMR17-72" transform="translate(865.308301 0) scale(0.996264)"/>
    <use xlink:href="#CMR17-65" transform="translate(900.589069 0) scale(0.996264)"/>
    <use xlink:href="#CMR17-d" transform="translate(941.07473 0) scale(0.996264)"/>
    <use xlink:href="#CMR17-65" transform="translate(990.816953 0) scale(0.996264)"/>
    <use xlink:href="#CMR17-63" transform="translate(1031.302613 0) scale(0.996264)"/>
    <use xlink:href="#CMR17-74" transform="translate(1071.788274 0) scale(0.996264)"/>
    <use xlink:href="#CMR17-65" transform="translate(1107.069042 0) scale(0.996264)"/>
    <use xlink:href="#CMR17-64" transform="translate(1147.554702 0) scale(0.996264)"/>
    <use xlink:href="#CMR17-61" transform="translate(1228.526038 0) scale(0.996264)"/>
    <use xlink:href="#CMR17-6e" transform="translate(1274.216515 0) scale(0.996264)"/>
    <use xlink:href="#CMR17-64" transform="translate(1325.111885 0) scale(0.996264)"/>
    <use xlink:href="#CMR17-74" transform="translate(1406.083221 0) scale(0.996264)"/>
    <use xlink:href="#CMR17-72" transform="translate(1441.363989 0) scale(0.996264)"/>
    <use xlink:href="#CMR17-61" transform="translate(1476.644757 0) scale(0.996264)"/>
    <use xlink:href="#CMR17-6e" transform="translate(1522.335234 0) scale(0.996264)"/>
    <use xlink:href="#CMR17-73" transform="translate(1573.230604 0) scale(0.996264)"/>
    <use xlink:href="#CMR17-6d" transform="translate(1609.031941 0) scale(0.996264)"/>
    <use xlink:href="#CMR17-69" transform="translate(1685.951531 0) scale(0.996264)"/>
    <use xlink:href="#CMR17-74" transform="translate(1710.82259 0) scale(0.996264)"/>
    <use xlink:href="#CMR17-74" transform="translate(1746.103358 0) scale(0.996264)"/>
    <use xlink:href="#CMR17-65" transform="translate(1781.384125 0) scale(0.996264)"/>
    <use xlink:href="#CMR17-64" transform="translate(1821.869786 0) scale(0.996264)"/>
    <use xlink:href="#CMR17-6c" transform="translate(1902.841122 0) scale(0.996264)"/>
    <use xlink:href="#CMR17-69" transform="translate(1927.71218 0) scale(0.996264)"/>
    <use xlink:href="#CMR17-67" transform="translate(1952.583239 0) scale(0.996264)"/>
    <use xlink:href="#CMR17-68" transform="translate(1998.273716 0) scale(0.996264)"/>
    <use xlink:href="#CMR17-74" transform="translate(2046.566632 0) scale(0.996264)"/>
    <use xlink:href="#CMR17-2c" transform="translate(2081.8474 0) scale(0.996264)"/>
   </g>
   <!--  in the case of light traveling from glass to air -->
   <g transform="translate(147.608259 49.820449) scale(0.24 -0.24)">
    <use xlink:href="#CMR17-69" transform="scale(0.996264)"/>
    <use xlink:href="#CMR17-6e" transform="translate(24.871058 0) scale(0.996264)"/>
    <use xlink:href="#CMR17-74" transform="translate(105.842395 0) scale(0.996264)"/>
    <use xlink:href="#CMR17-68" transform="translate(141.123162 0) scale(0.996264)"/>
    <use xlink:href="#CMR17-65" transform="translate(192.018532 0) scale(0.996264)"/>
    <use xlink:href="#CMR17-63" transform="translate(262.580159 0) scale(0.996264)"/>
    <use xlink:href="#CMR17-61" transform="translate(303.065819 0) scale(0.996264)"/>
    <use xlink:href="#CMR17-73" transform="translate(348.756297 0) scale(0.996264)"/>
    <use xlink:href="#CMR17-65" transform="translate(384.557634 0) scale(0.996264)"/>
    <use xlink:href="#CMR17-6f" transform="translate(455.119261 0) scale(0.996264)"/>
    <use xlink:href="#CMR17-66" transform="translate(500.809738 0) scale(0.996264)"/>
    <use xlink:href="#CMR17-6c" transform="translate(558.359217 0) scale(0.996264)"/>
    <use xlink:href="#CMR17-69" transform="translate(583.230275 0) scale(0.996264)"/>
    <use xlink:href="#CMR17-67" transform="translate(608.101334 0) scale(0.996264)"/>
    <use xlink:href="#CMR17-68" transform="translate(653.791811 0) scale(0.996264)"/>
    <use xlink:href="#CMR17-74" transform="translate(702.084727 0) scale(0.996264)"/>
    <use xlink:href="#CMR17-74" transform="translate(767.441461 0) scale(0.996264)"/>
    <use xlink:href="#CMR17-72" transform="translate(802.722229 0) scale(0.996264)"/>
    <use xlink:href="#CMR17-61" transform="translate(838.002997 0) scale(0.996264)"/>
    <use xlink:href="#CMR17-76" transform="translate(881.09102 0) scale(0.996264)"/>
    <use xlink:href="#CMR17-65" transform="translate(926.781482 0) scale(0.996264)"/>
    <use xlink:href="#CMR17-6c" transform="translate(967.267142 0) scale(0.996264)"/>
    <use xlink:href="#CMR17-69" transform="translate(992.138201 0) scale(0.996264)"/>
    <use xlink:href="#CMR17-6e" transform="translate(1017.009259 0) scale(0.996264)"/>
    <use xlink:href="#CMR17-67" transform="translate(1067.904629 0) scale(0.996264)"/>
    <use xlink:href="#CMR17-66" transform="translate(1143.671072 0) scale(0.996264)"/>
    <use xlink:href="#CMR17-72" transform="translate(1171.144585 0) scale(0.996264)"/>
    <use xlink:href="#CMR17-6f" transform="translate(1206.425353 0) scale(0.996264)"/>
    <use xlink:href="#CMR17-6d" transform="translate(1252.11583 0) scale(0.996264)"/>
    <use xlink:href="#CMR17-67" transform="translate(1359.111386 0) scale(0.996264)"/>
    <use xlink:href="#CMR17-6c" transform="translate(1404.801863 0) scale(0.996264)"/>
    <use xlink:href="#CMR17-61" transform="translate(1429.672921 0) scale(0.996264)"/>
    <use xlink:href="#CMR17-73" transform="translate(1475.363399 0) scale(0.996264)"/>
    <use xlink:href="#CMR17-73" transform="translate(1511.164736 0) scale(0.996264)"/>
    <use xlink:href="#CMR17-74" transform="translate(1577.04204 0) scale(0.996264)"/>
    <use xlink:href="#CMR17-6f" transform="translate(1612.322808 0) scale(0.996264)"/>
    <use xlink:href="#CMR17-61" transform="translate(1688.089251 0) scale(0.996264)"/>
    <use xlink:href="#CMR17-69" transform="translate(1733.779729 0) scale(0.996264)"/>
    <use xlink:href="#CMR17-72" transform="translate(1758.650787 0) scale(0.996264)"/>
   </g>
  </g>
  <g id="legend_1">
   <g id="patch_12">
    <path d="M 628.528561 84.682861 
L 852.1 84.682861 
Q 855.5 84.682861 855.5 81.282861 
L 855.5 11.9 
Q 855.5 8.5 852.1 8.5 
L 628.528561 8.5 
Q 625.128561 8.5 625.128561 11.9 
L 625.128561 81.282861 
Q 625.128561 84.682861 628.528561 84.682861 
z
" style="fill: #ffffff; opacity: 0.5; stroke: #000000; stroke-linejoin: miter"/>
   </g>
   <g id="line2d_13">
    <path d="M 631.928561 21.25 
L 648.928561 21.25 
L 665.928561 21.25 
" style="fill: none; stroke-dasharray: 5.55,2.4; stroke-dashoffset: 0; stroke: #000000; stroke-width: 1.5"/>
   </g>
   <g id="text_23">
    <!-- Best fit $n_1 =1.30 \pm 0.00$ -->
    <g transform="translate(679.528561 27.2) scale(0.17 -0.17)">
     <defs>
      <path id="CMR17-42" d="M 333 4352 
L 333 4186 
C 774 4186 845 4186 845 3900 
L 845 452 
C 845 166 774 166 333 166 
L 333 0 
L 2534 0 
C 3354 0 3885 583 3885 1164 
C 3885 1741 3360 2233 2675 2233 
C 3290 2356 3718 2771 3718 3264 
C 3718 3802 3194 4352 2368 4352 
L 333 4352 
z
M 1248 2304 
L 1248 3937 
C 1248 4155 1261 4186 1517 4186 
L 2336 4186 
C 2970 4186 3251 3674 3251 3277 
C 3251 2791 2861 2304 2170 2304 
L 1248 2304 
z
M 1517 166 
C 1261 166 1248 197 1248 413 
L 1248 2202 
L 2432 2202 
C 3091 2202 3411 1625 3411 1162 
C 3411 699 3046 166 2349 166 
L 1517 166 
z
" transform="scale(0.015625)"/>
      <path id="CMR17-c" d="M 2554 2764 
C 2400 2764 1926 2764 1805 2739 
C 1766 2725 1754 2725 1677 2725 
L 947 2725 
L 947 3469 
C 947 4073 1434 4352 1818 4352 
C 1939 4352 2214 4320 2355 4101 
C 2291 4101 2086 4101 2086 3878 
C 2086 3725 2189 3648 2317 3648 
C 2432 3648 2547 3712 2547 3885 
C 2547 4205 2240 4454 1843 4454 
C 1338 4454 634 4168 634 3469 
L 634 2725 
L 122 2725 
L 122 2560 
L 634 2560 
L 634 427 
C 634 184 608 153 198 153 
L 198 -13 
C 352 0 634 0 794 0 
C 960 0 1242 0 1395 -13 
L 1395 153 
C 986 153 960 178 960 427 
L 960 2560 
L 1901 2560 
C 2176 2560 2227 2502 2227 2222 
L 2227 427 
C 2227 184 2202 153 1792 153 
L 1792 -13 
C 1946 0 2227 0 2387 0 
C 2554 0 2835 0 2989 -13 
L 2989 153 
C 2579 153 2554 178 2554 427 
L 2554 2764 
z
" transform="scale(0.015625)"/>
      <path id="CMMI12-6e" d="M 1318 1871 
C 1331 1910 1491 2229 1728 2433 
C 1894 2586 2112 2689 2362 2689 
C 2618 2689 2707 2497 2707 2242 
C 2707 1878 2445 1150 2317 805 
C 2259 651 2227 568 2227 453 
C 2227 166 2426 -64 2733 -64 
C 3328 -64 3552 875 3552 913 
C 3552 945 3526 971 3488 971 
C 3430 971 3424 952 3392 843 
C 3245 319 3002 64 2752 64 
C 2688 64 2586 64 2586 269 
C 2586 429 2656 621 2694 710 
C 2822 1063 3091 1780 3091 2145 
C 3091 2528 2867 2816 2381 2816 
C 1811 2816 1510 2415 1395 2255 
C 1376 2618 1114 2816 832 2816 
C 627 2816 486 2695 378 2478 
C 262 2248 173 1865 173 1839 
C 173 1814 198 1782 243 1782 
C 294 1782 301 1788 339 1935 
C 442 2325 557 2689 813 2689 
C 960 2689 1011 2586 1011 2395 
C 1011 2254 947 2005 902 1807 
L 723 1118 
C 698 996 627 709 595 594 
C 550 428 480 128 480 96 
C 480 6 550 -64 646 -64 
C 723 -64 813 -26 864 70 
C 877 102 934 326 966 453 
L 1107 1028 
L 1318 1871 
z
" transform="scale(0.015625)"/>
      <path id="CMR17-3d" d="M 4115 2017 
C 4211 2017 4307 2017 4307 2125 
C 4307 2240 4198 2240 4090 2240 
L 512 2240 
C 403 2240 294 2240 294 2125 
C 294 2017 390 2017 486 2017 
L 4115 2017 
z
M 4090 896 
C 4198 896 4307 896 4307 1011 
C 4307 1119 4211 1119 4115 1119 
L 486 1119 
C 390 1119 294 1119 294 1011 
C 294 896 403 896 512 896 
L 4090 896 
z
" transform="scale(0.015625)"/>
      <path id="CMR17-33" d="M 1414 2157 
C 1984 2157 2234 1662 2234 1090 
C 2234 320 1824 25 1453 25 
C 1114 25 563 194 390 693 
C 422 680 454 680 486 680 
C 640 680 755 782 755 948 
C 755 1133 614 1216 486 1216 
C 378 1216 211 1165 211 926 
C 211 335 787 -128 1466 -128 
C 2176 -128 2720 430 2720 1085 
C 2720 1707 2208 2157 1600 2227 
C 2086 2328 2554 2756 2554 3329 
C 2554 3820 2048 4179 1472 4179 
C 890 4179 378 3829 378 3329 
C 378 3110 544 3072 627 3072 
C 762 3072 877 3155 877 3321 
C 877 3486 762 3569 627 3569 
C 602 3569 570 3569 544 3557 
C 730 3959 1235 4032 1459 4032 
C 1683 4032 2106 3925 2106 3320 
C 2106 3143 2080 2828 1862 2550 
C 1670 2304 1453 2304 1242 2284 
C 1210 2284 1062 2269 1037 2269 
C 992 2263 966 2257 966 2208 
C 966 2163 973 2157 1101 2157 
L 1414 2157 
z
" transform="scale(0.015625)"/>
      <path id="CMSY10-6" d="M 2618 1984 
L 4397 1984 
C 4506 1984 4621 1984 4621 2112 
C 4621 2240 4506 2240 4397 2240 
L 2618 2240 
L 2618 4018 
C 2618 4121 2618 4256 2490 4256 
C 2362 4256 2362 4140 2362 4038 
L 2362 2240 
L 576 2240 
C 467 2240 352 2240 352 2112 
C 352 1984 467 1984 576 1984 
L 2362 1984 
L 2362 256 
L 576 256 
C 467 256 352 256 352 128 
C 352 0 467 0 576 0 
L 4397 0 
C 4506 0 4621 0 4621 128 
C 4621 256 4506 256 4397 256 
L 2618 256 
L 2618 1984 
z
" transform="scale(0.015625)"/>
     </defs>
     <use xlink:href="#CMR17-42" transform="scale(0.996264)"/>
     <use xlink:href="#CMR17-65" transform="translate(65.188754 0) scale(0.996264)"/>
     <use xlink:href="#CMR17-73" transform="translate(105.674415 0) scale(0.996264)"/>
     <use xlink:href="#CMR17-74" transform="translate(141.475753 0) scale(0.996264)"/>
     <use xlink:href="#CMR17-c" transform="translate(206.832487 0) scale(0.996264)"/>
     <use xlink:href="#CMR17-74" transform="translate(256.57471 0) scale(0.996264)"/>
     <use xlink:href="#CMMI12-6e" transform="translate(321.931444 0) scale(0.996264)"/>
     <use xlink:href="#CMR17-31" transform="translate(380.161492 -14.943915) scale(0.697382)"/>
     <use xlink:href="#CMR17-3d" transform="translate(440.316814 0) scale(0.996264)"/>
     <use xlink:href="#CMR17-31" transform="translate(539.705611 0) scale(0.996264)"/>
     <use xlink:href="#CMMI12-3a" transform="translate(585.396089 0) scale(0.996264)"/>
     <use xlink:href="#CMR17-33" transform="translate(612.493266 0) scale(0.996264)"/>
     <use xlink:href="#CMR17-30" transform="translate(658.183743 0) scale(0.996264)"/>
     <use xlink:href="#CMSY10-6" transform="translate(726.013427 0) scale(0.996264)"/>
     <use xlink:href="#CMR17-30" transform="translate(825.640101 0) scale(0.996264)"/>
     <use xlink:href="#CMMI12-3a" transform="translate(871.330579 0) scale(0.996264)"/>
     <use xlink:href="#CMR17-30" transform="translate(898.427756 0) scale(0.996264)"/>
     <use xlink:href="#CMR17-30" transform="translate(944.118233 0) scale(0.996264)"/>
    </g>
   </g>
   <g id="LineCollection_9">
    <path d="M 640.428561 44.944287 
L 657.428561 44.944287 
" style="fill: none; stroke: #1f77b4; stroke-width: 1.5"/>
   </g>
   <g id="LineCollection_10">
    <path d="M 648.928561 53.444287 
L 648.928561 36.444287 
" style="fill: none; stroke: #1f77b4; stroke-width: 1.5"/>
   </g>
   <g id="line2d_14"/>
   <g id="line2d_15">
    <g>
     <use xlink:href="#mcbc38b4d3e" x="648.928561" y="44.944287" style="fill: #1f77b4; stroke: #1f77b4"/>
    </g>
   </g>
   <g id="text_24">
    <!-- Transmitted -->
    <g transform="translate(679.528561 50.894287) scale(0.17 -0.17)">
     <defs>
      <path id="CMR17-54" d="M 3981 4326 
L 288 4326 
L 179 2918 
L 294 2918 
C 378 3976 467 4160 1453 4160 
C 1568 4160 1754 4160 1805 4154 
C 1926 4135 1926 4058 1926 3912 
L 1926 459 
C 1926 230 1907 160 1376 160 
L 1197 160 
L 1197 0 
C 1504 0 1824 0 2138 0 
C 2451 0 2771 0 3078 0 
L 3078 160 
L 2899 160 
C 2368 160 2349 230 2349 459 
L 2349 3912 
C 2349 4052 2349 4129 2464 4154 
C 2515 4160 2701 4160 2816 4160 
C 3795 4160 3891 3976 3974 2918 
L 4090 2918 
L 3981 4326 
z
" transform="scale(0.015625)"/>
     </defs>
     <use xlink:href="#CMR17-54" transform="scale(0.996264)"/>
     <use xlink:href="#CMR17-72" transform="translate(58.702625 0) scale(0.996264)"/>
     <use xlink:href="#CMR17-61" transform="translate(93.983393 0) scale(0.996264)"/>
     <use xlink:href="#CMR17-6e" transform="translate(139.67387 0) scale(0.996264)"/>
     <use xlink:href="#CMR17-73" transform="translate(190.56924 0) scale(0.996264)"/>
     <use xlink:href="#CMR17-6d" transform="translate(226.370577 0) scale(0.996264)"/>
     <use xlink:href="#CMR17-69" transform="translate(303.290167 0) scale(0.996264)"/>
     <use xlink:href="#CMR17-74" transform="translate(328.161226 0) scale(0.996264)"/>
     <use xlink:href="#CMR17-74" transform="translate(363.441994 0) scale(0.996264)"/>
     <use xlink:href="#CMR17-65" transform="translate(398.722761 0) scale(0.996264)"/>
     <use xlink:href="#CMR17-64" transform="translate(439.208422 0) scale(0.996264)"/>
    </g>
   </g>
   <g id="LineCollection_11">
    <path d="M 640.428561 68.638574 
L 657.428561 68.638574 
" style="fill: none; stroke: #d62728; stroke-width: 1.5"/>
   </g>
   <g id="LineCollection_12">
    <path d="M 648.928561 77.138574 
L 648.928561 60.138574 
" style="fill: none; stroke: #d62728; stroke-width: 1.5"/>
   </g>
   <g id="line2d_16"/>
   <g id="line2d_17">
    <g>
     <use xlink:href="#mb809e2bc47" x="648.928561" y="68.638574" style="fill: #d62728; stroke: #d62728"/>
    </g>
   </g>
   <g id="text_25">
    <!-- Reflected -->
    <g transform="translate(679.528561 74.588574) scale(0.17 -0.17)">
     <use xlink:href="#CMR17-52" transform="scale(0.996264)"/>
     <use xlink:href="#CMR17-65" transform="translate(67.791102 0) scale(0.996264)"/>
     <use xlink:href="#CMR17-d" transform="translate(108.276762 0) scale(0.996264)"/>
     <use xlink:href="#CMR17-65" transform="translate(158.018986 0) scale(0.996264)"/>
     <use xlink:href="#CMR17-63" transform="translate(198.504646 0) scale(0.996264)"/>
     <use xlink:href="#CMR17-74" transform="translate(238.990307 0) scale(0.996264)"/>
     <use xlink:href="#CMR17-65" transform="translate(274.271075 0) scale(0.996264)"/>
     <use xlink:href="#CMR17-64" transform="translate(314.756735 0) scale(0.996264)"/>
    </g>
   </g>
  </g>
 </g>
 <defs>
  <clipPath id="p15811d7869">
   <rect x="65.509683" y="111.635611" width="377.645159" height="258.090253"/>
  </clipPath>
  <clipPath id="p7743c4d1ec">
   <rect x="464.754841" y="111.635611" width="377.645159" height="258.090253"/>
  </clipPath>
 </defs>
</svg>
