<?xml version="1.0" encoding="utf-8" standalone="no"?>
<!DOCTYPE svg PUBLIC "-//W3C//DTD SVG 1.1//EN"
  "http://www.w3.org/Graphics/SVG/1.1/DTD/svg11.dtd">
<svg xmlns:xlink="http://www.w3.org/1999/xlink" width="864pt" height="432pt" viewBox="0 0 864 432" xmlns="http://www.w3.org/2000/svg" version="1.1">
 <metadata>
  <rdf:RDF xmlns:dc="http://purl.org/dc/elements/1.1/" xmlns:cc="http://creativecommons.org/ns#" xmlns:rdf="http://www.w3.org/1999/02/22-rdf-syntax-ns#">
   <cc:Work>
    <dc:type rdf:resource="http://purl.org/dc/dcmitype/StillImage"/>
    <dc:date>2026-03-12T08:42:16.542433</dc:date>
    <dc:format>image/svg+xml</dc:format>
    <dc:creator>
     <cc:Agent>
      <dc:title>Matplotlib v3.9.2, https://matplotlib.org/</dc:title>
     </cc:Agent>
    </dc:creator>
   </cc:Work>
  </rdf:RDF>
 </metadata>
 <defs>
  <style type="text/css">*{stroke-linejoin: round; stroke-linecap: butt}</style>
 </defs>
 <g id="figure_1">
  <g id="patch_1">
   <path d="M 0 432 
L 864 432 
L 864 0 
L 0 0 
z
" style="fill: #ffffff"/>
  </g>
  <g id="axes_1">
   <g id="patch_2">
    <path d="M 65.509683 371.9039 
L 443.154841 371.9039 
L 443.154841 87.059568 
L 65.509683 87.059568 
z
" style="fill: #ffffff"/>
   </g>
   <g id="matplotlib.axis_1">
    <g id="xtick_1">
     <g id="text_1">
      <!-- $\mathdefault{0}$ -->
      <g transform="translate(79.017253 385.781625) scale(0.15 -0.15)">
       <defs>
        <path id="CMR17-30" d="M 2688 2025 
C 2688 2416 2682 3080 2413 3591 
C 2176 4039 1798 4198 1466 4198 
C 1158 4198 768 4058 525 3597 
C 269 3118 243 2524 243 2025 
C 243 1661 250 1106 448 619 
C 723 -39 1216 -128 1466 -128 
C 1760 -128 2208 -7 2470 600 
C 2662 1042 2688 1559 2688 2025 
z
M 1466 -26 
C 1056 -26 813 325 723 812 
C 653 1188 653 1738 653 2096 
C 653 2588 653 2997 736 3387 
C 858 3929 1216 4096 1466 4096 
C 1728 4096 2067 3923 2189 3400 
C 2272 3036 2278 2607 2278 2096 
C 2278 1680 2278 1169 2202 792 
C 2067 95 1690 -26 1466 -26 
z
" transform="scale(0.015625)"/>
       </defs>
       <use xlink:href="#CMR17-30" transform="scale(0.996264)"/>
      </g>
     </g>
    </g>
    <g id="xtick_2">
     <g id="text_2">
      <!-- $\mathdefault{10}$ -->
      <g transform="translate(151.651085 385.781625) scale(0.15 -0.15)">
       <defs>
        <path id="CMR17-31" d="M 1702 4058 
C 1702 4192 1696 4192 1606 4192 
C 1357 3916 979 3827 621 3827 
C 602 3827 570 3827 563 3808 
C 557 3795 557 3782 557 3648 
C 755 3648 1088 3686 1344 3839 
L 1344 461 
C 1344 236 1331 160 781 160 
L 589 160 
L 589 0 
C 896 0 1216 0 1523 0 
C 1830 0 2150 0 2458 0 
L 2458 160 
L 2266 160 
C 1715 160 1702 230 1702 458 
L 1702 4058 
z
" transform="scale(0.015625)"/>
       </defs>
       <use xlink:href="#CMR17-31" transform="scale(0.996264)"/>
       <use xlink:href="#CMR17-30" transform="translate(45.690477 0) scale(0.996264)"/>
      </g>
     </g>
    </g>
    <g id="xtick_3">
     <g id="text_3">
      <!-- $\mathdefault{20}$ -->
      <g transform="translate(227.943036 385.781625) scale(0.15 -0.15)">
       <defs>
        <path id="CMR17-32" d="M 2669 989 
L 2554 989 
C 2490 536 2438 459 2413 420 
C 2381 369 1920 369 1830 369 
L 602 369 
C 832 619 1280 1072 1824 1597 
C 2214 1967 2669 2402 2669 3035 
C 2669 3790 2067 4224 1395 4224 
C 691 4224 262 3604 262 3030 
C 262 2780 448 2748 525 2748 
C 589 2748 781 2787 781 3010 
C 781 3207 614 3264 525 3264 
C 486 3264 448 3258 422 3245 
C 544 3790 915 4058 1306 4058 
C 1862 4058 2227 3617 2227 3035 
C 2227 2479 1901 2000 1536 1584 
L 262 146 
L 262 0 
L 2515 0 
L 2669 989 
z
" transform="scale(0.015625)"/>
       </defs>
       <use xlink:href="#CMR17-32" transform="scale(0.996264)"/>
       <use xlink:href="#CMR17-30" transform="translate(45.690477 0) scale(0.996264)"/>
      </g>
     </g>
    </g>
    <g id="xtick_4">
     <g id="text_4">
      <!-- $\mathdefault{30}$ -->
      <g transform="translate(304.234988 385.781625) scale(0.15 -0.15)">
       <defs>
        <path id="CMR17-33" d="M 1414 2157 
C 1984 2157 2234 1662 2234 1090 
C 2234 320 1824 25 1453 25 
C 1114 25 563 194 390 693 
C 422 680 454 680 486 680 
C 640 680 755 782 755 948 
C 755 1133 614 1216 486 1216 
C 378 1216 211 1165 211 926 
C 211 335 787 -128 1466 -128 
C 2176 -128 2720 430 2720 1085 
C 2720 1707 2208 2157 1600 2227 
C 2086 2328 2554 2756 2554 3329 
C 2554 3820 2048 4179 1472 4179 
C 890 4179 378 3829 378 3329 
C 378 3110 544 3072 627 3072 
C 762 3072 877 3155 877 3321 
C 877 3486 762 3569 627 3569 
C 602 3569 570 3569 544 3557 
C 730 3959 1235 4032 1459 4032 
C 1683 4032 2106 3925 2106 3320 
C 2106 3143 2080 2828 1862 2550 
C 1670 2304 1453 2304 1242 2284 
C 1210 2284 1062 2269 1037 2269 
C 992 2263 966 2257 966 2208 
C 966 2163 973 2157 1101 2157 
L 1414 2157 
z
" transform="scale(0.015625)"/>
       </defs>
       <use xlink:href="#CMR17-33" transform="scale(0.996264)"/>
       <use xlink:href="#CMR17-30" transform="translate(45.690477 0) scale(0.996264)"/>
      </g>
     </g>
    </g>
    <g id="xtick_5">
     <g id="text_5">
      <!-- $\mathdefault{40}$ -->
      <g transform="translate(380.526939 385.781625) scale(0.15 -0.15)">
       <defs>
        <path id="CMR17-34" d="M 2150 4122 
C 2150 4256 2144 4256 2029 4256 
L 128 1254 
L 128 1088 
L 1779 1088 
L 1779 457 
C 1779 224 1766 160 1318 160 
L 1197 160 
L 1197 0 
C 1402 0 1747 0 1965 0 
C 2182 0 2528 0 2733 0 
L 2733 160 
L 2611 160 
C 2163 160 2150 224 2150 457 
L 2150 1088 
L 2803 1088 
L 2803 1254 
L 2150 1254 
L 2150 4122 
z
M 1798 3703 
L 1798 1254 
L 256 1254 
L 1798 3703 
z
" transform="scale(0.015625)"/>
       </defs>
       <use xlink:href="#CMR17-34" transform="scale(0.996264)"/>
       <use xlink:href="#CMR17-30" transform="translate(45.690477 0) scale(0.996264)"/>
      </g>
     </g>
    </g>
    <g id="text_6">
     <!-- $\theta_1$ -->
     <g transform="translate(246.372054 406.524366) scale(0.2 -0.2)">
      <defs>
       <path id="CMMI12-12" d="M 2835 3200 
C 2835 3850 2630 4480 2106 4480 
C 1210 4480 256 2615 256 1216 
C 256 923 320 -64 992 -64 
C 1862 -64 2835 1756 2835 3200 
z
M 896 2304 
C 992 2679 1126 3214 1382 3665 
C 1594 4047 1818 4352 2099 4352 
C 2310 4352 2451 4174 2451 3564 
C 2451 3334 2432 3017 2246 2304 
L 896 2304 
z
M 2202 2113 
C 2042 1490 1907 1088 1677 687 
C 1491 363 1267 64 998 64 
C 800 64 640 217 640 846 
C 640 1260 742 1693 845 2113 
L 2202 2113 
z
" transform="scale(0.015625)"/>
      </defs>
      <use xlink:href="#CMMI12-12" transform="scale(0.996264)"/>
      <use xlink:href="#CMR17-31" transform="translate(45.45979 -14.943915) scale(0.697382)"/>
     </g>
    </g>
   </g>
   <g id="matplotlib.axis_2">
    <g id="ytick_1">
     <g id="text_7">
      <!-- $\mathdefault{1.2}$ -->
      <g transform="translate(43.31263 358.122927) scale(0.15 -0.15)">
       <defs>
        <path id="CMMI12-3a" d="M 1178 307 
C 1178 492 1024 619 870 619 
C 685 619 557 466 557 313 
C 557 128 710 0 864 0 
C 1050 0 1178 153 1178 307 
z
" transform="scale(0.015625)"/>
       </defs>
       <use xlink:href="#CMR17-31" transform="scale(0.996264)"/>
       <use xlink:href="#CMMI12-3a" transform="translate(45.690477 0) scale(0.996264)"/>
       <use xlink:href="#CMR17-32" transform="translate(72.787654 0) scale(0.996264)"/>
      </g>
     </g>
    </g>
    <g id="ytick_2">
     <g id="text_8">
      <!-- $\mathdefault{1.3}$ -->
      <g transform="translate(43.31263 306.477298) scale(0.15 -0.15)">
       <use xlink:href="#CMR17-31" transform="scale(0.996264)"/>
       <use xlink:href="#CMMI12-3a" transform="translate(45.690477 0) scale(0.996264)"/>
       <use xlink:href="#CMR17-33" transform="translate(72.787654 0) scale(0.996264)"/>
      </g>
     </g>
    </g>
    <g id="ytick_3">
     <g id="text_9">
      <!-- $\mathdefault{1.4}$ -->
      <g transform="translate(43.31263 254.83167) scale(0.15 -0.15)">
       <use xlink:href="#CMR17-31" transform="scale(0.996264)"/>
       <use xlink:href="#CMMI12-3a" transform="translate(45.690477 0) scale(0.996264)"/>
       <use xlink:href="#CMR17-34" transform="translate(72.787654 0) scale(0.996264)"/>
      </g>
     </g>
    </g>
    <g id="ytick_4">
     <g id="text_10">
      <!-- $\mathdefault{1.5}$ -->
      <g transform="translate(43.31263 203.186041) scale(0.15 -0.15)">
       <defs>
        <path id="CMR17-35" d="M 730 3692 
C 794 3666 1056 3584 1325 3584 
C 1920 3584 2246 3911 2432 4100 
C 2432 4157 2432 4192 2394 4192 
C 2387 4192 2374 4192 2323 4163 
C 2099 4058 1837 3973 1517 3973 
C 1325 3973 1037 3999 723 4139 
C 653 4171 640 4171 634 4171 
C 602 4171 595 4164 595 4037 
L 595 2203 
C 595 2089 595 2057 659 2057 
C 691 2057 704 2070 736 2114 
C 941 2401 1222 2522 1542 2522 
C 1766 2522 2246 2382 2246 1289 
C 2246 1085 2246 715 2054 421 
C 1894 159 1645 25 1370 25 
C 947 25 518 320 403 814 
C 429 807 480 795 506 795 
C 589 795 749 840 749 1038 
C 749 1210 627 1280 506 1280 
C 358 1280 262 1190 262 1011 
C 262 454 704 -128 1382 -128 
C 2042 -128 2669 440 2669 1264 
C 2669 2030 2170 2624 1549 2624 
C 1222 2624 947 2503 730 2274 
L 730 3692 
z
" transform="scale(0.015625)"/>
       </defs>
       <use xlink:href="#CMR17-31" transform="scale(0.996264)"/>
       <use xlink:href="#CMMI12-3a" transform="translate(45.690477 0) scale(0.996264)"/>
       <use xlink:href="#CMR17-35" transform="translate(72.787654 0) scale(0.996264)"/>
      </g>
     </g>
    </g>
    <g id="ytick_5">
     <g id="text_11">
      <!-- $\mathdefault{1.6}$ -->
      <g transform="translate(43.31263 151.540413) scale(0.15 -0.15)">
       <defs>
        <path id="CMR17-36" d="M 678 2176 
C 678 3690 1395 4032 1811 4032 
C 1946 4032 2272 4009 2400 3776 
C 2298 3776 2106 3776 2106 3553 
C 2106 3381 2246 3323 2336 3323 
C 2394 3323 2566 3348 2566 3560 
C 2566 3954 2246 4179 1805 4179 
C 1043 4179 243 3390 243 1984 
C 243 253 966 -128 1478 -128 
C 2099 -128 2688 427 2688 1283 
C 2688 2081 2170 2662 1517 2662 
C 1126 2662 838 2407 678 1960 
L 678 2176 
z
M 1478 25 
C 691 25 691 1200 691 1436 
C 691 1896 909 2560 1504 2560 
C 1613 2560 1926 2560 2138 2120 
C 2253 1870 2253 1609 2253 1289 
C 2253 944 2253 690 2118 434 
C 1978 171 1773 25 1478 25 
z
" transform="scale(0.015625)"/>
       </defs>
       <use xlink:href="#CMR17-31" transform="scale(0.996264)"/>
       <use xlink:href="#CMMI12-3a" transform="translate(45.690477 0) scale(0.996264)"/>
       <use xlink:href="#CMR17-36" transform="translate(72.787654 0) scale(0.996264)"/>
      </g>
     </g>
    </g>
    <g id="ytick_6">
     <g id="text_12">
      <!-- $\mathdefault{1.7}$ -->
      <g transform="translate(43.31263 99.894784) scale(0.15 -0.15)">
       <defs>
        <path id="CMR17-37" d="M 2886 3941 
L 2886 4081 
L 1382 4081 
C 634 4081 621 4165 595 4288 
L 480 4288 
L 294 3094 
L 410 3094 
C 429 3215 474 3540 550 3661 
C 589 3712 1062 3712 1171 3712 
L 2579 3712 
L 1869 2661 
C 1395 1954 1069 999 1069 165 
C 1069 89 1069 -128 1299 -128 
C 1530 -128 1530 89 1530 171 
L 1530 465 
C 1530 1508 1709 2196 2003 2636 
L 2886 3941 
z
" transform="scale(0.015625)"/>
       </defs>
       <use xlink:href="#CMR17-31" transform="scale(0.996264)"/>
       <use xlink:href="#CMMI12-3a" transform="translate(45.690477 0) scale(0.996264)"/>
       <use xlink:href="#CMR17-37" transform="translate(72.787654 0) scale(0.996264)"/>
      </g>
     </g>
    </g>
    <g id="text_13">
     <!-- $n$ -->
     <g transform="translate(35.436997 235.304739) rotate(-90) scale(0.2 -0.2)">
      <defs>
       <path id="CMMI12-6e" d="M 1318 1871 
C 1331 1910 1491 2229 1728 2433 
C 1894 2586 2112 2689 2362 2689 
C 2618 2689 2707 2497 2707 2242 
C 2707 1878 2445 1150 2317 805 
C 2259 651 2227 568 2227 453 
C 2227 166 2426 -64 2733 -64 
C 3328 -64 3552 875 3552 913 
C 3552 945 3526 971 3488 971 
C 3430 971 3424 952 3392 843 
C 3245 319 3002 64 2752 64 
C 2688 64 2586 64 2586 269 
C 2586 429 2656 621 2694 710 
C 2822 1063 3091 1780 3091 2145 
C 3091 2528 2867 2816 2381 2816 
C 1811 2816 1510 2415 1395 2255 
C 1376 2618 1114 2816 832 2816 
C 627 2816 486 2695 378 2478 
C 262 2248 173 1865 173 1839 
C 173 1814 198 1782 243 1782 
C 294 1782 301 1788 339 1935 
C 442 2325 557 2689 813 2689 
C 960 2689 1011 2586 1011 2395 
C 1011 2254 947 2005 902 1807 
L 723 1118 
C 698 996 627 709 595 594 
C 550 428 480 128 480 96 
C 480 6 550 -64 646 -64 
C 723 -64 813 -26 864 70 
C 877 102 934 326 966 453 
L 1107 1028 
L 1318 1871 
z
" transform="scale(0.015625)"/>
      </defs>
      <use xlink:href="#CMMI12-6e" transform="scale(0.996264)"/>
     </g>
    </g>
   </g>
   <g id="PolyCollection_1">
    <defs>
     <path id="mf7bf4870d8" d="M 82.675372 -247.892725 
L 82.675372 -222.961776 
L 86.143188 -222.961776 
L 89.611004 -222.961776 
L 93.078819 -222.961776 
L 96.546635 -222.961776 
L 100.014451 -222.961776 
L 103.482267 -222.961776 
L 106.950083 -222.961776 
L 110.417899 -222.961776 
L 113.885715 -222.961776 
L 117.353531 -222.961776 
L 120.821347 -222.961776 
L 124.289163 -222.961776 
L 127.756979 -222.961776 
L 131.224795 -222.961776 
L 134.692611 -222.961776 
L 138.160427 -222.961776 
L 141.628243 -222.961776 
L 145.096059 -222.961776 
L 148.563875 -222.961776 
L 152.031691 -222.961776 
L 155.499507 -222.961776 
L 158.967323 -222.961776 
L 162.435139 -222.961776 
L 165.902955 -222.961776 
L 169.370771 -222.961776 
L 172.838587 -222.961776 
L 176.306403 -222.961776 
L 179.774219 -222.961776 
L 183.242035 -222.961776 
L 186.709851 -222.961776 
L 190.177667 -222.961776 
L 193.645483 -222.961776 
L 197.113298 -222.961776 
L 200.581114 -222.961776 
L 204.04893 -222.961776 
L 207.516746 -222.961776 
L 210.984562 -222.961776 
L 214.452378 -222.961776 
L 217.920194 -222.961776 
L 221.38801 -222.961776 
L 224.855826 -222.961776 
L 228.323642 -222.961776 
L 231.791458 -222.961776 
L 235.259274 -222.961776 
L 238.72709 -222.961776 
L 242.194906 -222.961776 
L 245.662722 -222.961776 
L 249.130538 -222.961776 
L 252.598354 -222.961776 
L 256.06617 -222.961776 
L 259.533986 -222.961776 
L 263.001802 -222.961776 
L 266.469618 -222.961776 
L 269.937434 -222.961776 
L 273.40525 -222.961776 
L 276.873066 -222.961776 
L 280.340882 -222.961776 
L 283.808698 -222.961776 
L 287.276514 -222.961776 
L 290.74433 -222.961776 
L 294.212146 -222.961776 
L 297.679961 -222.961776 
L 301.147777 -222.961776 
L 304.615593 -222.961776 
L 308.083409 -222.961776 
L 311.551225 -222.961776 
L 315.019041 -222.961776 
L 318.486857 -222.961776 
L 321.954673 -222.961776 
L 325.422489 -222.961776 
L 328.890305 -222.961776 
L 332.358121 -222.961776 
L 335.825937 -222.961776 
L 339.293753 -222.961776 
L 342.761569 -222.961776 
L 346.229385 -222.961776 
L 349.697201 -222.961776 
L 353.165017 -222.961776 
L 356.632833 -222.961776 
L 360.100649 -222.961776 
L 363.568465 -222.961776 
L 367.036281 -222.961776 
L 370.504097 -222.961776 
L 373.971913 -222.961776 
L 377.439729 -222.961776 
L 380.907545 -222.961776 
L 384.375361 -222.961776 
L 387.843177 -222.961776 
L 391.310993 -222.961776 
L 394.778809 -222.961776 
L 398.246625 -222.961776 
L 401.71444 -222.961776 
L 405.182256 -222.961776 
L 408.650072 -222.961776 
L 412.117888 -222.961776 
L 415.585704 -222.961776 
L 419.05352 -222.961776 
L 422.521336 -222.961776 
L 425.989152 -222.961776 
L 425.989152 -247.892725 
L 425.989152 -247.892725 
L 422.521336 -247.892725 
L 419.05352 -247.892725 
L 415.585704 -247.892725 
L 412.117888 -247.892725 
L 408.650072 -247.892725 
L 405.182256 -247.892725 
L 401.71444 -247.892725 
L 398.246625 -247.892725 
L 394.778809 -247.892725 
L 391.310993 -247.892725 
L 387.843177 -247.892725 
L 384.375361 -247.892725 
L 380.907545 -247.892725 
L 377.439729 -247.892725 
L 373.971913 -247.892725 
L 370.504097 -247.892725 
L 367.036281 -247.892725 
L 363.568465 -247.892725 
L 360.100649 -247.892725 
L 356.632833 -247.892725 
L 353.165017 -247.892725 
L 349.697201 -247.892725 
L 346.229385 -247.892725 
L 342.761569 -247.892725 
L 339.293753 -247.892725 
L 335.825937 -247.892725 
L 332.358121 -247.892725 
L 328.890305 -247.892725 
L 325.422489 -247.892725 
L 321.954673 -247.892725 
L 318.486857 -247.892725 
L 315.019041 -247.892725 
L 311.551225 -247.892725 
L 308.083409 -247.892725 
L 304.615593 -247.892725 
L 301.147777 -247.892725 
L 297.679961 -247.892725 
L 294.212146 -247.892725 
L 290.74433 -247.892725 
L 287.276514 -247.892725 
L 283.808698 -247.892725 
L 280.340882 -247.892725 
L 276.873066 -247.892725 
L 273.40525 -247.892725 
L 269.937434 -247.892725 
L 266.469618 -247.892725 
L 263.001802 -247.892725 
L 259.533986 -247.892725 
L 256.06617 -247.892725 
L 252.598354 -247.892725 
L 249.130538 -247.892725 
L 245.662722 -247.892725 
L 242.194906 -247.892725 
L 238.72709 -247.892725 
L 235.259274 -247.892725 
L 231.791458 -247.892725 
L 228.323642 -247.892725 
L 224.855826 -247.892725 
L 221.38801 -247.892725 
L 217.920194 -247.892725 
L 214.452378 -247.892725 
L 210.984562 -247.892725 
L 207.516746 -247.892725 
L 204.04893 -247.892725 
L 200.581114 -247.892725 
L 197.113298 -247.892725 
L 193.645483 -247.892725 
L 190.177667 -247.892725 
L 186.709851 -247.892725 
L 183.242035 -247.892725 
L 179.774219 -247.892725 
L 176.306403 -247.892725 
L 172.838587 -247.892725 
L 169.370771 -247.892725 
L 165.902955 -247.892725 
L 162.435139 -247.892725 
L 158.967323 -247.892725 
L 155.499507 -247.892725 
L 152.031691 -247.892725 
L 148.563875 -247.892725 
L 145.096059 -247.892725 
L 141.628243 -247.892725 
L 138.160427 -247.892725 
L 134.692611 -247.892725 
L 131.224795 -247.892725 
L 127.756979 -247.892725 
L 124.289163 -247.892725 
L 120.821347 -247.892725 
L 117.353531 -247.892725 
L 113.885715 -247.892725 
L 110.417899 -247.892725 
L 106.950083 -247.892725 
L 103.482267 -247.892725 
L 100.014451 -247.892725 
L 96.546635 -247.892725 
L 93.078819 -247.892725 
L 89.611004 -247.892725 
L 86.143188 -247.892725 
L 82.675372 -247.892725 
z
" style="stroke: #d62728; stroke-opacity: 0.2"/>
    </defs>
    <g clip-path="url(#pabc0162535)">
     <use xlink:href="#mf7bf4870d8" x="0" y="432" style="fill: #d62728; fill-opacity: 0.2; stroke: #d62728; stroke-opacity: 0.2"/>
    </g>
   </g>
   <g id="LineCollection_1">
    <path clip-path="url(#pabc0162535)" style="fill: none; stroke: #000000; stroke-width: 1.5"/>
    <path d="M 116.529925 250.523934 
L 125.112769 250.523934 
" clip-path="url(#pabc0162535)" style="fill: none; stroke: #000000; stroke-width: 1.5"/>
    <path d="M 154.199076 228.013114 
L 163.73557 228.013114 
" clip-path="url(#pabc0162535)" style="fill: none; stroke: #000000; stroke-width: 1.5"/>
    <path d="M 191.868227 209.06213 
L 202.35837 209.06213 
" clip-path="url(#pabc0162535)" style="fill: none; stroke: #000000; stroke-width: 1.5"/>
    <path d="M 229.537378 194.965276 
L 240.98117 194.965276 
" clip-path="url(#pabc0162535)" style="fill: none; stroke: #000000; stroke-width: 1.5"/>
    <path d="M 267.206529 195.368782 
L 279.603971 195.368782 
" clip-path="url(#pabc0162535)" style="fill: none; stroke: #000000; stroke-width: 1.5"/>
    <path d="M 304.87568 193.132594 
L 318.226771 193.132594 
" clip-path="url(#pabc0162535)" style="fill: none; stroke: #000000; stroke-width: 1.5"/>
    <path d="M 342.544831 196.8586 
L 356.849571 196.8586 
" clip-path="url(#pabc0162535)" style="fill: none; stroke: #000000; stroke-width: 1.5"/>
    <path d="M 380.213981 189.810972 
L 395.472372 189.810972 
" clip-path="url(#pabc0162535)" style="fill: none; stroke: #000000; stroke-width: 1.5"/>
    <path clip-path="url(#pabc0162535)" style="fill: none; stroke: #000000; stroke-width: 1.5"/>
    <path clip-path="url(#pabc0162535)" style="fill: none; stroke: #000000; stroke-width: 1.5"/>
    <path clip-path="url(#pabc0162535)" style="fill: none; stroke: #000000; stroke-width: 1.5"/>
    <path clip-path="url(#pabc0162535)" style="fill: none; stroke: #000000; stroke-width: 1.5"/>
    <path clip-path="url(#pabc0162535)" style="fill: none; stroke: #000000; stroke-width: 1.5"/>
    <path clip-path="url(#pabc0162535)" style="fill: none; stroke: #000000; stroke-width: 1.5"/>
    <path clip-path="url(#pabc0162535)" style="fill: none; stroke: #000000; stroke-width: 1.5"/>
    <path clip-path="url(#pabc0162535)" style="fill: none; stroke: #000000; stroke-width: 1.5"/>
   </g>
   <g id="LineCollection_2">
    <path clip-path="url(#pabc0162535)" style="fill: none; stroke: #000000; stroke-width: 1.5"/>
    <path d="M 120.821347 312.787359 
L 120.821347 188.260508 
" clip-path="url(#pabc0162535)" style="fill: none; stroke: #000000; stroke-width: 1.5"/>
    <path d="M 158.967323 262.674885 
L 158.967323 193.351342 
" clip-path="url(#pabc0162535)" style="fill: none; stroke: #000000; stroke-width: 1.5"/>
    <path d="M 197.113298 234.264132 
L 197.113298 183.860128 
" clip-path="url(#pabc0162535)" style="fill: none; stroke: #000000; stroke-width: 1.5"/>
    <path d="M 235.259274 215.180621 
L 235.259274 174.749931 
" clip-path="url(#pabc0162535)" style="fill: none; stroke: #000000; stroke-width: 1.5"/>
    <path d="M 273.40525 212.227465 
L 273.40525 178.5101 
" clip-path="url(#pabc0162535)" style="fill: none; stroke: #000000; stroke-width: 1.5"/>
    <path d="M 311.551225 207.713267 
L 311.551225 178.551922 
" clip-path="url(#pabc0162535)" style="fill: none; stroke: #000000; stroke-width: 1.5"/>
    <path d="M 349.697201 209.873076 
L 349.697201 183.844124 
" clip-path="url(#pabc0162535)" style="fill: none; stroke: #000000; stroke-width: 1.5"/>
    <path d="M 387.843177 203.313837 
L 387.843177 176.308107 
" clip-path="url(#pabc0162535)" style="fill: none; stroke: #000000; stroke-width: 1.5"/>
    <path clip-path="url(#pabc0162535)" style="fill: none; stroke: #000000; stroke-width: 1.5"/>
    <path clip-path="url(#pabc0162535)" style="fill: none; stroke: #000000; stroke-width: 1.5"/>
    <path clip-path="url(#pabc0162535)" style="fill: none; stroke: #000000; stroke-width: 1.5"/>
    <path clip-path="url(#pabc0162535)" style="fill: none; stroke: #000000; stroke-width: 1.5"/>
    <path clip-path="url(#pabc0162535)" style="fill: none; stroke: #000000; stroke-width: 1.5"/>
    <path clip-path="url(#pabc0162535)" style="fill: none; stroke: #000000; stroke-width: 1.5"/>
    <path clip-path="url(#pabc0162535)" style="fill: none; stroke: #000000; stroke-width: 1.5"/>
    <path clip-path="url(#pabc0162535)" style="fill: none; stroke: #000000; stroke-width: 1.5"/>
   </g>
   <g id="line2d_1">
    <defs>
     <path id="m6142fb2514" d="M 0 7 
L 0 -7 
" style="stroke: #000000"/>
    </defs>
    <g clip-path="url(#pabc0162535)">
     <use xlink:href="#m6142fb2514" x="116.529925" y="250.523934" style="stroke: #000000"/>
     <use xlink:href="#m6142fb2514" x="154.199076" y="228.013114" style="stroke: #000000"/>
     <use xlink:href="#m6142fb2514" x="191.868227" y="209.06213" style="stroke: #000000"/>
     <use xlink:href="#m6142fb2514" x="229.537378" y="194.965276" style="stroke: #000000"/>
     <use xlink:href="#m6142fb2514" x="267.206529" y="195.368782" style="stroke: #000000"/>
     <use xlink:href="#m6142fb2514" x="304.87568" y="193.132594" style="stroke: #000000"/>
     <use xlink:href="#m6142fb2514" x="342.544831" y="196.8586" style="stroke: #000000"/>
     <use xlink:href="#m6142fb2514" x="380.213981" y="189.810972" style="stroke: #000000"/>
    </g>
   </g>
   <g id="line2d_2">
    <g clip-path="url(#pabc0162535)">
     <use xlink:href="#m6142fb2514" x="125.112769" y="250.523934" style="stroke: #000000"/>
     <use xlink:href="#m6142fb2514" x="163.73557" y="228.013114" style="stroke: #000000"/>
     <use xlink:href="#m6142fb2514" x="202.35837" y="209.06213" style="stroke: #000000"/>
     <use xlink:href="#m6142fb2514" x="240.98117" y="194.965276" style="stroke: #000000"/>
     <use xlink:href="#m6142fb2514" x="279.603971" y="195.368782" style="stroke: #000000"/>
     <use xlink:href="#m6142fb2514" x="318.226771" y="193.132594" style="stroke: #000000"/>
     <use xlink:href="#m6142fb2514" x="356.849571" y="196.8586" style="stroke: #000000"/>
     <use xlink:href="#m6142fb2514" x="395.472372" y="189.810972" style="stroke: #000000"/>
    </g>
   </g>
   <g id="line2d_3">
    <defs>
     <path id="m21ad1d9957" d="M 7 0 
L -7 -0 
" style="stroke: #000000"/>
    </defs>
    <g clip-path="url(#pabc0162535)">
     <use xlink:href="#m21ad1d9957" x="120.821347" y="312.787359" style="stroke: #000000"/>
     <use xlink:href="#m21ad1d9957" x="158.967323" y="262.674885" style="stroke: #000000"/>
     <use xlink:href="#m21ad1d9957" x="197.113298" y="234.264132" style="stroke: #000000"/>
     <use xlink:href="#m21ad1d9957" x="235.259274" y="215.180621" style="stroke: #000000"/>
     <use xlink:href="#m21ad1d9957" x="273.40525" y="212.227465" style="stroke: #000000"/>
     <use xlink:href="#m21ad1d9957" x="311.551225" y="207.713267" style="stroke: #000000"/>
     <use xlink:href="#m21ad1d9957" x="349.697201" y="209.873076" style="stroke: #000000"/>
     <use xlink:href="#m21ad1d9957" x="387.843177" y="203.313837" style="stroke: #000000"/>
    </g>
   </g>
   <g id="line2d_4">
    <g clip-path="url(#pabc0162535)">
     <use xlink:href="#m21ad1d9957" x="120.821347" y="188.260508" style="stroke: #000000"/>
     <use xlink:href="#m21ad1d9957" x="158.967323" y="193.351342" style="stroke: #000000"/>
     <use xlink:href="#m21ad1d9957" x="197.113298" y="183.860128" style="stroke: #000000"/>
     <use xlink:href="#m21ad1d9957" x="235.259274" y="174.749931" style="stroke: #000000"/>
     <use xlink:href="#m21ad1d9957" x="273.40525" y="178.5101" style="stroke: #000000"/>
     <use xlink:href="#m21ad1d9957" x="311.551225" y="178.551922" style="stroke: #000000"/>
     <use xlink:href="#m21ad1d9957" x="349.697201" y="183.844124" style="stroke: #000000"/>
     <use xlink:href="#m21ad1d9957" x="387.843177" y="176.308107" style="stroke: #000000"/>
    </g>
   </g>
   <g id="line2d_5">
    <path d="M 65.509683 196.57275 
L 443.154841 196.57275 
" clip-path="url(#pabc0162535)" style="fill: none; stroke: #d62728; stroke-width: 1.5; stroke-linecap: square"/>
   </g>
   <g id="line2d_6">
    <defs>
     <path id="m4f454e0569" d="M 0 3 
C 0.795609 3 1.55874 2.683901 2.12132 2.12132 
C 2.683901 1.55874 3 0.795609 3 0 
C 3 -0.795609 2.683901 -1.55874 2.12132 -2.12132 
C 1.55874 -2.683901 0.795609 -3 0 -3 
C -0.795609 -3 -1.55874 -2.683901 -2.12132 -2.12132 
C -2.683901 -1.55874 -3 -0.795609 -3 0 
C -3 0.795609 -2.683901 1.55874 -2.12132 2.12132 
C -1.55874 2.683901 -0.795609 3 0 3 
z
" style="stroke: #000000"/>
    </defs>
    <g clip-path="url(#pabc0162535)">
     <use xlink:href="#m4f454e0569" x="120.821347" y="250.523934" style="stroke: #000000"/>
     <use xlink:href="#m4f454e0569" x="158.967323" y="228.013114" style="stroke: #000000"/>
     <use xlink:href="#m4f454e0569" x="197.113298" y="209.06213" style="stroke: #000000"/>
     <use xlink:href="#m4f454e0569" x="235.259274" y="194.965276" style="stroke: #000000"/>
     <use xlink:href="#m4f454e0569" x="273.40525" y="195.368782" style="stroke: #000000"/>
     <use xlink:href="#m4f454e0569" x="311.551225" y="193.132594" style="stroke: #000000"/>
     <use xlink:href="#m4f454e0569" x="349.697201" y="196.8586" style="stroke: #000000"/>
     <use xlink:href="#m4f454e0569" x="387.843177" y="189.810972" style="stroke: #000000"/>
    </g>
   </g>
   <g id="patch_3">
    <path d="M 65.509683 371.9039 
L 65.509683 87.059568 
" style="fill: none; stroke: #000000; stroke-width: 1.2; stroke-linejoin: miter; stroke-linecap: square"/>
   </g>
   <g id="patch_4">
    <path d="M 443.154841 371.9039 
L 443.154841 87.059568 
" style="fill: none; stroke: #000000; stroke-width: 1.2; stroke-linejoin: miter; stroke-linecap: square"/>
   </g>
   <g id="patch_5">
    <path d="M 65.509683 371.9039 
L 443.154841 371.9039 
" style="fill: none; stroke: #000000; stroke-width: 1.2; stroke-linejoin: miter; stroke-linecap: square"/>
   </g>
   <g id="patch_6">
    <path d="M 65.509683 87.059568 
L 443.154841 87.059568 
" style="fill: none; stroke: #000000; stroke-width: 1.2; stroke-linejoin: miter; stroke-linecap: square"/>
   </g>
   <g id="text_14">
    <!-- Glass To Air -->
    <g transform="translate(193.337603 81.059568) scale(0.24 -0.24)">
     <defs>
      <path id="CMR17-47" d="M 3974 1233 
C 3974 1473 3994 1505 4390 1505 
L 4390 1670 
C 4237 1664 3891 1664 3718 1664 
C 3539 1664 3040 1664 2797 1664 
L 2797 1505 
L 2989 1505 
C 3539 1505 3552 1434 3552 1201 
L 3552 774 
C 3552 63 2720 63 2522 63 
C 1862 63 781 511 781 2160 
C 781 3808 1843 4250 2464 4250 
C 3187 4250 3712 3626 3834 2741 
C 3846 2664 3846 2651 3904 2651 
C 3974 2651 3974 2664 3974 2779 
L 3974 4288 
C 3974 4402 3968 4409 3930 4409 
C 3904 4409 3898 4402 3853 4326 
L 3571 3791 
C 3258 4187 2874 4416 2381 4416 
C 1286 4416 294 3456 294 2148 
C 294 845 1267 -128 2394 -128 
C 2912 -128 3418 56 3616 417 
C 3725 158 3904 -20 3936 -20 
C 3968 -20 3974 -13 3974 100 
L 3974 1233 
z
" transform="scale(0.015625)"/>
      <path id="CMR17-6c" d="M 979 4396 
L 218 4326 
L 218 4160 
C 595 4160 653 4122 653 3817 
L 653 426 
C 653 184 627 153 218 153 
L 218 -13 
C 371 0 653 0 813 0 
C 979 0 1261 0 1414 -13 
L 1414 153 
C 1005 153 979 178 979 426 
L 979 4396 
z
" transform="scale(0.015625)"/>
      <path id="CMR17-61" d="M 2304 1653 
C 2304 2072 2304 2294 2035 2543 
C 1798 2752 1523 2816 1306 2816 
C 800 2816 435 2407 435 1971 
C 435 1728 627 1728 666 1728 
C 749 1728 896 1778 896 1954 
C 896 2112 774 2181 666 2181 
C 640 2181 608 2174 589 2168 
C 723 2592 1069 2714 1293 2714 
C 1613 2714 1965 2429 1965 1885 
L 1965 1600 
C 1587 1600 1133 1549 774 1357 
C 371 1133 256 813 256 570 
C 256 77 832 -64 1171 -64 
C 1523 -64 1850 139 1990 511 
C 2003 233 2182 -18 2464 -18 
C 2598 -18 2938 70 2938 567 
L 2938 920 
L 2822 920 
L 2822 562 
C 2822 178 2650 128 2566 128 
C 2304 128 2304 458 2304 738 
L 2304 1653 
z
M 1965 870 
C 1965 317 1568 38 1216 38 
C 896 38 646 275 646 570 
C 646 761 730 1100 1101 1305 
C 1408 1478 1760 1504 1965 1504 
L 1965 870 
z
" transform="scale(0.015625)"/>
      <path id="CMR17-73" d="M 1978 2697 
C 1978 2813 1971 2819 1933 2819 
C 1907 2819 1901 2813 1824 2717 
C 1805 2691 1747 2626 1728 2601 
C 1523 2819 1235 2819 1126 2819 
C 416 2819 160 2447 160 2076 
C 160 1498 813 1365 998 1325 
C 1402 1243 1542 1217 1677 1101 
C 1760 1025 1901 884 1901 654 
C 1901 384 1747 38 1158 38 
C 602 38 403 460 288 1021 
C 269 1110 269 1117 218 1117 
C 166 1117 160 1110 160 983 
L 160 63 
C 160 -51 166 -58 205 -58 
C 237 -58 243 -51 275 0 
C 314 57 410 211 448 276 
C 576 103 800 -64 1158 -64 
C 1792 -64 2131 283 2131 784 
C 2131 1112 1958 1285 1875 1362 
C 1683 1561 1459 1606 1190 1657 
C 838 1735 390 1825 390 2217 
C 390 2383 480 2737 1126 2737 
C 1811 2737 1850 2094 1862 1888 
C 1869 1856 1901 1849 1920 1849 
C 1978 1849 1978 1869 1978 1978 
L 1978 2697 
z
" transform="scale(0.015625)"/>
      <path id="CMR17-54" d="M 3981 4326 
L 288 4326 
L 179 2918 
L 294 2918 
C 378 3976 467 4160 1453 4160 
C 1568 4160 1754 4160 1805 4154 
C 1926 4135 1926 4058 1926 3912 
L 1926 459 
C 1926 230 1907 160 1376 160 
L 1197 160 
L 1197 0 
C 1504 0 1824 0 2138 0 
C 2451 0 2771 0 3078 0 
L 3078 160 
L 2899 160 
C 2368 160 2349 230 2349 459 
L 2349 3912 
C 2349 4052 2349 4129 2464 4154 
C 2515 4160 2701 4160 2816 4160 
C 3795 4160 3891 3976 3974 2918 
L 4090 2918 
L 3981 4326 
z
" transform="scale(0.015625)"/>
      <path id="CMR17-6f" d="M 2758 1356 
C 2758 2176 2163 2816 1466 2816 
C 768 2816 173 2176 173 1356 
C 173 551 768 -64 1466 -64 
C 2163 -64 2758 551 2758 1356 
z
M 1466 51 
C 1165 51 909 230 762 480 
C 602 767 582 1126 582 1408 
C 582 1677 595 2010 762 2298 
C 890 2509 1139 2714 1466 2714 
C 1754 2714 1997 2554 2150 2330 
C 2349 2029 2349 1607 2349 1408 
C 2349 1158 2336 775 2163 467 
C 1984 173 1709 51 1466 51 
z
" transform="scale(0.015625)"/>
      <path id="CMR17-41" d="M 2323 4378 
C 2291 4461 2278 4480 2214 4480 
C 2150 4480 2138 4461 2106 4378 
L 749 566 
C 627 223 371 153 147 153 
L 147 -13 
C 262 0 518 0 640 0 
C 800 0 1056 0 1210 -13 
L 1210 153 
C 909 153 864 361 864 439 
C 864 497 877 530 890 569 
L 1229 1536 
L 2906 1536 
L 3290 442 
C 3322 365 3322 352 3322 327 
C 3322 153 3046 153 2925 153 
L 2925 0 
C 3110 0 3443 0 3642 0 
C 3808 0 4128 0 4282 -13 
L 4282 153 
C 3942 153 3827 153 3744 387 
L 2323 4378 
z
M 2067 3893 
L 2848 1702 
L 1286 1702 
L 2067 3893 
z
" transform="scale(0.015625)"/>
      <path id="CMR17-69" d="M 992 3909 
C 992 4049 877 4170 730 4170 
C 589 4170 467 4056 467 3909 
C 467 3769 582 3648 730 3648 
C 870 3648 992 3763 992 3909 
z
M 243 2706 
L 243 2541 
C 602 2541 653 2502 653 2197 
L 653 427 
C 653 184 627 153 218 153 
L 218 -13 
C 371 0 646 0 806 0 
C 960 0 1222 0 1370 -13 
L 1370 153 
C 992 153 979 191 979 420 
L 979 2776 
L 243 2706 
z
" transform="scale(0.015625)"/>
      <path id="CMR17-72" d="M 960 1497 
C 960 2112 1222 2688 1702 2688 
C 1747 2688 1792 2682 1837 2662 
C 1837 2662 1696 2617 1696 2452 
C 1696 2298 1818 2234 1914 2234 
C 1990 2234 2131 2279 2131 2458 
C 2131 2663 1926 2790 1709 2790 
C 1222 2790 1011 2317 947 2093 
L 941 2093 
L 941 2790 
L 198 2720 
L 198 2554 
C 576 2554 634 2515 634 2208 
L 634 428 
C 634 184 608 153 198 153 
L 198 -13 
C 352 0 646 0 813 0 
C 998 0 1325 0 1498 -13 
L 1498 153 
C 1037 153 960 153 960 440 
L 960 1497 
z
" transform="scale(0.015625)"/>
     </defs>
     <use xlink:href="#CMR17-47" transform="scale(0.996264)"/>
     <use xlink:href="#CMR17-6c" transform="translate(72.355346 0) scale(0.996264)"/>
     <use xlink:href="#CMR17-61" transform="translate(97.226404 0) scale(0.996264)"/>
     <use xlink:href="#CMR17-73" transform="translate(142.916882 0) scale(0.996264)"/>
     <use xlink:href="#CMR17-73" transform="translate(178.718219 0) scale(0.996264)"/>
     <use xlink:href="#CMR17-54" transform="translate(244.595523 0) scale(0.996264)"/>
     <use xlink:href="#CMR17-6f" transform="translate(303.298148 0) scale(0.996264)"/>
     <use xlink:href="#CMR17-41" transform="translate(379.064592 0) scale(0.996264)"/>
     <use xlink:href="#CMR17-69" transform="translate(448.137022 0) scale(0.996264)"/>
     <use xlink:href="#CMR17-72" transform="translate(473.00808 0) scale(0.996264)"/>
    </g>
   </g>
   <g id="legend_1">
    <g id="patch_7">
     <path d="M 164.019718 148.048142 
L 431.254841 148.048142 
Q 434.654841 148.048142 434.654841 144.648142 
L 434.654841 98.959568 
Q 434.654841 95.559568 431.254841 95.559568 
L 164.019718 95.559568 
Q 160.619718 95.559568 160.619718 98.959568 
L 160.619718 144.648142 
Q 160.619718 148.048142 164.019718 148.048142 
z
" style="fill: #ffffff; opacity: 0.5; stroke: #000000; stroke-linejoin: miter"/>
    </g>
    <g id="line2d_7">
     <path d="M 167.419718 108.309568 
L 184.419718 108.309568 
L 201.419718 108.309568 
" style="fill: none; stroke: #d62728; stroke-width: 1.5; stroke-linecap: square"/>
    </g>
    <g id="text_15">
     <!-- Weighted Mean = 1.503$\pm 0.012$ -->
     <g transform="translate(215.019718 114.259568) scale(0.17 -0.17)">
      <defs>
       <path id="CMR17-57" d="M 5523 3764 
C 5581 3936 5677 4160 6048 4160 
L 6048 4326 
C 5939 4326 5715 4326 5600 4326 
C 5440 4326 5158 4326 5005 4332 
L 5005 4160 
C 5293 4160 5414 4000 5414 3847 
C 5414 3802 5408 3777 5382 3707 
L 4390 555 
L 3347 3873 
C 3328 3937 3322 3963 3322 3988 
C 3322 4160 3603 4160 3725 4160 
L 3725 4326 
C 3539 4326 3219 4326 3021 4326 
C 2861 4326 2573 4326 2426 4332 
L 2426 4160 
C 2720 4160 2797 4141 2861 4027 
C 2886 3969 2989 3638 2989 3619 
C 2989 3593 2976 3555 2970 3536 
L 2029 561 
L 986 3867 
C 954 3957 954 3969 954 3982 
C 954 4160 1235 4160 1363 4160 
L 1363 4326 
C 1178 4326 858 4326 659 4326 
C 493 4326 211 4326 58 4332 
L 58 4160 
C 442 4160 467 4122 531 3918 
L 1779 -20 
C 1811 -115 1811 -128 1869 -128 
C 1920 -128 1939 -115 1965 -26 
L 3053 3433 
L 4141 -26 
C 4166 -115 4186 -128 4237 -128 
C 4294 -128 4294 -115 4326 -20 
L 5523 3764 
z
" transform="scale(0.015625)"/>
       <path id="CMR17-65" d="M 2438 1472 
C 2464 1498 2464 1511 2464 1576 
C 2464 2238 2118 2816 1389 2816 
C 710 2816 173 2169 173 1383 
C 173 551 781 -64 1459 -64 
C 2176 -64 2458 607 2458 740 
C 2458 784 2419 784 2406 784 
C 2362 784 2355 771 2330 696 
C 2189 265 1837 51 1504 51 
C 1229 51 954 203 781 480 
C 582 803 582 1176 582 1472 
L 2438 1472 
z
M 589 1568 
C 634 2505 1126 2714 1382 2714 
C 1818 2714 2112 2297 2118 1568 
L 589 1568 
z
" transform="scale(0.015625)"/>
       <path id="CMR17-67" d="M 710 1164 
C 832 1068 1043 960 1299 960 
C 1805 960 2240 1357 2240 1888 
C 2240 2054 2189 2310 1997 2509 
C 2176 2692 2438 2752 2586 2752 
C 2611 2752 2650 2752 2682 2734 
C 2656 2728 2598 2703 2598 2605 
C 2598 2527 2656 2471 2739 2471 
C 2835 2471 2886 2533 2886 2614 
C 2886 2731 2790 2854 2586 2854 
C 2330 2854 2106 2738 1926 2580 
C 1734 2753 1504 2816 1299 2816 
C 794 2816 358 2419 358 1888 
C 358 1522 570 1292 634 1228 
C 442 1004 442 743 442 711 
C 442 545 506 302 723 168 
C 390 85 128 -169 128 -486 
C 128 -943 736 -1280 1466 -1280 
C 2170 -1280 2803 -956 2803 -479 
C 2803 384 1856 384 1363 384 
C 1216 384 954 384 922 391 
C 723 423 589 602 589 826 
C 589 883 589 1024 710 1164 
z
M 1299 1068 
C 736 1068 736 1760 736 1889 
C 736 2016 736 2708 1299 2708 
C 1862 2708 1862 2016 1862 1889 
C 1862 1760 1862 1068 1299 1068 
z
M 1466 -1171 
C 826 -1171 384 -835 384 -486 
C 384 -289 493 -105 634 -4 
C 794 104 858 104 1293 104 
C 1818 104 2547 104 2547 -486 
C 2547 -835 2106 -1171 1466 -1171 
z
" transform="scale(0.015625)"/>
       <path id="CMR17-68" d="M 2656 1933 
C 2656 2259 2592 2790 1837 2790 
C 1312 2790 1056 2368 979 2157 
L 973 2157 
L 973 4396 
L 211 4326 
L 211 4160 
C 589 4160 646 4122 646 3817 
L 646 426 
C 646 184 621 153 211 153 
L 211 -13 
C 365 0 646 0 813 0 
C 979 0 1267 0 1421 -13 
L 1421 153 
C 1011 153 986 178 986 428 
L 986 1658 
C 986 2247 1344 2688 1792 2688 
C 2266 2688 2317 2266 2317 1958 
L 2317 428 
C 2317 184 2291 153 1882 153 
L 1882 -13 
C 2035 0 2317 0 2483 0 
C 2650 0 2938 0 3091 -13 
L 3091 153 
C 2682 153 2656 178 2656 428 
L 2656 1933 
z
" transform="scale(0.015625)"/>
       <path id="CMR17-74" d="M 966 2560 
L 1862 2560 
L 1862 2725 
L 966 2725 
L 966 3904 
L 851 3904 
C 838 3245 614 2668 70 2668 
L 70 2560 
L 627 2560 
L 627 771 
C 627 650 627 -64 1370 -64 
C 1747 -64 1965 306 1965 777 
L 1965 1140 
L 1850 1140 
L 1850 783 
C 1850 344 1677 51 1408 51 
C 1222 51 966 178 966 758 
L 966 2560 
z
" transform="scale(0.015625)"/>
       <path id="CMR17-64" d="M 1869 4326 
L 1869 4160 
C 2246 4160 2304 4122 2304 3820 
L 2304 2345 
C 2278 2377 2016 2790 1498 2790 
C 845 2790 211 2208 211 1364 
C 211 525 806 -64 1434 -64 
C 1978 -64 2259 337 2291 380 
L 2291 -63 
L 3066 -63 
L 3066 128 
C 2688 128 2630 166 2630 473 
L 2630 4396 
L 1869 4326 
z
M 2291 755 
C 2291 563 2176 390 2029 262 
C 1811 70 1594 38 1472 38 
C 1286 38 621 134 621 1356 
C 621 2612 1363 2688 1530 2688 
C 1824 2688 2061 2522 2208 2291 
C 2291 2157 2291 2138 2291 2023 
L 2291 755 
z
" transform="scale(0.015625)"/>
       <path id="CMR17-4d" d="M 1338 4224 
C 1299 4320 1293 4320 1158 4320 
L 339 4320 
L 339 4160 
C 781 4160 851 4160 851 3875 
L 851 610 
C 851 451 851 153 339 153 
L 339 -13 
C 486 0 755 0 915 0 
C 1075 0 1344 0 1491 -13 
L 1491 153 
C 979 153 979 451 979 610 
L 979 4135 
L 986 4135 
L 2490 89 
C 2515 25 2528 -13 2579 -13 
C 2630 -13 2643 25 2669 89 
L 4186 4166 
L 4192 4166 
L 4192 438 
C 4192 153 4122 153 3680 153 
L 3680 -13 
C 3853 0 4198 0 4384 0 
C 4570 0 4922 0 5094 -13 
L 5094 153 
C 4653 153 4582 153 4582 438 
L 4582 3875 
C 4582 4160 4653 4160 5094 4160 
L 5094 4320 
L 4282 4320 
C 4147 4320 4141 4314 4102 4218 
L 2720 502 
L 1338 4224 
z
" transform="scale(0.015625)"/>
       <path id="CMR17-6e" d="M 2656 1933 
C 2656 2259 2592 2790 1837 2790 
C 1331 2790 1069 2400 973 2144 
L 966 2144 
L 966 2790 
L 211 2720 
L 211 2554 
C 589 2554 646 2515 646 2208 
L 646 428 
C 646 184 621 153 211 153 
L 211 -13 
C 365 0 646 0 813 0 
C 979 0 1267 0 1421 -13 
L 1421 153 
C 1011 153 986 178 986 428 
L 986 1658 
C 986 2247 1344 2688 1792 2688 
C 2266 2688 2317 2266 2317 1958 
L 2317 428 
C 2317 184 2291 153 1882 153 
L 1882 -13 
C 2035 0 2317 0 2483 0 
C 2650 0 2938 0 3091 -13 
L 3091 153 
C 2682 153 2656 178 2656 428 
L 2656 1933 
z
" transform="scale(0.015625)"/>
       <path id="CMR17-3d" d="M 4115 2017 
C 4211 2017 4307 2017 4307 2125 
C 4307 2240 4198 2240 4090 2240 
L 512 2240 
C 403 2240 294 2240 294 2125 
C 294 2017 390 2017 486 2017 
L 4115 2017 
z
M 4090 896 
C 4198 896 4307 896 4307 1011 
C 4307 1119 4211 1119 4115 1119 
L 486 1119 
C 390 1119 294 1119 294 1011 
C 294 896 403 896 512 896 
L 4090 896 
z
" transform="scale(0.015625)"/>
       <path id="CMR17-2e" d="M 1062 261 
C 1062 420 934 522 800 522 
C 672 522 538 420 538 261 
C 538 102 666 0 800 0 
C 928 0 1062 102 1062 261 
z
" transform="scale(0.015625)"/>
       <path id="CMSY10-6" d="M 2618 1984 
L 4397 1984 
C 4506 1984 4621 1984 4621 2112 
C 4621 2240 4506 2240 4397 2240 
L 2618 2240 
L 2618 4018 
C 2618 4121 2618 4256 2490 4256 
C 2362 4256 2362 4140 2362 4038 
L 2362 2240 
L 576 2240 
C 467 2240 352 2240 352 2112 
C 352 1984 467 1984 576 1984 
L 2362 1984 
L 2362 256 
L 576 256 
C 467 256 352 256 352 128 
C 352 0 467 0 576 0 
L 4397 0 
C 4506 0 4621 0 4621 128 
C 4621 256 4506 256 4397 256 
L 2618 256 
L 2618 1984 
z
" transform="scale(0.015625)"/>
      </defs>
      <use xlink:href="#CMR17-57" transform="scale(0.996264)"/>
      <use xlink:href="#CMR17-65" transform="translate(87.289395 0) scale(0.996264)"/>
      <use xlink:href="#CMR17-69" transform="translate(127.775055 0) scale(0.996264)"/>
      <use xlink:href="#CMR17-67" transform="translate(152.646113 0) scale(0.996264)"/>
      <use xlink:href="#CMR17-68" transform="translate(198.336591 0) scale(0.996264)"/>
      <use xlink:href="#CMR17-74" transform="translate(246.629506 0) scale(0.996264)"/>
      <use xlink:href="#CMR17-65" transform="translate(281.910274 0) scale(0.996264)"/>
      <use xlink:href="#CMR17-64" transform="translate(322.395935 0) scale(0.996264)"/>
      <use xlink:href="#CMR17-4d" transform="translate(403.367271 0) scale(0.996264)"/>
      <use xlink:href="#CMR17-65" transform="translate(488.054211 0) scale(0.996264)"/>
      <use xlink:href="#CMR17-61" transform="translate(528.539872 0) scale(0.996264)"/>
      <use xlink:href="#CMR17-6e" transform="translate(574.230349 0) scale(0.996264)"/>
      <use xlink:href="#CMR17-3d" transform="translate(655.201685 0) scale(0.996264)"/>
      <use xlink:href="#CMR17-31" transform="translate(756.99244 0) scale(0.996264)"/>
      <use xlink:href="#CMR17-2e" transform="translate(802.682917 0) scale(0.996264)"/>
      <use xlink:href="#CMR17-35" transform="translate(827.553975 0) scale(0.996264)"/>
      <use xlink:href="#CMR17-30" transform="translate(873.244453 0) scale(0.996264)"/>
      <use xlink:href="#CMR17-33" transform="translate(918.93493 0) scale(0.996264)"/>
      <use xlink:href="#CMSY10-6" transform="translate(964.625407 0) scale(0.996264)"/>
      <use xlink:href="#CMR17-30" transform="translate(1042.112874 0) scale(0.996264)"/>
      <use xlink:href="#CMMI12-3a" transform="translate(1087.803352 0) scale(0.996264)"/>
      <use xlink:href="#CMR17-30" transform="translate(1114.900529 0) scale(0.996264)"/>
      <use xlink:href="#CMR17-31" transform="translate(1160.591006 0) scale(0.996264)"/>
      <use xlink:href="#CMR17-32" transform="translate(1206.281483 0) scale(0.996264)"/>
     </g>
    </g>
    <g id="patch_8">
     <path d="M 167.419718 137.953855 
L 201.419718 137.953855 
L 201.419718 126.053855 
L 167.419718 126.053855 
z
" style="fill: #d62728; fill-opacity: 0.2; stroke: #d62728; stroke-opacity: 0.2; stroke-linejoin: miter"/>
    </g>
    <g id="text_16">
     <!-- 95\% Confidensinterval -->
     <g transform="translate(215.019718 137.953855) scale(0.17 -0.17)">
      <defs>
       <path id="CMR17-39" d="M 2253 1864 
C 2253 464 1670 31 1190 31 
C 1043 31 685 31 538 294 
C 704 268 826 357 826 518 
C 826 692 685 749 595 749 
C 538 749 365 723 365 506 
C 365 71 742 -128 1203 -128 
C 1939 -128 2688 674 2688 2073 
C 2688 3817 1971 4179 1485 4179 
C 851 4179 243 3628 243 2778 
C 243 1991 762 1408 1414 1408 
C 1952 1408 2189 1903 2253 2112 
L 2253 1864 
z
M 1427 1510 
C 1254 1510 1011 1542 813 1922 
C 678 2169 678 2461 678 2771 
C 678 3146 678 3405 858 3684 
C 947 3817 1114 4032 1485 4032 
C 2240 4032 2240 2885 2240 2632 
C 2240 2182 2035 1510 1427 1510 
z
" transform="scale(0.015625)"/>
       <path id="CMR17-25" d="M 4640 959 
C 4640 1698 4275 2240 3846 2240 
C 3411 2240 2970 1736 2970 959 
C 2970 183 3405 -320 3846 -320 
C 4275 -320 4640 215 4640 959 
z
M 3853 -218 
C 3686 -218 3270 -66 3270 959 
C 3270 1991 3686 2138 3853 2138 
C 4205 2138 4525 1634 4525 959 
C 4525 285 4205 -218 3853 -218 
z
M 4083 4577 
C 4128 4647 4134 4653 4134 4685 
C 4134 4761 4077 4800 4026 4800 
C 3962 4800 3936 4756 3891 4706 
C 3520 4190 3008 4134 2746 4134 
C 2106 4134 1715 4494 1594 4607 
C 1510 4682 1389 4800 1171 4800 
C 736 4800 294 4296 294 3519 
C 294 2743 730 2240 1171 2240 
C 1600 2240 1965 2778 1965 3527 
C 1965 3969 1830 4270 1811 4308 
C 2202 4064 2586 4032 2752 4032 
C 3162 4032 3456 4183 3616 4289 
L 3622 4283 
L 858 -84 
C 800 -174 800 -187 800 -206 
C 800 -276 858 -320 915 -320 
C 973 -320 992 -289 1037 -218 
L 4083 4577 
z
M 1178 2342 
C 1011 2342 595 2494 595 3519 
C 595 4551 1011 4698 1178 4698 
C 1530 4698 1850 4194 1850 3519 
C 1850 2845 1530 2342 1178 2342 
z
" transform="scale(0.015625)"/>
       <path id="CMR17-43" d="M 3974 4289 
C 3974 4403 3968 4410 3930 4410 
C 3904 4410 3898 4403 3853 4327 
L 3571 3792 
C 3258 4187 2874 4416 2381 4416 
C 1286 4416 294 3456 294 2148 
C 294 826 1286 -128 2387 -128 
C 3366 -128 3974 730 3974 1461 
C 3974 1524 3974 1550 3917 1550 
C 3866 1550 3866 1531 3859 1474 
C 3808 585 3168 38 2477 38 
C 1824 38 781 495 781 2147 
C 781 3805 1843 4250 2464 4250 
C 3187 4250 3712 3628 3834 2745 
C 3846 2668 3846 2655 3904 2655 
C 3974 2655 3974 2668 3974 2783 
L 3974 4289 
z
" transform="scale(0.015625)"/>
       <path id="CMR17-c" d="M 2554 2764 
C 2400 2764 1926 2764 1805 2739 
C 1766 2725 1754 2725 1677 2725 
L 947 2725 
L 947 3469 
C 947 4073 1434 4352 1818 4352 
C 1939 4352 2214 4320 2355 4101 
C 2291 4101 2086 4101 2086 3878 
C 2086 3725 2189 3648 2317 3648 
C 2432 3648 2547 3712 2547 3885 
C 2547 4205 2240 4454 1843 4454 
C 1338 4454 634 4168 634 3469 
L 634 2725 
L 122 2725 
L 122 2560 
L 634 2560 
L 634 427 
C 634 184 608 153 198 153 
L 198 -13 
C 352 0 634 0 794 0 
C 960 0 1242 0 1395 -13 
L 1395 153 
C 986 153 960 178 960 427 
L 960 2560 
L 1901 2560 
C 2176 2560 2227 2502 2227 2222 
L 2227 427 
C 2227 184 2202 153 1792 153 
L 1792 -13 
C 1946 0 2227 0 2387 0 
C 2554 0 2835 0 2989 -13 
L 2989 153 
C 2579 153 2554 178 2554 427 
L 2554 2764 
z
" transform="scale(0.015625)"/>
       <path id="CMR17-76" d="M 2502 2163 
C 2560 2304 2662 2560 3034 2560 
L 3034 2726 
C 2912 2726 2752 2726 2630 2726 
C 2496 2726 2285 2726 2157 2732 
L 2157 2566 
C 2317 2553 2406 2477 2406 2311 
C 2406 2253 2406 2240 2368 2151 
L 1664 377 
L 902 2286 
C 864 2369 864 2381 864 2407 
C 864 2560 1075 2560 1171 2560 
L 1171 2732 
C 1018 2726 736 2726 576 2726 
C 403 2726 205 2726 64 2732 
L 64 2560 
C 307 2560 442 2560 518 2362 
L 1446 44 
C 1485 -51 1491 -64 1549 -64 
C 1606 -64 1613 -51 1651 44 
L 2502 2163 
z
" transform="scale(0.015625)"/>
      </defs>
      <use xlink:href="#CMR17-39" transform="scale(0.996264)"/>
      <use xlink:href="#CMR17-35" transform="translate(45.690477 0) scale(0.996264)"/>
      <use xlink:href="#CMR17-25" transform="translate(91.380954 0) scale(0.996264)"/>
      <use xlink:href="#CMR17-43" transform="translate(198.37651 0) scale(0.996264)"/>
      <use xlink:href="#CMR17-6f" transform="translate(264.886391 0) scale(0.996264)"/>
      <use xlink:href="#CMR17-6e" transform="translate(310.576868 0) scale(0.996264)"/>
      <use xlink:href="#CMR17-c" transform="translate(361.472238 0) scale(0.996264)"/>
      <use xlink:href="#CMR17-64" transform="translate(411.214461 0) scale(0.996264)"/>
      <use xlink:href="#CMR17-65" transform="translate(462.109831 0) scale(0.996264)"/>
      <use xlink:href="#CMR17-6e" transform="translate(502.595492 0) scale(0.996264)"/>
      <use xlink:href="#CMR17-73" transform="translate(553.490861 0) scale(0.996264)"/>
      <use xlink:href="#CMR17-69" transform="translate(589.292199 0) scale(0.996264)"/>
      <use xlink:href="#CMR17-6e" transform="translate(614.163257 0) scale(0.996264)"/>
      <use xlink:href="#CMR17-74" transform="translate(662.456173 0) scale(0.996264)"/>
      <use xlink:href="#CMR17-65" transform="translate(697.736941 0) scale(0.996264)"/>
      <use xlink:href="#CMR17-72" transform="translate(738.222602 0) scale(0.996264)"/>
      <use xlink:href="#CMR17-76" transform="translate(773.503369 0) scale(0.996264)"/>
      <use xlink:href="#CMR17-61" transform="translate(816.591469 0) scale(0.996264)"/>
      <use xlink:href="#CMR17-6c" transform="translate(862.281946 0) scale(0.996264)"/>
     </g>
    </g>
   </g>
  </g>
  <g id="axes_2">
   <g id="patch_9">
    <path d="M 464.754841 371.9039 
L 842.4 371.9039 
L 842.4 87.059568 
L 464.754841 87.059568 
z
" style="fill: #ffffff"/>
   </g>
   <g id="matplotlib.axis_3">
    <g id="xtick_6">
     <g id="text_17">
      <!-- $\mathdefault{0}$ -->
      <g transform="translate(478.262411 385.781625) scale(0.15 -0.15)">
       <use xlink:href="#CMR17-30" transform="scale(0.996264)"/>
      </g>
     </g>
    </g>
    <g id="xtick_7">
     <g id="text_18">
      <!-- $\mathdefault{20}$ -->
      <g transform="translate(555.384006 385.781625) scale(0.15 -0.15)">
       <use xlink:href="#CMR17-32" transform="scale(0.996264)"/>
       <use xlink:href="#CMR17-30" transform="translate(45.690477 0) scale(0.996264)"/>
      </g>
     </g>
    </g>
    <g id="xtick_8">
     <g id="text_19">
      <!-- $\mathdefault{40}$ -->
      <g transform="translate(636.163719 385.781625) scale(0.15 -0.15)">
       <use xlink:href="#CMR17-34" transform="scale(0.996264)"/>
       <use xlink:href="#CMR17-30" transform="translate(45.690477 0) scale(0.996264)"/>
      </g>
     </g>
    </g>
    <g id="xtick_9">
     <g id="text_20">
      <!-- $\mathdefault{60}$ -->
      <g transform="translate(716.943432 385.781625) scale(0.15 -0.15)">
       <use xlink:href="#CMR17-36" transform="scale(0.996264)"/>
       <use xlink:href="#CMR17-30" transform="translate(45.690477 0) scale(0.996264)"/>
      </g>
     </g>
    </g>
    <g id="xtick_10">
     <g id="text_21">
      <!-- $\mathdefault{80}$ -->
      <g transform="translate(797.723145 385.781625) scale(0.15 -0.15)">
       <defs>
        <path id="CMR17-38" d="M 1741 2264 
C 2144 2467 2554 2773 2554 3263 
C 2554 3841 1990 4179 1472 4179 
C 890 4179 378 3759 378 3180 
C 378 3021 416 2747 666 2505 
C 730 2442 998 2251 1171 2130 
C 883 1983 211 1634 211 934 
C 211 279 838 -128 1459 -128 
C 2144 -128 2720 362 2720 1010 
C 2720 1590 2330 1857 2074 2029 
L 1741 2264 
z
M 902 2822 
C 851 2854 595 3051 595 3351 
C 595 3739 998 4032 1459 4032 
C 1965 4032 2336 3676 2336 3262 
C 2336 2669 1670 2331 1638 2331 
C 1632 2331 1626 2331 1574 2370 
L 902 2822 
z
M 2080 1519 
C 2176 1449 2483 1240 2483 851 
C 2483 381 2010 25 1472 25 
C 890 25 448 438 448 940 
C 448 1443 838 1862 1280 2060 
L 2080 1519 
z
" transform="scale(0.015625)"/>
       </defs>
       <use xlink:href="#CMR17-38" transform="scale(0.996264)"/>
       <use xlink:href="#CMR17-30" transform="translate(45.690477 0) scale(0.996264)"/>
      </g>
     </g>
    </g>
    <g id="text_22">
     <!-- $\theta_1$ -->
     <g transform="translate(645.617213 406.524366) scale(0.2 -0.2)">
      <use xlink:href="#CMMI12-12" transform="scale(0.996264)"/>
      <use xlink:href="#CMR17-31" transform="translate(45.45979 -14.943915) scale(0.697382)"/>
     </g>
    </g>
   </g>
   <g id="matplotlib.axis_4">
    <g id="ytick_7"/>
    <g id="ytick_8"/>
    <g id="ytick_9"/>
    <g id="ytick_10"/>
    <g id="ytick_11"/>
    <g id="ytick_12"/>
   </g>
   <g id="PolyCollection_2">
    <defs>
     <path id="m3f53fb0c7d" d="M 481.92053 -210.895447 
L 481.92053 -181.947434 
L 485.388346 -181.947434 
L 488.856162 -181.947434 
L 492.323978 -181.947434 
L 495.791794 -181.947434 
L 499.25961 -181.947434 
L 502.727426 -181.947434 
L 506.195242 -181.947434 
L 509.663058 -181.947434 
L 513.130874 -181.947434 
L 516.59869 -181.947434 
L 520.066506 -181.947434 
L 523.534322 -181.947434 
L 527.002138 -181.947434 
L 530.469954 -181.947434 
L 533.93777 -181.947434 
L 537.405586 -181.947434 
L 540.873402 -181.947434 
L 544.341218 -181.947434 
L 547.809034 -181.947434 
L 551.27685 -181.947434 
L 554.744666 -181.947434 
L 558.212482 -181.947434 
L 561.680298 -181.947434 
L 565.148114 -181.947434 
L 568.615929 -181.947434 
L 572.083745 -181.947434 
L 575.551561 -181.947434 
L 579.019377 -181.947434 
L 582.487193 -181.947434 
L 585.955009 -181.947434 
L 589.422825 -181.947434 
L 592.890641 -181.947434 
L 596.358457 -181.947434 
L 599.826273 -181.947434 
L 603.294089 -181.947434 
L 606.761905 -181.947434 
L 610.229721 -181.947434 
L 613.697537 -181.947434 
L 617.165353 -181.947434 
L 620.633169 -181.947434 
L 624.100985 -181.947434 
L 627.568801 -181.947434 
L 631.036617 -181.947434 
L 634.504433 -181.947434 
L 637.972249 -181.947434 
L 641.440065 -181.947434 
L 644.907881 -181.947434 
L 648.375697 -181.947434 
L 651.843513 -181.947434 
L 655.311329 -181.947434 
L 658.779145 -181.947434 
L 662.246961 -181.947434 
L 665.714777 -181.947434 
L 669.182592 -181.947434 
L 672.650408 -181.947434 
L 676.118224 -181.947434 
L 679.58604 -181.947434 
L 683.053856 -181.947434 
L 686.521672 -181.947434 
L 689.989488 -181.947434 
L 693.457304 -181.947434 
L 696.92512 -181.947434 
L 700.392936 -181.947434 
L 703.860752 -181.947434 
L 707.328568 -181.947434 
L 710.796384 -181.947434 
L 714.2642 -181.947434 
L 717.732016 -181.947434 
L 721.199832 -181.947434 
L 724.667648 -181.947434 
L 728.135464 -181.947434 
L 731.60328 -181.947434 
L 735.071096 -181.947434 
L 738.538912 -181.947434 
L 742.006728 -181.947434 
L 745.474544 -181.947434 
L 748.94236 -181.947434 
L 752.410176 -181.947434 
L 755.877992 -181.947434 
L 759.345808 -181.947434 
L 762.813624 -181.947434 
L 766.28144 -181.947434 
L 769.749256 -181.947434 
L 773.217071 -181.947434 
L 776.684887 -181.947434 
L 780.152703 -181.947434 
L 783.620519 -181.947434 
L 787.088335 -181.947434 
L 790.556151 -181.947434 
L 794.023967 -181.947434 
L 797.491783 -181.947434 
L 800.959599 -181.947434 
L 804.427415 -181.947434 
L 807.895231 -181.947434 
L 811.363047 -181.947434 
L 814.830863 -181.947434 
L 818.298679 -181.947434 
L 821.766495 -181.947434 
L 825.234311 -181.947434 
L 825.234311 -210.895447 
L 825.234311 -210.895447 
L 821.766495 -210.895447 
L 818.298679 -210.895447 
L 814.830863 -210.895447 
L 811.363047 -210.895447 
L 807.895231 -210.895447 
L 804.427415 -210.895447 
L 800.959599 -210.895447 
L 797.491783 -210.895447 
L 794.023967 -210.895447 
L 790.556151 -210.895447 
L 787.088335 -210.895447 
L 783.620519 -210.895447 
L 780.152703 -210.895447 
L 776.684887 -210.895447 
L 773.217071 -210.895447 
L 769.749256 -210.895447 
L 766.28144 -210.895447 
L 762.813624 -210.895447 
L 759.345808 -210.895447 
L 755.877992 -210.895447 
L 752.410176 -210.895447 
L 748.94236 -210.895447 
L 745.474544 -210.895447 
L 742.006728 -210.895447 
L 738.538912 -210.895447 
L 735.071096 -210.895447 
L 731.60328 -210.895447 
L 728.135464 -210.895447 
L 724.667648 -210.895447 
L 721.199832 -210.895447 
L 717.732016 -210.895447 
L 714.2642 -210.895447 
L 710.796384 -210.895447 
L 707.328568 -210.895447 
L 703.860752 -210.895447 
L 700.392936 -210.895447 
L 696.92512 -210.895447 
L 693.457304 -210.895447 
L 689.989488 -210.895447 
L 686.521672 -210.895447 
L 683.053856 -210.895447 
L 679.58604 -210.895447 
L 676.118224 -210.895447 
L 672.650408 -210.895447 
L 669.182592 -210.895447 
L 665.714777 -210.895447 
L 662.246961 -210.895447 
L 658.779145 -210.895447 
L 655.311329 -210.895447 
L 651.843513 -210.895447 
L 648.375697 -210.895447 
L 644.907881 -210.895447 
L 641.440065 -210.895447 
L 637.972249 -210.895447 
L 634.504433 -210.895447 
L 631.036617 -210.895447 
L 627.568801 -210.895447 
L 624.100985 -210.895447 
L 620.633169 -210.895447 
L 617.165353 -210.895447 
L 613.697537 -210.895447 
L 610.229721 -210.895447 
L 606.761905 -210.895447 
L 603.294089 -210.895447 
L 599.826273 -210.895447 
L 596.358457 -210.895447 
L 592.890641 -210.895447 
L 589.422825 -210.895447 
L 585.955009 -210.895447 
L 582.487193 -210.895447 
L 579.019377 -210.895447 
L 575.551561 -210.895447 
L 572.083745 -210.895447 
L 568.615929 -210.895447 
L 565.148114 -210.895447 
L 561.680298 -210.895447 
L 558.212482 -210.895447 
L 554.744666 -210.895447 
L 551.27685 -210.895447 
L 547.809034 -210.895447 
L 544.341218 -210.895447 
L 540.873402 -210.895447 
L 537.405586 -210.895447 
L 533.93777 -210.895447 
L 530.469954 -210.895447 
L 527.002138 -210.895447 
L 523.534322 -210.895447 
L 520.066506 -210.895447 
L 516.59869 -210.895447 
L 513.130874 -210.895447 
L 509.663058 -210.895447 
L 506.195242 -210.895447 
L 502.727426 -210.895447 
L 499.25961 -210.895447 
L 495.791794 -210.895447 
L 492.323978 -210.895447 
L 488.856162 -210.895447 
L 485.388346 -210.895447 
L 481.92053 -210.895447 
z
" style="stroke: #d62728; stroke-opacity: 0.2"/>
    </defs>
    <g clip-path="url(#pb018c5be67)">
     <use xlink:href="#m3f53fb0c7d" x="0" y="432" style="fill: #d62728; fill-opacity: 0.2; stroke: #d62728; stroke-opacity: 0.2"/>
    </g>
   </g>
   <g id="LineCollection_3">
    <path clip-path="url(#pb018c5be67)" style="fill: none; stroke: #000000; stroke-width: 1.5"/>
    <path d="M 499.843529 235.364523 
L 504.387388 235.364523 
" clip-path="url(#pb018c5be67)" style="fill: none; stroke: #000000; stroke-width: 1.5"/>
    <path d="M 519.786021 180.462996 
L 524.834753 180.462996 
" clip-path="url(#pb018c5be67)" style="fill: none; stroke: #000000; stroke-width: 1.5"/>
    <path d="M 539.728512 272.144809 
L 545.282118 272.144809 
" clip-path="url(#pb018c5be67)" style="fill: none; stroke: #000000; stroke-width: 1.5"/>
    <path d="M 559.671004 242.534994 
L 565.729483 242.534994 
" clip-path="url(#pb018c5be67)" style="fill: none; stroke: #000000; stroke-width: 1.5"/>
    <path d="M 579.613496 246.84307 
L 586.176848 246.84307 
" clip-path="url(#pb018c5be67)" style="fill: none; stroke: #000000; stroke-width: 1.5"/>
    <path d="M 599.555988 217.673027 
L 606.624212 217.673027 
" clip-path="url(#pb018c5be67)" style="fill: none; stroke: #000000; stroke-width: 1.5"/>
    <path d="M 619.498479 244.379496 
L 627.071577 244.379496 
" clip-path="url(#pb018c5be67)" style="fill: none; stroke: #000000; stroke-width: 1.5"/>
    <path d="M 639.440971 228.680423 
L 647.518942 228.680423 
" clip-path="url(#pb018c5be67)" style="fill: none; stroke: #000000; stroke-width: 1.5"/>
    <path d="M 659.383463 219.417385 
L 667.966307 219.417385 
" clip-path="url(#pb018c5be67)" style="fill: none; stroke: #000000; stroke-width: 1.5"/>
    <path d="M 679.325954 226.099072 
L 688.413672 226.099072 
" clip-path="url(#pb018c5be67)" style="fill: none; stroke: #000000; stroke-width: 1.5"/>
    <path d="M 699.268446 225.768536 
L 708.861037 225.768536 
" clip-path="url(#pb018c5be67)" style="fill: none; stroke: #000000; stroke-width: 1.5"/>
    <path d="M 719.210938 229.489354 
L 729.308402 229.489354 
" clip-path="url(#pb018c5be67)" style="fill: none; stroke: #000000; stroke-width: 1.5"/>
    <path d="M 739.153429 228.913632 
L 749.755767 228.913632 
" clip-path="url(#pb018c5be67)" style="fill: none; stroke: #000000; stroke-width: 1.5"/>
    <path d="M 759.095921 232.946097 
L 770.203131 232.946097 
" clip-path="url(#pb018c5be67)" style="fill: none; stroke: #000000; stroke-width: 1.5"/>
    <path d="M 779.038413 241.215824 
L 790.650496 241.215824 
" clip-path="url(#pb018c5be67)" style="fill: none; stroke: #000000; stroke-width: 1.5"/>
    <path d="M 798.980904 265.630289 
L 811.097861 265.630289 
" clip-path="url(#pb018c5be67)" style="fill: none; stroke: #000000; stroke-width: 1.5"/>
   </g>
   <g id="LineCollection_4">
    <path clip-path="url(#pb018c5be67)" style="fill: none; stroke: #000000; stroke-width: 1.5"/>
    <path d="M 502.115459 358.956431 
L 502.115459 111.772616 
" clip-path="url(#pb018c5be67)" style="fill: none; stroke: #000000; stroke-width: 1.5"/>
    <path d="M 522.310387 260.918954 
L 522.310387 100.007037 
" clip-path="url(#pb018c5be67)" style="fill: none; stroke: #000000; stroke-width: 1.5"/>
    <path d="M 542.505315 316.989464 
L 542.505315 227.300154 
" clip-path="url(#pb018c5be67)" style="fill: none; stroke: #000000; stroke-width: 1.5"/>
    <path d="M 562.700243 282.725 
L 562.700243 202.344987 
" clip-path="url(#pb018c5be67)" style="fill: none; stroke: #000000; stroke-width: 1.5"/>
    <path d="M 582.895172 281.157315 
L 582.895172 212.528825 
" clip-path="url(#pb018c5be67)" style="fill: none; stroke: #000000; stroke-width: 1.5"/>
    <path d="M 603.0901 251.446362 
L 603.0901 183.899692 
" clip-path="url(#pb018c5be67)" style="fill: none; stroke: #000000; stroke-width: 1.5"/>
    <path d="M 623.285028 272.864482 
L 623.285028 215.89451 
" clip-path="url(#pb018c5be67)" style="fill: none; stroke: #000000; stroke-width: 1.5"/>
    <path d="M 643.479957 256.787709 
L 643.479957 200.573137 
" clip-path="url(#pb018c5be67)" style="fill: none; stroke: #000000; stroke-width: 1.5"/>
    <path d="M 663.674885 247.007031 
L 663.674885 191.827738 
" clip-path="url(#pb018c5be67)" style="fill: none; stroke: #000000; stroke-width: 1.5"/>
    <path d="M 683.869813 252.077359 
L 683.869813 200.120785 
" clip-path="url(#pb018c5be67)" style="fill: none; stroke: #000000; stroke-width: 1.5"/>
    <path d="M 704.064741 251.142997 
L 704.064741 200.394075 
" clip-path="url(#pb018c5be67)" style="fill: none; stroke: #000000; stroke-width: 1.5"/>
    <path d="M 724.25967 254.202131 
L 724.25967 204.776576 
" clip-path="url(#pb018c5be67)" style="fill: none; stroke: #000000; stroke-width: 1.5"/>
    <path d="M 744.454598 253.695913 
L 744.454598 204.131351 
" clip-path="url(#pb018c5be67)" style="fill: none; stroke: #000000; stroke-width: 1.5"/>
    <path d="M 764.649526 257.683573 
L 764.649526 208.208622 
" clip-path="url(#pb018c5be67)" style="fill: none; stroke: #000000; stroke-width: 1.5"/>
    <path d="M 784.844454 265.817301 
L 784.844454 216.614348 
" clip-path="url(#pb018c5be67)" style="fill: none; stroke: #000000; stroke-width: 1.5"/>
    <path d="M 805.039383 288.717691 
L 805.039383 242.542887 
" clip-path="url(#pb018c5be67)" style="fill: none; stroke: #000000; stroke-width: 1.5"/>
   </g>
   <g id="line2d_8">
    <g clip-path="url(#pb018c5be67)">
     <use xlink:href="#m6142fb2514" x="499.843529" y="235.364523" style="stroke: #000000"/>
     <use xlink:href="#m6142fb2514" x="519.786021" y="180.462996" style="stroke: #000000"/>
     <use xlink:href="#m6142fb2514" x="539.728512" y="272.144809" style="stroke: #000000"/>
     <use xlink:href="#m6142fb2514" x="559.671004" y="242.534994" style="stroke: #000000"/>
     <use xlink:href="#m6142fb2514" x="579.613496" y="246.84307" style="stroke: #000000"/>
     <use xlink:href="#m6142fb2514" x="599.555988" y="217.673027" style="stroke: #000000"/>
     <use xlink:href="#m6142fb2514" x="619.498479" y="244.379496" style="stroke: #000000"/>
     <use xlink:href="#m6142fb2514" x="639.440971" y="228.680423" style="stroke: #000000"/>
     <use xlink:href="#m6142fb2514" x="659.383463" y="219.417385" style="stroke: #000000"/>
     <use xlink:href="#m6142fb2514" x="679.325954" y="226.099072" style="stroke: #000000"/>
     <use xlink:href="#m6142fb2514" x="699.268446" y="225.768536" style="stroke: #000000"/>
     <use xlink:href="#m6142fb2514" x="719.210938" y="229.489354" style="stroke: #000000"/>
     <use xlink:href="#m6142fb2514" x="739.153429" y="228.913632" style="stroke: #000000"/>
     <use xlink:href="#m6142fb2514" x="759.095921" y="232.946097" style="stroke: #000000"/>
     <use xlink:href="#m6142fb2514" x="779.038413" y="241.215824" style="stroke: #000000"/>
     <use xlink:href="#m6142fb2514" x="798.980904" y="265.630289" style="stroke: #000000"/>
    </g>
   </g>
   <g id="line2d_9">
    <g clip-path="url(#pb018c5be67)">
     <use xlink:href="#m6142fb2514" x="504.387388" y="235.364523" style="stroke: #000000"/>
     <use xlink:href="#m6142fb2514" x="524.834753" y="180.462996" style="stroke: #000000"/>
     <use xlink:href="#m6142fb2514" x="545.282118" y="272.144809" style="stroke: #000000"/>
     <use xlink:href="#m6142fb2514" x="565.729483" y="242.534994" style="stroke: #000000"/>
     <use xlink:href="#m6142fb2514" x="586.176848" y="246.84307" style="stroke: #000000"/>
     <use xlink:href="#m6142fb2514" x="606.624212" y="217.673027" style="stroke: #000000"/>
     <use xlink:href="#m6142fb2514" x="627.071577" y="244.379496" style="stroke: #000000"/>
     <use xlink:href="#m6142fb2514" x="647.518942" y="228.680423" style="stroke: #000000"/>
     <use xlink:href="#m6142fb2514" x="667.966307" y="219.417385" style="stroke: #000000"/>
     <use xlink:href="#m6142fb2514" x="688.413672" y="226.099072" style="stroke: #000000"/>
     <use xlink:href="#m6142fb2514" x="708.861037" y="225.768536" style="stroke: #000000"/>
     <use xlink:href="#m6142fb2514" x="729.308402" y="229.489354" style="stroke: #000000"/>
     <use xlink:href="#m6142fb2514" x="749.755767" y="228.913632" style="stroke: #000000"/>
     <use xlink:href="#m6142fb2514" x="770.203131" y="232.946097" style="stroke: #000000"/>
     <use xlink:href="#m6142fb2514" x="790.650496" y="241.215824" style="stroke: #000000"/>
     <use xlink:href="#m6142fb2514" x="811.097861" y="265.630289" style="stroke: #000000"/>
    </g>
   </g>
   <g id="line2d_10">
    <g clip-path="url(#pb018c5be67)">
     <use xlink:href="#m21ad1d9957" x="502.115459" y="358.956431" style="stroke: #000000"/>
     <use xlink:href="#m21ad1d9957" x="522.310387" y="260.918954" style="stroke: #000000"/>
     <use xlink:href="#m21ad1d9957" x="542.505315" y="316.989464" style="stroke: #000000"/>
     <use xlink:href="#m21ad1d9957" x="562.700243" y="282.725" style="stroke: #000000"/>
     <use xlink:href="#m21ad1d9957" x="582.895172" y="281.157315" style="stroke: #000000"/>
     <use xlink:href="#m21ad1d9957" x="603.0901" y="251.446362" style="stroke: #000000"/>
     <use xlink:href="#m21ad1d9957" x="623.285028" y="272.864482" style="stroke: #000000"/>
     <use xlink:href="#m21ad1d9957" x="643.479957" y="256.787709" style="stroke: #000000"/>
     <use xlink:href="#m21ad1d9957" x="663.674885" y="247.007031" style="stroke: #000000"/>
     <use xlink:href="#m21ad1d9957" x="683.869813" y="252.077359" style="stroke: #000000"/>
     <use xlink:href="#m21ad1d9957" x="704.064741" y="251.142997" style="stroke: #000000"/>
     <use xlink:href="#m21ad1d9957" x="724.25967" y="254.202131" style="stroke: #000000"/>
     <use xlink:href="#m21ad1d9957" x="744.454598" y="253.695913" style="stroke: #000000"/>
     <use xlink:href="#m21ad1d9957" x="764.649526" y="257.683573" style="stroke: #000000"/>
     <use xlink:href="#m21ad1d9957" x="784.844454" y="265.817301" style="stroke: #000000"/>
     <use xlink:href="#m21ad1d9957" x="805.039383" y="288.717691" style="stroke: #000000"/>
    </g>
   </g>
   <g id="line2d_11">
    <g clip-path="url(#pb018c5be67)">
     <use xlink:href="#m21ad1d9957" x="502.115459" y="111.772616" style="stroke: #000000"/>
     <use xlink:href="#m21ad1d9957" x="522.310387" y="100.007037" style="stroke: #000000"/>
     <use xlink:href="#m21ad1d9957" x="542.505315" y="227.300154" style="stroke: #000000"/>
     <use xlink:href="#m21ad1d9957" x="562.700243" y="202.344987" style="stroke: #000000"/>
     <use xlink:href="#m21ad1d9957" x="582.895172" y="212.528825" style="stroke: #000000"/>
     <use xlink:href="#m21ad1d9957" x="603.0901" y="183.899692" style="stroke: #000000"/>
     <use xlink:href="#m21ad1d9957" x="623.285028" y="215.89451" style="stroke: #000000"/>
     <use xlink:href="#m21ad1d9957" x="643.479957" y="200.573137" style="stroke: #000000"/>
     <use xlink:href="#m21ad1d9957" x="663.674885" y="191.827738" style="stroke: #000000"/>
     <use xlink:href="#m21ad1d9957" x="683.869813" y="200.120785" style="stroke: #000000"/>
     <use xlink:href="#m21ad1d9957" x="704.064741" y="200.394075" style="stroke: #000000"/>
     <use xlink:href="#m21ad1d9957" x="724.25967" y="204.776576" style="stroke: #000000"/>
     <use xlink:href="#m21ad1d9957" x="744.454598" y="204.131351" style="stroke: #000000"/>
     <use xlink:href="#m21ad1d9957" x="764.649526" y="208.208622" style="stroke: #000000"/>
     <use xlink:href="#m21ad1d9957" x="784.844454" y="216.614348" style="stroke: #000000"/>
     <use xlink:href="#m21ad1d9957" x="805.039383" y="242.542887" style="stroke: #000000"/>
    </g>
   </g>
   <g id="line2d_12">
    <path d="M 464.754841 235.578559 
L 842.4 235.578559 
" clip-path="url(#pb018c5be67)" style="fill: none; stroke: #d62728; stroke-width: 1.5; stroke-linecap: square"/>
   </g>
   <g id="line2d_13">
    <g clip-path="url(#pb018c5be67)">
     <use xlink:href="#m4f454e0569" x="502.115459" y="235.364523" style="stroke: #000000"/>
     <use xlink:href="#m4f454e0569" x="522.310387" y="180.462996" style="stroke: #000000"/>
     <use xlink:href="#m4f454e0569" x="542.505315" y="272.144809" style="stroke: #000000"/>
     <use xlink:href="#m4f454e0569" x="562.700243" y="242.534994" style="stroke: #000000"/>
     <use xlink:href="#m4f454e0569" x="582.895172" y="246.84307" style="stroke: #000000"/>
     <use xlink:href="#m4f454e0569" x="603.0901" y="217.673027" style="stroke: #000000"/>
     <use xlink:href="#m4f454e0569" x="623.285028" y="244.379496" style="stroke: #000000"/>
     <use xlink:href="#m4f454e0569" x="643.479957" y="228.680423" style="stroke: #000000"/>
     <use xlink:href="#m4f454e0569" x="663.674885" y="219.417385" style="stroke: #000000"/>
     <use xlink:href="#m4f454e0569" x="683.869813" y="226.099072" style="stroke: #000000"/>
     <use xlink:href="#m4f454e0569" x="704.064741" y="225.768536" style="stroke: #000000"/>
     <use xlink:href="#m4f454e0569" x="724.25967" y="229.489354" style="stroke: #000000"/>
     <use xlink:href="#m4f454e0569" x="744.454598" y="228.913632" style="stroke: #000000"/>
     <use xlink:href="#m4f454e0569" x="764.649526" y="232.946097" style="stroke: #000000"/>
     <use xlink:href="#m4f454e0569" x="784.844454" y="241.215824" style="stroke: #000000"/>
     <use xlink:href="#m4f454e0569" x="805.039383" y="265.630289" style="stroke: #000000"/>
    </g>
   </g>
   <g id="patch_10">
    <path d="M 464.754841 371.9039 
L 464.754841 87.059568 
" style="fill: none; stroke: #000000; stroke-width: 1.2; stroke-linejoin: miter; stroke-linecap: square"/>
   </g>
   <g id="patch_11">
    <path d="M 842.4 371.9039 
L 842.4 87.059568 
" style="fill: none; stroke: #000000; stroke-width: 1.2; stroke-linejoin: miter; stroke-linecap: square"/>
   </g>
   <g id="patch_12">
    <path d="M 464.754841 371.9039 
L 842.4 371.9039 
" style="fill: none; stroke: #000000; stroke-width: 1.2; stroke-linejoin: miter; stroke-linecap: square"/>
   </g>
   <g id="patch_13">
    <path d="M 464.754841 87.059568 
L 842.4 87.059568 
" style="fill: none; stroke: #000000; stroke-width: 1.2; stroke-linejoin: miter; stroke-linecap: square"/>
   </g>
   <g id="text_23">
    <!-- Air To Glass -->
    <g transform="translate(592.582762 81.059568) scale(0.24 -0.24)">
     <use xlink:href="#CMR17-41" transform="scale(0.996264)"/>
     <use xlink:href="#CMR17-69" transform="translate(69.07243 0) scale(0.996264)"/>
     <use xlink:href="#CMR17-72" transform="translate(93.943488 0) scale(0.996264)"/>
     <use xlink:href="#CMR17-54" transform="translate(159.300222 0) scale(0.996264)"/>
     <use xlink:href="#CMR17-6f" transform="translate(218.002848 0) scale(0.996264)"/>
     <use xlink:href="#CMR17-47" transform="translate(293.769291 0) scale(0.996264)"/>
     <use xlink:href="#CMR17-6c" transform="translate(366.124637 0) scale(0.996264)"/>
     <use xlink:href="#CMR17-61" transform="translate(390.995695 0) scale(0.996264)"/>
     <use xlink:href="#CMR17-73" transform="translate(436.686173 0) scale(0.996264)"/>
     <use xlink:href="#CMR17-73" transform="translate(472.48751 0) scale(0.996264)"/>
    </g>
   </g>
   <g id="legend_2">
    <g id="patch_14">
     <path d="M 563.264877 148.048142 
L 830.5 148.048142 
Q 833.9 148.048142 833.9 144.648142 
L 833.9 98.959568 
Q 833.9 95.559568 830.5 95.559568 
L 563.264877 95.559568 
Q 559.864877 95.559568 559.864877 98.959568 
L 559.864877 144.648142 
Q 559.864877 148.048142 563.264877 148.048142 
z
" style="fill: #ffffff; opacity: 0.5; stroke: #000000; stroke-linejoin: miter"/>
    </g>
    <g id="line2d_14">
     <path d="M 566.664877 108.309568 
L 583.664877 108.309568 
L 600.664877 108.309568 
" style="fill: none; stroke: #d62728; stroke-width: 1.5; stroke-linecap: square"/>
    </g>
    <g id="text_24">
     <!-- Weighted Mean = 1.427$\pm 0.014$ -->
     <g transform="translate(614.264877 114.259568) scale(0.17 -0.17)">
      <use xlink:href="#CMR17-57" transform="scale(0.996264)"/>
      <use xlink:href="#CMR17-65" transform="translate(87.289395 0) scale(0.996264)"/>
      <use xlink:href="#CMR17-69" transform="translate(127.775055 0) scale(0.996264)"/>
      <use xlink:href="#CMR17-67" transform="translate(152.646113 0) scale(0.996264)"/>
      <use xlink:href="#CMR17-68" transform="translate(198.336591 0) scale(0.996264)"/>
      <use xlink:href="#CMR17-74" transform="translate(246.629506 0) scale(0.996264)"/>
      <use xlink:href="#CMR17-65" transform="translate(281.910274 0) scale(0.996264)"/>
      <use xlink:href="#CMR17-64" transform="translate(322.395935 0) scale(0.996264)"/>
      <use xlink:href="#CMR17-4d" transform="translate(403.367271 0) scale(0.996264)"/>
      <use xlink:href="#CMR17-65" transform="translate(488.054211 0) scale(0.996264)"/>
      <use xlink:href="#CMR17-61" transform="translate(528.539872 0) scale(0.996264)"/>
      <use xlink:href="#CMR17-6e" transform="translate(574.230349 0) scale(0.996264)"/>
      <use xlink:href="#CMR17-3d" transform="translate(655.201685 0) scale(0.996264)"/>
      <use xlink:href="#CMR17-31" transform="translate(756.99244 0) scale(0.996264)"/>
      <use xlink:href="#CMR17-2e" transform="translate(802.682917 0) scale(0.996264)"/>
      <use xlink:href="#CMR17-34" transform="translate(827.553975 0) scale(0.996264)"/>
      <use xlink:href="#CMR17-32" transform="translate(873.244453 0) scale(0.996264)"/>
      <use xlink:href="#CMR17-37" transform="translate(918.93493 0) scale(0.996264)"/>
      <use xlink:href="#CMSY10-6" transform="translate(964.625407 0) scale(0.996264)"/>
      <use xlink:href="#CMR17-30" transform="translate(1042.112874 0) scale(0.996264)"/>
      <use xlink:href="#CMMI12-3a" transform="translate(1087.803352 0) scale(0.996264)"/>
      <use xlink:href="#CMR17-30" transform="translate(1114.900529 0) scale(0.996264)"/>
      <use xlink:href="#CMR17-31" transform="translate(1160.591006 0) scale(0.996264)"/>
      <use xlink:href="#CMR17-34" transform="translate(1206.281483 0) scale(0.996264)"/>
     </g>
    </g>
    <g id="patch_15">
     <path d="M 566.664877 137.953855 
L 600.664877 137.953855 
L 600.664877 126.053855 
L 566.664877 126.053855 
z
" style="fill: #d62728; fill-opacity: 0.2; stroke: #d62728; stroke-opacity: 0.2; stroke-linejoin: miter"/>
    </g>
    <g id="text_25">
     <!-- 95\% Confidenceinterval -->
     <g transform="translate(614.264877 137.953855) scale(0.17 -0.17)">
      <defs>
       <path id="CMR17-63" d="M 2234 2240 
C 2112 2240 1933 2240 1933 2017 
C 1933 1838 2080 1787 2163 1787 
C 2208 1787 2394 1807 2394 2024 
C 2394 2467 1958 2803 1466 2803 
C 787 2803 211 2178 211 1363 
C 211 516 813 -64 1466 -64 
C 2259 -64 2458 677 2458 748 
C 2458 774 2451 793 2406 793 
C 2362 793 2355 787 2330 703 
C 2163 180 1798 51 1523 51 
C 1114 51 621 427 621 1369 
C 621 2338 1094 2688 1472 2688 
C 1722 2688 2093 2573 2234 2240 
z
" transform="scale(0.015625)"/>
      </defs>
      <use xlink:href="#CMR17-39" transform="scale(0.996264)"/>
      <use xlink:href="#CMR17-35" transform="translate(45.690477 0) scale(0.996264)"/>
      <use xlink:href="#CMR17-25" transform="translate(91.380954 0) scale(0.996264)"/>
      <use xlink:href="#CMR17-43" transform="translate(198.37651 0) scale(0.996264)"/>
      <use xlink:href="#CMR17-6f" transform="translate(264.886391 0) scale(0.996264)"/>
      <use xlink:href="#CMR17-6e" transform="translate(310.576868 0) scale(0.996264)"/>
      <use xlink:href="#CMR17-c" transform="translate(361.472238 0) scale(0.996264)"/>
      <use xlink:href="#CMR17-64" transform="translate(411.214461 0) scale(0.996264)"/>
      <use xlink:href="#CMR17-65" transform="translate(462.109831 0) scale(0.996264)"/>
      <use xlink:href="#CMR17-6e" transform="translate(502.595492 0) scale(0.996264)"/>
      <use xlink:href="#CMR17-63" transform="translate(553.490861 0) scale(0.996264)"/>
      <use xlink:href="#CMR17-65" transform="translate(593.976522 0) scale(0.996264)"/>
      <use xlink:href="#CMR17-69" transform="translate(634.462182 0) scale(0.996264)"/>
      <use xlink:href="#CMR17-6e" transform="translate(659.333241 0) scale(0.996264)"/>
      <use xlink:href="#CMR17-74" transform="translate(707.626157 0) scale(0.996264)"/>
      <use xlink:href="#CMR17-65" transform="translate(742.906924 0) scale(0.996264)"/>
      <use xlink:href="#CMR17-72" transform="translate(783.392585 0) scale(0.996264)"/>
      <use xlink:href="#CMR17-76" transform="translate(818.673353 0) scale(0.996264)"/>
      <use xlink:href="#CMR17-61" transform="translate(861.761452 0) scale(0.996264)"/>
      <use xlink:href="#CMR17-6c" transform="translate(907.451929 0) scale(0.996264)"/>
     </g>
    </g>
   </g>
  </g>
  <g id="text_26">
   <!-- Refractive index as a function of $\theta_1$ -->
   <g transform="translate(263.29597 25.244405) scale(0.24 -0.24)">
    <defs>
     <path id="CMR17-52" d="M 2509 2146 
C 3117 2268 3629 2676 3629 3186 
C 3629 3785 2950 4326 2054 4326 
L 333 4326 
L 333 4160 
C 774 4160 845 4160 845 3873 
L 845 415 
C 845 128 774 128 333 128 
L 333 -26 
C 518 -26 851 -26 1050 -26 
C 1248 -26 1581 -26 1766 -26 
L 1766 128 
C 1325 128 1254 128 1254 417 
L 1254 2112 
L 2003 2112 
C 2368 2112 2573 1964 2662 1881 
C 2918 1632 2918 1459 2918 1024 
C 2918 595 2918 377 3110 160 
C 3354 -102 3680 -128 3821 -128 
C 4294 -128 4365 396 4365 503 
C 4365 540 4365 585 4307 585 
C 4256 585 4250 547 4250 522 
C 4218 112 4032 -26 3834 -26 
C 3482 -26 3443 375 3405 764 
C 3386 898 3373 993 3360 1133 
C 3322 1452 3270 1917 2509 2146 
z
M 1984 2214 
L 1254 2214 
L 1254 3913 
C 1254 4129 1267 4160 1523 4160 
L 1990 4160 
C 2522 4160 3142 3977 3142 3190 
C 3142 2372 2464 2214 1984 2214 
z
" transform="scale(0.015625)"/>
     <path id="CMR17-66" d="M 979 2560 
L 1709 2560 
L 1709 2725 
L 966 2725 
L 966 3494 
C 966 4022 1235 4352 1510 4352 
C 1594 4352 1690 4327 1754 4282 
C 1702 4269 1568 4225 1568 4067 
C 1568 3901 1696 3850 1786 3850 
C 1875 3850 2003 3901 2003 4067 
C 2003 4308 1773 4454 1517 4454 
C 1152 4454 653 4156 653 3481 
L 653 2725 
L 141 2725 
L 141 2560 
L 653 2560 
L 653 427 
C 653 184 627 153 218 153 
L 218 -13 
C 371 0 666 0 832 0 
C 1018 0 1344 0 1517 -13 
L 1517 153 
C 1056 153 979 153 979 439 
L 979 2560 
z
" transform="scale(0.015625)"/>
     <path id="CMR17-78" d="M 1664 1477 
C 1856 1726 2074 2006 2253 2216 
C 2464 2458 2707 2560 2989 2560 
L 2989 2726 
C 2880 2726 2656 2726 2541 2726 
C 2368 2726 2170 2726 2022 2732 
L 2022 2566 
C 2112 2553 2163 2489 2163 2400 
C 2163 2285 2099 2215 2067 2171 
L 1594 1573 
L 1030 2306 
C 973 2376 973 2388 973 2420 
C 973 2497 1037 2560 1146 2560 
L 1146 2732 
C 992 2726 717 2726 557 2726 
C 384 2726 179 2726 38 2732 
L 38 2560 
C 384 2560 461 2534 614 2343 
L 1350 1395 
C 1363 1382 1395 1344 1395 1325 
C 1395 1299 838 619 768 530 
C 480 185 179 160 6 160 
L 6 0 
C 115 0 339 0 454 0 
C 582 0 864 0 979 -6 
L 979 160 
C 941 166 838 179 838 325 
C 838 440 890 510 947 586 
L 1478 1236 
L 2035 512 
C 2086 442 2163 346 2163 301 
C 2163 211 2086 160 1984 160 
L 1984 -6 
C 2138 0 2413 0 2573 0 
C 2746 0 2950 0 3091 -6 
L 3091 160 
C 2771 160 2675 172 2522 370 
L 1664 1477 
z
" transform="scale(0.015625)"/>
     <path id="CMR17-75" d="M 1882 2693 
L 1882 2528 
C 2259 2528 2317 2489 2317 2186 
L 2317 1032 
C 2317 500 2029 38 1555 38 
C 1030 38 986 348 986 678 
L 986 2763 
L 211 2693 
L 211 2528 
C 467 2528 640 2528 646 2274 
L 646 1058 
C 646 633 646 361 813 183 
C 896 101 1056 -64 1517 -64 
C 2061 -64 2272 377 2323 506 
L 2330 506 
L 2330 -63 
L 3091 -63 
L 3091 128 
C 2714 128 2656 166 2656 473 
L 2656 2763 
L 1882 2693 
z
" transform="scale(0.015625)"/>
    </defs>
    <use xlink:href="#CMR17-52" transform="scale(0.996264)"/>
    <use xlink:href="#CMR17-65" transform="translate(67.791102 0) scale(0.996264)"/>
    <use xlink:href="#CMR17-66" transform="translate(108.276762 0) scale(0.996264)"/>
    <use xlink:href="#CMR17-72" transform="translate(135.750275 0) scale(0.996264)"/>
    <use xlink:href="#CMR17-61" transform="translate(171.031043 0) scale(0.996264)"/>
    <use xlink:href="#CMR17-63" transform="translate(216.72152 0) scale(0.996264)"/>
    <use xlink:href="#CMR17-74" transform="translate(257.20718 0) scale(0.996264)"/>
    <use xlink:href="#CMR17-69" transform="translate(292.487948 0) scale(0.996264)"/>
    <use xlink:href="#CMR17-76" transform="translate(317.359007 0) scale(0.996264)"/>
    <use xlink:href="#CMR17-65" transform="translate(363.049468 0) scale(0.996264)"/>
    <use xlink:href="#CMR17-69" transform="translate(433.611095 0) scale(0.996264)"/>
    <use xlink:href="#CMR17-6e" transform="translate(458.482154 0) scale(0.996264)"/>
    <use xlink:href="#CMR17-64" transform="translate(509.377523 0) scale(0.996264)"/>
    <use xlink:href="#CMR17-65" transform="translate(560.272893 0) scale(0.996264)"/>
    <use xlink:href="#CMR17-78" transform="translate(600.758554 0) scale(0.996264)"/>
    <use xlink:href="#CMR17-61" transform="translate(679.127436 0) scale(0.996264)"/>
    <use xlink:href="#CMR17-73" transform="translate(724.817913 0) scale(0.996264)"/>
    <use xlink:href="#CMR17-61" transform="translate(790.695217 0) scale(0.996264)"/>
    <use xlink:href="#CMR17-66" transform="translate(866.46166 0) scale(0.996264)"/>
    <use xlink:href="#CMR17-75" transform="translate(893.935173 0) scale(0.996264)"/>
    <use xlink:href="#CMR17-6e" transform="translate(944.830543 0) scale(0.996264)"/>
    <use xlink:href="#CMR17-63" transform="translate(995.725912 0) scale(0.996264)"/>
    <use xlink:href="#CMR17-74" transform="translate(1036.211573 0) scale(0.996264)"/>
    <use xlink:href="#CMR17-69" transform="translate(1071.492341 0) scale(0.996264)"/>
    <use xlink:href="#CMR17-6f" transform="translate(1096.363399 0) scale(0.996264)"/>
    <use xlink:href="#CMR17-6e" transform="translate(1142.053876 0) scale(0.996264)"/>
    <use xlink:href="#CMR17-6f" transform="translate(1223.025212 0) scale(0.996264)"/>
    <use xlink:href="#CMR17-66" transform="translate(1268.71569 0) scale(0.996264)"/>
    <use xlink:href="#CMMI12-12" transform="translate(1326.265168 0) scale(0.996264)"/>
    <use xlink:href="#CMR17-31" transform="translate(1371.724958 -14.943915) scale(0.697382)"/>
   </g>
  </g>
 </g>
 <defs>
  <clipPath id="pabc0162535">
   <rect x="65.509683" y="87.059568" width="377.645159" height="284.844332"/>
  </clipPath>
  <clipPath id="pb018c5be67">
   <rect x="464.754841" y="87.059568" width="377.645159" height="284.844332"/>
  </clipPath>
 </defs>
</svg>
